<svg id="svg4647" xmlns="http://www.w3.org/2000/svg" width="9.12mm" height="9.33mm" viewBox="0 0 25.85 26.46"><defs><style>.cls-1{fill:#fff;}</style></defs><title>Artboard 4</title><path id="rect4598" class="cls-1" d="M4.58,1.72a4,4,0,0,0-4,4v16a4,4,0,0,0,4,4h16a4,4,0,0,0,4-4v-16a4,4,0,0,0-4-4Zm3,4h10a3.08,3.08,0,0,1,3,3v10a3.08,3.08,0,0,1-3,3h-10a3.08,3.08,0,0,1-3-3v-10A3,3,0,0,1,7.58,5.72Zm0,2a.94.94,0,0,0-1,1v10a.94.94,0,0,0,1,1h10a.94.94,0,0,0,1-1v-10a.94.94,0,0,0-1-1Zm9,1a.94.94,0,0,1,1,1h0a.94.94,0,0,1-1,1h0a.94.94,0,0,1-1-1h0a.94.94,0,0,1,1-1Zm-4,1a4,4,0,1,1-4,4A4,4,0,0,1,12.58,9.72Zm0,2a2,2,0,1,0,2,2A2,2,0,0,0,12.58,11.72Z"/></svg>