<svg id="svg4647" xmlns="http://www.w3.org/2000/svg" width="9.9mm" height="9.9mm" viewBox="0 0 28.07 28.07"><defs><style>.cls-1{fill:#fff;}</style></defs><title>Artboard 2</title><path id="rect5230" class="cls-1" d="M5.75,2.11a4,4,0,0,0-4,4v16a4,4,0,0,0,4,4h16a4,4,0,0,0,4-4v-16a4,4,0,0,0-4-4Zm10.9,5.8a3.26,3.26,0,0,1,2.3,1,5.8,5.8,0,0,0,1.9-.8,3,3,0,0,1-1.2,1.7,8.13,8.13,0,0,0,1.7-.4,8,8,0,0,1-1.4,1.5v.3a8.92,8.92,0,0,1-8.9,8.9h0a9.77,9.77,0,0,1-4.7-1.3,6.07,6.07,0,0,0,4.4-1.3,3.16,3.16,0,0,1-2.9-2.2,5.64,5.64,0,0,0,1.4,0,3.18,3.18,0,0,1-2.5-3.1,2.87,2.87,0,0,0,1.4.4,3.12,3.12,0,0,1-.9-4.2,8.64,8.64,0,0,0,6.4,3.3,1.7,1.7,0,0,1-.1-.7,3,3,0,0,1,3.1-3.1Z"/></svg>