<?xml version="1.0" encoding="utf-8"?>
<!-- Generator: Adobe Illustrator 23.0.2, SVG Export Plug-In . SVG Version: 6.00 Build 0)  -->
<svg version="1.1"
	 id="svg4647" xmlns:cc="http://creativecommons.org/ns#" xmlns:dc="http://purl.org/dc/elements/1.1/" xmlns:inkscape="http://www.inkscape.org/namespaces/inkscape" xmlns:rdf="http://www.w3.org/1999/02/22-rdf-syntax-ns#" xmlns:sodipodi="http://sodipodi.sourceforge.net/DTD/sodipodi-0.dtd" xmlns:svg="http://www.w3.org/2000/svg"
	 xmlns="http://www.w3.org/2000/svg" xmlns:xlink="http://www.w3.org/1999/xlink" x="0px" y="0px" viewBox="0 0 24 24"
	 style="enable-background:new 0 0 24 24;" xml:space="preserve">
<style type="text/css">
	.st0{fill:#FFFFFF;}
</style>
<path id="rect4598" class="st0" d="M4-213.7c-2.2,0-4,1.8-4,4v16c0,2.2,1.8,4,4,4h16c2.2,0,4-1.8,4-4v-16c0-2.2-1.8-4-4-4H4z
	 M7-209.7h10c1.6,0,3,1.4,3,3v10c0,1.6-1.4,3-3,3H7c-1.6,0-3-1.4-3-3v-10C4-208.4,5.4-209.7,7-209.7z M7-207.7c-0.6,0-1,0.4-1,1v10
	c0,0.6,0.4,1,1,1h10c0.6,0,1-0.4,1-1v-10c0-0.6-0.4-1-1-1H7z M16-206.7c0.6,0,1,0.4,1,1l0,0c0,0.6-0.4,1-1,1c0,0,0,0,0,0
	c-0.6,0-1-0.4-1-1l0,0C15-206.3,15.4-206.7,16-206.7C16-206.7,16-206.7,16-206.7z M12-205.7c2.2,0,4,1.8,4,4s-1.8,4-4,4
	c-2.2,0-4-1.8-4-4C8-203.9,9.8-205.7,12-205.7z M12-203.7c-1.1,0-2,0.9-2,2c0,1.1,0.9,2,2,2c1.1,0,2-0.9,2-2
	C14-202.8,13.1-203.7,12-203.7z"/>
</svg>
