<?xml version="1.0" encoding="utf-8"?>
<!-- Generator: Adobe Illustrator 23.0.2, SVG Export Plug-In . SVG Version: 6.00 Build 0)  -->
<svg version="1.1"
	 id="svg4647" xmlns:cc="http://creativecommons.org/ns#" xmlns:dc="http://purl.org/dc/elements/1.1/" xmlns:inkscape="http://www.inkscape.org/namespaces/inkscape" xmlns:rdf="http://www.w3.org/1999/02/22-rdf-syntax-ns#" xmlns:sodipodi="http://sodipodi.sourceforge.net/DTD/sodipodi-0.dtd" xmlns:svg="http://www.w3.org/2000/svg"
	 xmlns="http://www.w3.org/2000/svg" xmlns:xlink="http://www.w3.org/1999/xlink" x="0px" y="0px" viewBox="0 0 24 24"
	 style="enable-background:new 0 0 24 24;" xml:space="preserve">
<style type="text/css">
	.st0{fill:#FFFFFF;}
</style>
<path id="rect5230" class="st0" d="M-80.9-290.3c-2.2,0-4,1.8-4,4v16c0,2.2,1.8,4,4,4h16c2.2,0,4-1.8,4-4v-16c0-2.2-1.8-4-4-4H-80.9
	z M-70-284.5c0.9,0,1.7,0.4,2.3,1c0.2,0,1.1-0.3,1.9-0.8c0,0-0.3,1.2-1.2,1.7c0,0,0.9-0.1,1.7-0.4c0,0-0.8,1.1-1.4,1.5
	c0,0,0,0.1,0,0.1c0,0,0,0.1,0,0.1c0,0,0,0.1,0,0.1c0,4.9-4,8.9-8.9,8.9c0,0,0,0,0,0c-1.6,0-3.3-0.5-4.7-1.3c2.8,0.2,4.4-1.3,4.4-1.3
	c-2.4-0.2-2.9-2.2-2.9-2.2c0.7,0.1,1.4,0,1.4,0c-2.6-0.7-2.5-3.1-2.5-3.1c0.6,0.4,1.4,0.4,1.4,0.4c-2.4-1.8-0.9-4.2-0.9-4.2
	c2.5,3.1,5.8,3.3,6.4,3.3c-0.1-0.2-0.1-0.5-0.1-0.7C-73.2-283.1-71.8-284.5-70-284.5C-70-284.5-70-284.5-70-284.5L-70-284.5z"/>
</svg>
