<svg xmlns="http://www.w3.org/2000/svg" width="80.95mm" height="72.44mm" viewBox="0 0 229.47 205.34"><defs><style>.cls-1{fill:#1d1d1b;stroke:#1d1d1b;stroke-miterlimit:10;}</style></defs><title>Tegnebræt 9 kopi</title><g id="Lag_4" data-name="Lag 4"><path class="cls-1" d="M93.75,61.69c12-1.73,23.39-8.15,35.22-11.1,13.5-3.37,26-3.41,39.71-1.86,1.59.18,1.83-2.31.37-2.72-12.63-3.58-26.48-1.8-39,1.35A237.6,237.6,0,0,0,93.13,60.23c-.9.4-.19,1.58.62,1.46Z"/><path class="cls-1" d="M61.44,96.59c-2.42-6.61,1.68-15,2-21.86.2-5.23-.45-11.49-4.17-15.44A1.32,1.32,0,0,0,57,60.56c1.27,3.65,2.79,6.84,3.06,10.78a53.49,53.49,0,0,1-.82,11.44c-.67,4.57-2.8,10.56.28,14.61.64.84,2.34.41,1.89-.8Z"/><path class="cls-1" d="M52.31,142.7c-3.63-2.44-3.31-7.58-3.5-11.43-.21-4.28-.41-8.56-.66-12.84C47.71,110.76,47,103.06,47,95.38c0-7,.64-14.2,3.31-20.76s8.64-10.69,11.82-17c1.65-3.27,2.58-6.7,4.92-9.61A29.89,29.89,0,0,1,75.92,41c7-3.94,15-6.37,22.84-8.05,15.89-3.42,33.36-3.29,48.94,1.61,8.21,2.58,13.83,7.36,19.27,13.79,4.25,5,8.69,10,15.29,11.72,2.73.7,3.77-3.27,1.16-4.18-7.59-2.63-11.78-9.35-17-14.93s-11.8-9-19.1-11.09c-16.56-4.74-34.73-4.64-51.43-.75C87.79,31,79.46,33.62,72.33,37.9,65.55,42,62,47.07,58.78,54.12S49,65.69,46,73.1c-2.74,6.8-3.57,14.21-3.63,21.5-.09,9.93,1.08,19.89,2,29.76.6,6.32-.4,17.4,6.65,20.6a1.31,1.31,0,0,0,1.32-2.26Z"/><path class="cls-1" d="M182.84,57.63c-13,.75-24.42,8-31.66,18.76-4.39,6.54-6.82,14.16-10.79,20.94a72.48,72.48,0,0,1-12.89,16.08C117,123.33,103.81,130.26,90,134.28c-14.42,4.2-30.47,2.79-44.17,9.23-12.37,5.81-22.49,18.19-23.63,32-.18,2.17,3,2.4,3.64.5,4.21-12.89,12.13-24.22,25.34-29,7.74-2.77,16.12-3,24.19-4.14a109.08,109.08,0,0,0,18.22-4.08c24.22-7.71,44.59-23.67,55.35-46.92,3.45-7.46,6.84-14.83,12.93-20.56,5.85-5.51,13.61-9.32,21.29-11.54,1.17-.34,1-2.26-.29-2.19Z"/><path class="cls-1" d="M52.1,142.92c-5.19-2.66-1.1-14.06,0-18.26A108.19,108.19,0,0,1,79.74,75.14C88.45,66,98.26,58,108.17,50.18a111.22,111.22,0,0,1,16.23-11c5.93-3.16,11.82-4,18.1-5.92a1.81,1.81,0,0,0-.47-3.53C135.37,29,128,32.4,122.21,35.45a116.11,116.11,0,0,0-17.14,11.63C92.63,56.81,80.2,67,70.11,79.21A107.43,107.43,0,0,0,49.9,117.12c-1.66,5.62-8.8,26.59,1.63,27.91,1.13.15,1.53-1.62.57-2.11Z"/><path class="cls-1" d="M53.53,116.58c6.46,3.78,14.6,5.78,21.8,7.71a85.74,85.74,0,0,0,21.28,3.25c12.84.11,25.61-4.12,34.61-13.5a1.66,1.66,0,0,0-2.35-2.35c-9.81,8.85-21.83,12.87-35,12.26a91,91,0,0,1-19.43-3.39c-6.69-1.81-13.2-4.82-19.93-6.31a1.28,1.28,0,0,0-1,2.33Z"/><path class="cls-1" d="M61.38,98.26C66.13,103.5,73,104.33,79.8,104c8.88-.43,18-1.79,26.34-4.93,7.63-2.87,14.38-7.36,21.33-11.52,7.71-4.63,15.05-7.77,24-8.79a2,2,0,0,0,0-4c-14.41-1.5-27.21,10-39,16.4A72.84,72.84,0,0,1,86.55,99c-7.86,1-16.77,2-23.73-2.59-1.17-.77-2.32.9-1.44,1.87Z"/><path class="cls-1" d="M83.41,68.42c.47,4.71,9.6,5.65,13.26,6,8.43.72,16.71-1.76,24.65-4.3a172.85,172.85,0,0,1,26.79-6.67A134.27,134.27,0,0,1,163.35,62c4.44-.17,9.09.43,13.44-.5,1.45-.31,1.26-2.34,0-2.75-7.35-2.39-17-.85-24.6,0a139.37,139.37,0,0,0-24.26,4.94c-8.23,2.47-16.35,5.87-25,6.7A37.12,37.12,0,0,1,91,69.77c-2.47-.57-5.07-2.45-7.51-1.46a.13.13,0,0,0-.09.11Z"/><path class="cls-1" d="M78.12,70.77c1.71-5.19,1.41-11.61,1.14-17a27.11,27.11,0,0,0-5.08-15c-.79-1-2.66-.51-2.25,1C73.58,45.56,76,50,76.21,56.24c.15,4.82-.34,9.9,1.19,14.53a.38.38,0,0,0,.72,0Z"/><path class="cls-1" d="M96,55.85c1.61-4,1.78-9,2.38-13.27.54-3.86,1.17-7.78.38-11.64-.34-1.65-2.57-1.07-2.73.37-.47,4.19-.3,8.46-.72,12.69-.39,3.8-1.35,7.85-.88,11.64a.8.8,0,0,0,1.57.21Z"/><path class="cls-1" d="M59.64,153.29c-4.49-2.34-4.55-7.6-4.89-12-.37-4.77-.73-9.54-1.11-14.32-.56-7.26-1.31-14.55-1.18-21.85.14-7.78,1.33-15.75,5.35-22.54C59.76,79.27,62.39,76.72,65,74a28.19,28.19,0,0,0,5.49-8.51C77.38,50.81,97.64,46.25,112.22,44c16.09-2.53,35.36-3,50.93,2.44,7.74,2.68,13.53,7.87,19.23,13.55,4.64,4.62,9.38,9,15.86,10.71a.22.22,0,0,0,.11-.42c-8.3-2.29-13.61-8.86-19.64-14.54a42.63,42.63,0,0,0-16.1-10C146.35,40.57,127,41,110.35,43.83c-13.79,2.37-33,6.92-39.88,20.72a36.82,36.82,0,0,1-7.38,10.73,34.4,34.4,0,0,0-6.74,9c-3.13,6.19-4.17,13.23-4.35,20.1-.26,9.76,1,19.57,1.75,29.28.49,6-.77,16.61,5.76,19.88.15.08.28-.15.13-.22Z"/><path class="cls-1" d="M198.27,70.25c-13,1.9-25,8.75-32.31,19.82-4.24,6.43-6.89,13.75-11.15,20.18a74.58,74.58,0,0,1-14,15.65c-11.55,9.82-25.63,16.48-40.22,20.38s-30.94,2.57-45.08,8.35C43,159.74,33.05,170.7,30.29,184c0,.24.31.34.36.1A42,42,0,0,1,59.3,153.85c13.88-4.28,28.85-3.5,42.91-7.46,24.22-6.82,46.12-21.3,57.73-44.09,4-7.8,7.75-15.35,14.56-21.12a49.59,49.59,0,0,1,23.83-10.72c.14,0,.08-.23-.06-.21Z"/><path class="cls-1" d="M53.54,137.48c-5.11-2.39-5.32-7.85-5.73-12.75-.43-5.1-.85-10.2-1.29-15.3-.7-8.22-1.64-16.49-1.41-24.75s1.74-16.5,6.22-23.45c2.51-3.89,5.85-6.69,9.14-9.86,2.79-2.69,4.26-5.57,6-9,4.31-8.45,13-13,21.53-16.13a137.86,137.86,0,0,1,26.29-6.73c19-3,39.1-2.74,57.79,1.95A53.15,53.15,0,0,1,197.55,36c5.43,5.36,10.76,10.43,18.38,12.29a.22.22,0,0,0,.11-.42c-9.54-2.41-15.22-9.8-22.22-16.06-6.2-5.56-13.59-8.79-21.63-10.8-19.07-4.77-39.57-5-58.9-1.81A130.27,130.27,0,0,0,84.86,27c-6.8,2.82-13.78,6.74-17.73,13.19-2.86,4.68-4.71,8.75-8.87,12.58a40.8,40.8,0,0,0-8.1,9.48c-3.69,6.34-5.11,13.7-5.46,21-.53,11,1,22,2,32.91.58,6.66-.74,18.23,6.73,21.58.15.07.29-.15.13-.22Z"/><path class="cls-1" d="M216,47.9c-14.11,1.88-27.87,8.45-36.72,19.86-5.48,7.06-8.7,15.54-13.85,22.82A83.28,83.28,0,0,1,148.57,108c-13.31,10.4-29.15,17.33-45.44,21.54a178.37,178.37,0,0,1-27.56,4.52c-8.91.86-18,1.62-26.45,4.73C34.88,144,22.59,155.55,19.21,170.65c-.06.23.3.33.35.1,3.9-15.91,17.21-27.75,32.59-32.42,9.37-2.84,19.25-3.21,28.93-4.28a158,158,0,0,0,22.2-4c28.18-7.29,54.1-22.7,68.35-48.72,4.94-9,10-17.23,18.61-23.24a60.82,60.82,0,0,1,25.77-10c.13,0,.1-.23,0-.22Z"/></g></svg>
