<svg xmlns="http://www.w3.org/2000/svg" width="79.94mm" height="71.93mm" viewBox="0 0 226.61 203.91"><defs><style>.cls-1{fill:#fff;}</style></defs><title>Tegnebræt 9</title><g id="Lag_4" data-name="Lag 4"><path class="cls-1" d="M90.79,67.51c12-1.73,23.39-8.15,35.22-11.1,13.49-3.36,26-3.4,39.71-1.85,1.59.18,1.83-2.31.37-2.73-12.63-3.57-26.49-1.79-39,1.36a237.81,237.81,0,0,0-36.9,12.86c-.91.4-.19,1.58.62,1.46Z"/><path class="cls-1" d="M58.48,102.42c-2.42-6.61,1.68-15,2-21.87.2-5.22-.45-11.49-4.18-15.44a1.31,1.31,0,0,0-2.18,1.27c1.27,3.66,2.79,6.84,3.06,10.78a53.62,53.62,0,0,1-.82,11.45c-.67,4.56-2.8,10.56.28,14.6.64.84,2.33.41,1.89-.79Z"/><path class="cls-1" d="M49.35,148.53c-3.63-2.44-3.31-7.59-3.5-11.43-.21-4.29-.41-8.57-.66-12.85-.44-7.67-1.12-15.37-1.11-23,0-7,.64-14.19,3.31-20.75s8.64-10.7,11.82-17c1.65-3.26,2.58-6.7,4.92-9.61A29.64,29.64,0,0,1,73,46.78c7-3.93,15-6.37,22.84-8.05,15.89-3.41,33.35-3.28,48.94,1.62,8.2,2.58,13.83,7.35,19.27,13.78,4.25,5,8.69,10,15.29,11.73,2.73.7,3.77-3.28,1.15-4.18-7.58-2.63-11.77-9.35-17-14.94s-11.8-9-19.1-11.08c-16.56-4.74-34.73-4.65-51.44-.76-8,1.88-16.38,4.55-23.51,8.83C62.59,47.79,59,52.9,55.82,59.94S46,71.51,43,78.92c-2.75,6.8-3.57,14.22-3.64,21.5-.08,9.93,1.08,19.89,2,29.76.6,6.32-.39,17.4,6.65,20.61a1.31,1.31,0,0,0,1.33-2.26Z"/><path class="cls-1" d="M179.88,63.46c-13,.74-24.43,8-31.66,18.76-4.4,6.53-6.83,14.15-10.79,20.94a72.42,72.42,0,0,1-12.9,16.07C114,129.15,100.84,136.08,87,140.11c-14.42,4.19-30.47,2.79-44.18,9.22-12.37,5.81-22.49,18.19-23.62,32-.18,2.16,3,2.39,3.64.49,4.2-12.89,12.13-24.22,25.34-29,7.73-2.77,16.12-3,24.19-4.15a109.52,109.52,0,0,0,18.22-4.08c24.21-7.7,44.58-23.66,55.34-46.91,3.46-7.47,6.85-14.83,12.93-20.56,5.86-5.52,13.61-9.32,21.3-11.55,1.17-.34,1-2.26-.29-2.18Z"/><path class="cls-1" d="M49.14,148.75c-5.2-2.66-1.11-14.07,0-18.26a110.16,110.16,0,0,1,6.41-18.43A111.87,111.87,0,0,1,76.78,81c8.7-9.12,18.52-17.18,28.43-25a111.06,111.06,0,0,1,16.22-11c5.94-3.17,11.83-4,18.11-5.93a1.81,1.81,0,0,0-.48-3.53c-6.65-.73-14,2.67-19.81,5.71A116.36,116.36,0,0,0,102.11,52.9C89.66,62.63,77.24,72.8,67.15,85A107.34,107.34,0,0,0,46.93,123c-1.65,5.61-8.79,26.58,1.64,27.91,1.13.14,1.52-1.63.57-2.11Z"/><path class="cls-1" d="M50.57,122.4c6.46,3.78,14.6,5.79,21.8,7.72a85.66,85.66,0,0,0,21.28,3.24c12.83.12,25.61-4.12,34.61-13.5a1.66,1.66,0,0,0-2.35-2.34,47.54,47.54,0,0,1-35,12.25,90.31,90.31,0,0,1-19.43-3.39c-6.69-1.81-13.2-4.82-19.94-6.3a1.27,1.27,0,0,0-1,2.32Z"/><path class="cls-1" d="M58.41,104.08c4.75,5.24,11.66,6.07,18.42,5.74,8.89-.42,18-1.78,26.34-4.93,7.63-2.87,14.39-7.35,21.34-11.52,7.71-4.62,15-7.77,24-8.79a2,2,0,0,0,0-4c-14.41-1.51-27.22,10-39,16.4a73.08,73.08,0,0,1-25.91,7.84c-7.86,1-16.76,2-23.72-2.59-1.18-.77-2.32.91-1.45,1.87Z"/><path class="cls-1" d="M80.45,74.25c.47,4.71,9.59,5.64,13.25,6,8.44.73,16.72-1.76,24.66-4.29a174,174,0,0,1,26.79-6.68,136.59,136.59,0,0,1,15.24-1.42c4.44-.17,9.09.42,13.44-.5,1.45-.31,1.25-2.34,0-2.75-7.36-2.39-17-.85-24.61,0A138.32,138.32,0,0,0,125,69.5c-8.23,2.47-16.36,5.87-25,6.7a37.11,37.11,0,0,1-11.94-.6C85.57,75,83,73.14,80.54,74.13c-.05,0-.1.06-.09.12Z"/><path class="cls-1" d="M75.15,76.59c1.72-5.19,1.42-11.61,1.15-17a27.16,27.16,0,0,0-5.08-15c-.79-1-2.66-.51-2.25.94,1.64,5.82,4.08,10.27,4.28,16.5.15,4.82-.34,9.9,1.19,14.53a.37.37,0,0,0,.71,0Z"/><path class="cls-1" d="M93,61.68c1.6-4,1.78-9,2.37-13.27.54-3.87,1.18-7.79.38-11.65-.34-1.65-2.56-1.06-2.72.37-.47,4.2-.3,8.47-.73,12.69-.38,3.81-1.34,7.86-.88,11.65a.81.81,0,0,0,1.58.21Z"/><path class="cls-1" d="M56.68,159.11c-4.49-2.34-4.55-7.59-4.89-12l-1.11-14.31c-.57-7.27-1.31-14.56-1.19-21.86.14-7.77,1.34-15.74,5.36-22.53,1.95-3.3,4.58-5.85,7.23-8.55a28.18,28.18,0,0,0,5.48-8.5c6.86-14.71,27.11-19.27,41.7-21.56,16.09-2.53,35.36-3,50.93,2.44,7.74,2.68,13.53,7.88,19.23,13.55,4.64,4.63,9.38,9,15.86,10.72a.22.22,0,0,0,.11-.42c-8.31-2.29-13.61-8.87-19.64-14.54a42.45,42.45,0,0,0-16.1-10c-16.26-5.19-35.64-4.79-52.26-1.93-13.8,2.37-33,6.92-39.89,20.72A36.79,36.79,0,0,1,60.13,81.1a34.23,34.23,0,0,0-6.74,9c-3.14,6.19-4.17,13.22-4.36,20.09-.26,9.76,1,19.58,1.75,29.29.49,6-.77,16.61,5.77,19.88.15.07.28-.15.13-.23Z"/><path class="cls-1" d="M195.3,76.07c-13,1.9-25,8.76-32.31,19.82-4.23,6.44-6.89,13.75-11.14,20.18a74.86,74.86,0,0,1-14,15.65c-11.55,9.82-25.63,16.48-40.22,20.38s-30.94,2.58-45.09,8.35C40,165.57,30.09,176.52,27.33,189.87c0,.23.3.33.36.1a42,42,0,0,1,28.64-30.3c13.89-4.28,28.86-3.5,42.92-7.46,24.21-6.82,46.11-21.3,57.73-44.09,4-7.8,7.74-15.35,14.56-21.11a49.37,49.37,0,0,1,23.82-10.72c.14,0,.08-.24-.06-.22Z"/><path class="cls-1" d="M50.58,143.3c-5.11-2.39-5.32-7.84-5.73-12.75l-1.29-15.29c-.7-8.23-1.64-16.49-1.41-24.76S43.89,74,48.37,67.06c2.5-3.9,5.84-6.69,9.13-9.87,2.79-2.68,4.26-5.56,6-9,4.31-8.46,13-13,21.53-16.13a136,136,0,0,1,26.29-6.73c19-3,39.1-2.75,57.79,1.94a53.15,53.15,0,0,1,25.47,14.57C200,47.23,205.35,52.29,213,54.15a.22.22,0,0,0,.12-.42c-9.54-2.4-15.23-9.79-22.22-16.06-6.21-5.56-13.59-8.79-21.63-10.8-19.07-4.76-39.57-5-58.91-1.81A130.05,130.05,0,0,0,81.9,32.83C75.1,35.64,68.11,39.56,64.17,46c-2.87,4.68-4.71,8.75-8.87,12.58a40.8,40.8,0,0,0-8.1,9.48c-3.7,6.34-5.12,13.71-5.47,21-.52,11,1,22,2,32.92.59,6.66-.73,18.22,6.74,21.58.15.07.28-.16.13-.23Z"/><path class="cls-1" d="M213,53.73c-14.1,1.88-27.86,8.44-36.71,19.85-5.48,7.06-8.7,15.55-13.85,22.83a83.28,83.28,0,0,1-16.85,17.41c-13.31,10.39-29.15,17.33-45.44,21.53a177.13,177.13,0,0,1-27.57,4.53c-8.9.85-18,1.62-26.45,4.73-14.23,5.22-26.53,16.77-29.91,31.86a.19.19,0,0,0,.36.1c3.9-15.91,17.21-27.74,32.59-32.41,9.37-2.85,19.25-3.22,28.92-4.28a158.92,158.92,0,0,0,22.2-4c28.19-7.28,54.11-22.7,68.36-48.72,4.94-9,10-17.23,18.6-23.24a60.72,60.72,0,0,1,25.78-10c.12,0,.1-.24,0-.22Z"/></g></svg>
