<svg xmlns="http://www.w3.org/2000/svg" width="240.59mm" height="98.95mm" viewBox="0 0 681.99 280.5"><defs><style>.cls-1,.cls-2{fill:#fff;}.cls-1{stroke:#fff;stroke-miterlimit:10;stroke-width:0.75px;}</style></defs><title>Tegnebræt 7</title><g id="Lag_4" data-name="Lag 4"><path class="cls-1" d="M647.6,178.4q1-.66,1.59.66a.86.86,0,0,1,.07.86,1.48,1.48,0,0,1-.74.74,77.94,77.94,0,0,1-8.95,2.91q-5,1.34-10.29,2.26c-3.54.62-7,1.11-10.28,1.46s-6.3.58-9,.66a21.65,21.65,0,0,1-4.38,4.05,8.48,8.48,0,0,1-4.91,1.66q-3.59,0-5.17-2.12A7.42,7.42,0,0,1,594,187a7.18,7.18,0,0,1,.72-3.11,11.48,11.48,0,0,1,1.8-2.72,6.56,6.56,0,0,1,1.12-2.86,17.93,17.93,0,0,1,2.33-2.85,20.56,20.56,0,0,1,4.64-3,12.29,12.29,0,0,1,5.31-1.26,7.59,7.59,0,0,1,1.66.2,9.78,9.78,0,0,1,1.52.47,4.25,4.25,0,0,1,1.79,1.66c.67.92.78,2.41.34,4.44-.27,1.06-.65,2.26-1.13,3.58a16.15,16.15,0,0,1-2.06,3.85c2.48-.08,5.24-.28,8.3-.59s6.14-.78,9.29-1.4,6.25-1.35,9.35-2.19A79.37,79.37,0,0,0,647.6,178.4Zm-46.85,12.74q3.06,0,6-3.32a12.71,12.71,0,0,1-1.52-.07c-.4,0-.82-.11-1.26-.19a21,21,0,0,1-4.12-1.33,6.39,6.39,0,0,1-2.65-2.13,5.19,5.19,0,0,0-.8,2.92,4.35,4.35,0,0,0,1.06,2.86A4.11,4.11,0,0,0,600.75,191.14Zm3.59-6.1a20,20,0,0,0,4.51.39,21,21,0,0,0,4-8,4,4,0,0,0,.13-1.79,1.76,1.76,0,0,0-.79-1.39,7,7,0,0,0-5.38,0,15.56,15.56,0,0,0-5.11,2.92l-1,1a5.68,5.68,0,0,0-.73.86,10.45,10.45,0,0,1,1.85-.4,20.09,20.09,0,0,1,2.26-.13c.71,0,1.06.4,1.06,1.2s-.35,1.32-1.06,1.32a10.24,10.24,0,0,0-2.72.34,8.78,8.78,0,0,0-2.19.86A5,5,0,0,0,601,184,8.66,8.66,0,0,0,604.34,185Zm4.64.39h-.13v.14Z"/><path class="cls-2" d="M128.89,86.38c16.49-2.38,32-11.16,48.19-15.19,18.46-4.61,35.58-4.67,54.33-2.54,2.17.24,2.5-3.16.51-3.73-17.28-4.89-36.24-2.46-53.38,1.85A326.1,326.1,0,0,0,128,84.37c-1.24.55-.26,2.17.85,2Z"/><path class="cls-2" d="M84.69,134.13c-3.32-9,2.29-20.47,2.66-29.92.27-7.14-.62-15.71-5.71-21.12-1.19-1.27-3.59,0-3,1.74,1.74,5,3.81,9.36,4.18,14.75.36,5.22-.36,10.51-1.11,15.66-.92,6.24-3.84,14.44.38,20,.87,1.15,3.19.56,2.59-1.09Z"/><path class="cls-2" d="M72.19,197.22c-5-3.34-4.53-10.38-4.79-15.64-.29-5.86-.56-11.72-.9-17.58C65.89,153.51,65,143,65,132.47c0-9.61.87-19.42,4.52-28.4,3.73-9.16,11.83-14.63,16.18-23.21,2.26-4.47,3.53-9.16,6.73-13.15A40.62,40.62,0,0,1,104.5,58c9.59-5.38,20.54-8.72,31.24-11,21.75-4.67,45.64-4.49,67,2.22,11.22,3.53,18.91,10.06,26.36,18.86,5.81,6.87,11.89,13.72,20.92,16,3.74,1,5.16-4.48,1.58-5.72C241.19,74.79,235.46,65.6,228.26,58s-16.14-12.3-26.13-15.16c-22.66-6.49-47.52-6.36-70.38-1-11,2.56-22.41,6.21-32.17,12.07C90.31,59.39,85.41,66.38,81,76S67.59,91.85,63.49,102c-3.76,9.31-4.89,19.46-5,29.42C58.4,145,60,158.61,61.28,172.12c.82,8.64-.55,23.8,9.1,28.19a1.79,1.79,0,0,0,1.81-3.09Z"/><path class="cls-2" d="M250.78,80.82c-17.72,1-33.41,11-43.31,25.67-6,8.94-9.34,19.37-14.77,28.65a99.06,99.06,0,0,1-17.64,22c-14.4,13.57-32.41,23.05-51.34,28.56C104,191.44,82,189.52,63.28,198.33,46.35,206.27,32.5,223.21,31,242.12c-.25,3,4.13,3.28,5,.68,5.76-17.63,16.6-33.14,34.67-39.61,10.59-3.8,22.06-4.16,33.1-5.68a149,149,0,0,0,24.93-5.58c33.13-10.54,61-32.38,75.72-64.19,4.73-10.21,9.37-20.29,17.7-28.13,8-7.54,18.62-12.75,29.14-15.79,1.6-.47,1.36-3.1-.41-3Z"/><path class="cls-2" d="M71.9,197.52c-7.11-3.64-1.51-19.24-.05-25a151.76,151.76,0,0,1,8.76-25.22,153.63,153.63,0,0,1,29.11-42.55c11.91-12.48,25.34-23.5,38.9-34.15a153.45,153.45,0,0,1,22.2-15c8.12-4.33,16.18-5.51,24.77-8.11,2.8-.84,2-4.53-.65-4.83-9.11-1-19.23,3.65-27.11,7.82-8.38,4.42-16,10.09-23.45,15.91-17,13.32-34,27.22-47.83,44a146.75,146.75,0,0,0-27.66,51.88c-2.27,7.68-12,36.38,2.23,38.19,1.55.2,2.09-2.22.78-2.89Z"/><path class="cls-2" d="M73.86,161.47c8.84,5.18,20,7.92,29.82,10.56a116.87,116.87,0,0,0,29.12,4.44c17.56.16,35-5.63,47.35-18.47,2-2.12-1-5.16-3.21-3.21-13.42,12.11-29.87,17.61-47.88,16.77a124.4,124.4,0,0,1-26.59-4.64c-9.15-2.48-18.06-6.59-27.28-8.62a1.74,1.74,0,0,0-1.33,3.17Z"/><path class="cls-2" d="M84.59,136.41c6.5,7.17,16,8.3,25.2,7.86,12.16-.59,24.62-2.45,36.05-6.75,10.43-3.93,19.68-10.07,29.19-15.77,10.55-6.32,20.58-10.63,32.87-12a2.76,2.76,0,0,0,0-5.51c-19.72-2.06-37.24,13.69-53.42,22.44-11,6-23,9.17-35.45,10.73-10.75,1.36-22.94,2.71-32.46-3.54-1.61-1-3.18,1.24-2,2.56Z"/><path class="cls-2" d="M114.74,95.59c.64,6.44,13.13,7.72,18.14,8.15,11.54,1,22.87-2.41,33.74-5.88,12-3.84,24.12-7.24,36.65-9.14a189,189,0,0,1,20.85-2c6.07-.22,12.43.59,18.38-.68,2-.42,1.72-3.2,0-3.76-10.05-3.27-23.31-1.16-33.66,0a190.49,190.49,0,0,0-33.18,6.75c-11.27,3.38-22.38,8-34.19,9.17a50.6,50.6,0,0,1-16.33-.82c-3.38-.79-6.94-3.36-10.28-2a.19.19,0,0,0-.12.16Z"/><path class="cls-2" d="M107.5,98.8c2.35-7.1,1.93-15.89,1.57-23.28-.35-7.12-2.57-14.78-6.95-20.47-1.09-1.41-3.64-.7-3.08,1.29,2.25,8,5.58,14,5.85,22.57.2,6.6-.47,13.55,1.63,19.89a.51.51,0,0,0,1,0Z"/><path class="cls-2" d="M131.94,78.39c2.2-5.5,2.43-12.3,3.25-18.16.74-5.29,1.6-10.65.52-15.93-.46-2.26-3.51-1.46-3.73.5-.64,5.74-.41,11.59-1,17.37-.52,5.2-1.84,10.74-1.2,15.93a1.1,1.1,0,0,0,2.15.29Z"/><path class="cls-2" d="M82.22,211.7c-6.14-3.2-6.23-10.39-6.69-16.44q-.77-9.8-1.52-19.59c-.77-9.94-1.8-19.92-1.62-29.9.19-10.64,1.83-21.54,7.33-30.83,2.66-4.51,6.26-8,9.89-11.7,3.46-3.53,5.41-7.15,7.5-11.63,9.38-20.12,37.1-26.36,57.06-29.5,22-3.45,48.37-4,69.67,3.34,10.59,3.67,18.52,10.78,26.32,18.54,6.34,6.33,12.83,12.29,21.69,14.66a.3.3,0,0,0,.16-.57c-11.37-3.14-18.63-12.13-26.88-19.9-6.37-6-13.64-10.94-22-13.61-22.24-7.1-48.75-6.55-71.5-2.64C132.73,65.18,106.38,71.41,97,90.28,94.19,96,91.53,100.42,86.94,105a46.81,46.81,0,0,0-9.23,12.28c-4.28,8.47-5.7,18.09-5.95,27.49-.36,13.35,1.31,26.79,2.39,40.07C74.82,193,73.1,207.54,82,212c.2.1.38-.2.18-.31Z"/><path class="cls-2" d="M271.89,98.09c-17.73,2.6-34.24,12-44.21,27.11-5.79,8.81-9.43,18.82-15.24,27.62a102.88,102.88,0,0,1-19.19,21.41c-15.81,13.43-35.07,22.55-55,27.88s-42.33,3.52-61.69,11.43c-17.14,7-30.7,22-34.47,40.24-.06.32.42.46.49.14,4.56-19.78,19.88-35.5,39.2-41.45,19-5.85,39.48-4.79,58.71-10.2,33.13-9.34,63.1-29.15,79-60.33,5.44-10.67,10.6-21,19.92-28.89A67.67,67.67,0,0,1,272,98.38c.2,0,.11-.32-.08-.29Z"/><path class="cls-2" d="M73.88,190.07c-7-3.27-7.28-10.73-7.85-17.44q-.87-10.47-1.76-20.93c-1-11.25-2.25-22.56-1.93-33.87.32-11.14,2.38-22.57,8.5-32.08,3.43-5.33,8-9.15,12.51-13.49,3.81-3.68,5.82-7.62,8.21-12.3,5.9-11.57,17.75-17.72,29.46-22.07a188.24,188.24,0,0,1,36-9.21c26-4.13,53.5-3.75,79.07,2.66,13.93,3.5,24.71,9.92,34.86,19.94,7.42,7.34,14.72,14.27,25.14,16.81a.29.29,0,0,0,.15-.57c-13-3.29-20.83-13.4-30.4-22-8.49-7.61-18.6-12-29.59-14.78-26.1-6.52-54.15-6.86-80.6-2.47a177.51,177.51,0,0,0-38.89,10.62c-9.31,3.85-18.87,9.21-24.27,18-3.91,6.4-6.44,12-12.13,17.2-4.28,3.94-8.14,7.93-11.08,13-5.06,8.68-7,18.75-7.48,28.68-.72,15,1.39,30.13,2.71,45,.8,9.12-1,24.94,9.21,29.53.21.09.4-.21.19-.31Z"/><path class="cls-2" d="M296.13,67.51C276.83,70.09,258,79.07,245.9,94.68c-7.49,9.66-11.9,21.27-19,31.23a113.92,113.92,0,0,1-23,23.82C185.69,164,164,173.44,141.73,179.19a243,243,0,0,1-37.72,6.2c-12.19,1.16-24.61,2.21-36.19,6.47-19.48,7.14-36.3,22.94-40.93,43.6a.25.25,0,0,0,.49.13c5.33-21.76,23.54-38,44.59-44.35,12.82-3.89,26.34-4.4,39.58-5.85a215.8,215.8,0,0,0,30.37-5.49c38.57-10,74-31.05,93.53-66.66,6.76-12.34,13.73-23.57,25.46-31.79a83.09,83.09,0,0,1,35.26-13.64c.17,0,.13-.32,0-.3Z"/><path class="cls-1" d="M315,179a1.09,1.09,0,0,1,.92-.3,1.29,1.29,0,0,1,.79.3,1.17,1.17,0,0,1,0,1.71,25.23,25.23,0,0,1-6.65,4.52,57.76,57.76,0,0,1-8.43,3.18q-4.57,1.34-9.53,2.26c-3.3.61-6.61,1.2-9.95,1.77q-6.1,1-12,2.13a39.35,39.35,0,0,0-9.84,3.12c-2.27,4.4-4.11,8.35-5.49,11.85l.73,3,.25.86c.48,1.62.89,3.19,1.22,4.7a19.87,19.87,0,0,1,.49,4.09,7.07,7.07,0,0,1-.86,3.79,4.32,4.32,0,0,1-3.3,1.83.53.53,0,0,0-.24.06.86.86,0,0,1-.37.06,3.34,3.34,0,0,1-1.89-.61,4.15,4.15,0,0,1-1.41-1.59,4.38,4.38,0,0,1-.36-1.28,11,11,0,0,1-.12-1.65,23.17,23.17,0,0,1,1-6,67,67,0,0,1,2.57-7.46c-.65-2.68-1.62-5.17-1.13-7,.81-2.77,3.81-4.8,7.23-6.59l3.06-5.87q2.81-4.87,6.35-10.68t7.51-11.42q4-5.62,8.06-10.63a77.64,77.64,0,0,1,7.88-8.43q7-6.23,11.73-6.23a6.21,6.21,0,0,1,3.17.86h-.12a3,3,0,0,1,1.22,1.1A3.64,3.64,0,0,1,308,147a12.49,12.49,0,0,1-2.08,5,53.6,53.6,0,0,1-4.7,6.17,72,72,0,0,1-6.66,6.65q-3.78,3.36-7.94,6.41a87.18,87.18,0,0,1-8.42,5.5,48.7,48.7,0,0,1-8.19,3.79c-1.46,2.36-2.85,4.68-4.15,7s-2.52,4.6-3.66,7a59.14,59.14,0,0,1,9.1-2.44c3.37-.65,6.94-1.3,10.68-2q4.89-.72,9.71-1.58c3.22-.57,6.27-1.27,9.16-2.08a48.29,48.29,0,0,0,8-3A22.54,22.54,0,0,0,315,179Zm-60.33,45.68c.65-1,.79-2.46.42-4.46s-.83-4-1.4-6.16l-.25-.74v-.12a40.26,40.26,0,0,0-2.07,7.27,8.56,8.56,0,0,0,.12,4.46v-.12a2.66,2.66,0,0,0,.55.6,1.3,1.3,0,0,0,1,.13,2.87,2.87,0,0,0,1.71-.86Zm-.37-18.44v-1.47l-.49,1.35Zm0-1.47,2.08-4.64a8.6,8.6,0,0,0-1.23,1.53,12.86,12.86,0,0,0-.85,1.65Zm38.72-54.23A80.05,80.05,0,0,0,282.62,162q-5.33,7-10.69,15.27a70.81,70.81,0,0,0,11.66-6.72,92,92,0,0,0,10.69-8.67,78.4,78.4,0,0,0,7.94-8.61c2.11-2.73,3.25-4.9,3.42-6.53,0-.65-.12-1.06-.37-1.22a6.15,6.15,0,0,0-1.1-.43,3.38,3.38,0,0,0-1-.19,9.46,9.46,0,0,0-5.14,1.78A42.67,42.67,0,0,0,293.06,150.52Z"/><path class="cls-1" d="M370.49,179a1.09,1.09,0,0,1,.92-.3,1.29,1.29,0,0,1,.79.3,1.17,1.17,0,0,1,0,1.71,25.23,25.23,0,0,1-6.65,4.52,57.76,57.76,0,0,1-8.43,3.18q-4.58,1.34-9.53,2.26c-3.3.61-6.61,1.2-9.95,1.77q-6.11,1-12,2.13a39.35,39.35,0,0,0-9.84,3.12c-2.27,4.4-4.11,8.35-5.49,11.85l.73,3,.24.86c.49,1.62.9,3.19,1.23,4.7a19.87,19.87,0,0,1,.49,4.09,7.07,7.07,0,0,1-.86,3.79,4.32,4.32,0,0,1-3.3,1.83.53.53,0,0,0-.24.06.86.86,0,0,1-.37.06,3.34,3.34,0,0,1-1.89-.61,4.15,4.15,0,0,1-1.41-1.59,4.38,4.38,0,0,1-.36-1.28,11,11,0,0,1-.13-1.65,23.24,23.24,0,0,1,1-6,69.15,69.15,0,0,1,2.57-7.46c-.65-2.68-1.48-5.17-1-7,.82-2.77,3.69-4.8,7.11-6.59l3.05-5.87q2.81-4.87,6.35-10.68T331,167.87q4-5.62,8.06-10.63a77.64,77.64,0,0,1,7.88-8.43q7-6.23,11.73-6.23a6.19,6.19,0,0,1,3.17.86h-.12a3,3,0,0,1,1.22,1.1,3.64,3.64,0,0,1,.49,2.44,12.49,12.49,0,0,1-2.08,5,53.6,53.6,0,0,1-4.7,6.17,72,72,0,0,1-6.66,6.65q-3.78,3.36-7.94,6.41a86,86,0,0,1-8.42,5.5,48.34,48.34,0,0,1-8.19,3.79q-2.19,3.54-4.15,7t-3.66,7a59.14,59.14,0,0,1,9.1-2.44c3.37-.65,6.94-1.3,10.68-2q4.89-.72,9.71-1.58c3.22-.57,6.27-1.27,9.16-2.08a48.29,48.29,0,0,0,8-3A22.54,22.54,0,0,0,370.49,179Zm-60.33,45.68c.65-1,.79-2.46.42-4.46s-.83-4-1.4-6.16l-.25-.74v-.12a40.26,40.26,0,0,0-2.07,7.27,8.56,8.56,0,0,0,.12,4.46v-.12a2.91,2.91,0,0,0,.55.6,1.31,1.31,0,0,0,1,.13,2.87,2.87,0,0,0,1.71-.86Zm-.37-18.44v-1.47l-.49,1.35Zm0-1.47,2.08-4.64a8.11,8.11,0,0,0-1.22,1.53,11.76,11.76,0,0,0-.86,1.65Zm38.72-54.23A80.05,80.05,0,0,0,338.07,162q-5.32,7-10.69,15.27A70.81,70.81,0,0,0,339,170.55a92,92,0,0,0,10.69-8.67,78.4,78.4,0,0,0,7.94-8.61c2.12-2.73,3.25-4.9,3.42-6.53,0-.65-.12-1.06-.37-1.22a6.15,6.15,0,0,0-1.1-.43,3.32,3.32,0,0,0-1-.19,9.4,9.4,0,0,0-5.13,1.78A42,42,0,0,0,348.51,150.52Z"/><path class="cls-1" d="M491.41,179.1a1.23,1.23,0,0,1-.49,1.59q-1.1.62-4.46,2.44t-7.63,3.79q-4.27,2-8.67,3.48a23.68,23.68,0,0,1-7.57,1.53,5.71,5.71,0,0,1-2.57-.49,2.59,2.59,0,0,1-1.89-2.26c-.12-1.1,1.08-3.41,1.24-4.38a9.47,9.47,0,0,0,.13-1.53,1.56,1.56,0,0,0-.25-1l-.12-.24v.12a8.71,8.71,0,0,0-3.3.85,37.32,37.32,0,0,0-3.91,2c-1.3.78-3.73,2.86-4.91,3.71s-2.09,1.53-2.74,2a1.27,1.27,0,0,1-2-1.35c.49-1.05,1-2.26,1.47-3.6s.93-2.64,1.34-3.91a23.12,23.12,0,0,0,.86-3.48,8.3,8.3,0,0,0,.12-2.32,7.19,7.19,0,0,0-3.54,1.41,35,35,0,0,0-4.65,3.6c-1.63,1.46-3.23,3-4.82,4.7s-3,3.24-4.21,4.7a1.12,1.12,0,0,1-1.59.13c-.49-.17-.65-.53-.49-1.1a1,1,0,0,1,.12-.37c.08-.16.2-.45.37-.86q.61-1.71,1.89-4.51a37.7,37.7,0,0,1,2.63-4.89l-.12.12c.48-.65,1-.73,1.58-.24s.74.73.74,1a16.35,16.35,0,0,0-1.29,2c-.36.69-.71,1.36-1,2a47.68,47.68,0,0,1,3.6-3.73,37.68,37.68,0,0,1,4.09-3.36,24,24,0,0,1,4-2.32,5.9,5.9,0,0,1,3.36-.61,2.08,2.08,0,0,1,1.46,1.22,5,5,0,0,1,.31,2.2,19.55,19.55,0,0,1-.37,2.93,28.68,28.68,0,0,1-.85,3.3c-.37,1.14-.72,2.2-1,3.17.81-.56,2.91-2.44,3.93-3.1a34.58,34.58,0,0,1,3.12-1.77,29,29,0,0,1,3.05-1.34,7.91,7.91,0,0,1,2.81-.55,2.6,2.6,0,0,1,1.83.85,2.51,2.51,0,0,1,.67,1.71,11.79,11.79,0,0,1-.06,2.08v.37c-.16,1.87-1.18,4.24-.69,4.56q2,.62,5.86-.42a62.63,62.63,0,0,0,8.24-2.87q4.33-1.84,8.43-4t6.41-3.48l-.12.12q.85-.74,1.59.24Z"/><path class="cls-1" d="M590.83,159.68a1.09,1.09,0,0,1,.86,1.47,1.53,1.53,0,0,1-.49.67.88.88,0,0,1-.86.18q-.12,0-2.13-.36c-1.35-.25-3.1-.51-5.26-.8s-4.62-.54-7.39-.79-5.61-.37-8.54-.37H565.3a13.34,13.34,0,0,0-1.83.13q-2.19,3.66-4.52,7.75t-4.09,8.12a51.63,51.63,0,0,0-2.69,7.58,13.55,13.55,0,0,0-.42,6,4.36,4.36,0,0,0,2.44,3.67,6.6,6.6,0,0,0,4,1.1,15.81,15.81,0,0,0,5.5-1.1,40.17,40.17,0,0,0,5.8-2.75,56,56,0,0,0,5.5-3.61c1.75-1.3,3.29-2.52,4.64-3.66s2.42-2.08,3.23-2.81a6.91,6.91,0,0,0,1.23-1.22,3.32,3.32,0,0,1,1-.31.8.8,0,0,1,.8.31,1.06,1.06,0,0,1,0,1.59c-.25.16-1.29,1.08-3.12,2.75a74.35,74.35,0,0,1-6.84,5.43,64.39,64.39,0,0,1-8.85,5.31,20.27,20.27,0,0,1-9,2.39,9.84,9.84,0,0,1-5.38-1.47,7.08,7.08,0,0,1-3.41-5.25,18,18,0,0,1,.48-6.41,54.33,54.33,0,0,1,2.45-7.58,74.74,74.74,0,0,1,3.78-8q2.21-4,4.52-7.69a44.87,44.87,0,0,0-10.69,2,15.81,15.81,0,0,0-7.75,4.83,1.2,1.2,0,0,1-.86.36,1,1,0,0,1-.61-.12,1.33,1.33,0,0,1-.24-1.83,17.94,17.94,0,0,1,9.1-5.68,50.7,50.7,0,0,1,12.64-2c1.22-1.78,2.42-3.54,3.6-5.25s2.28-3.27,3.3-4.7,1.87-2.6,2.57-3.54a19.2,19.2,0,0,1,1.28-1.65,1.52,1.52,0,0,1,.73-.37,1,1,0,0,1,.85.13c.49.65.57,1.18.25,1.58q-.12.13-2.93,3.91c-1.88,2.53-4.15,5.79-6.84,9.77a86,86,0,0,1,9.28.25c3,.24,5.7.51,8.06.79s4.32.57,5.86.86S590.59,159.68,590.83,159.68Z"/><path class="cls-1" d="M259.84,179a1,1,0,0,1,.85-.3,1.23,1.23,0,0,1,.73.3,1.34,1.34,0,0,1,0,1.71,24.11,24.11,0,0,1-4.82,3.42,45.24,45.24,0,0,1-13.07,4.7,35,35,0,0,1-6.66.68,15,15,0,0,1-7.2-1.47,5.12,5.12,0,0,1-2.32-2.44,7.85,7.85,0,0,1-.61-3.06,9.77,9.77,0,0,1,.18-1.89q.18-.91.3-1.65l-.85.73-.73.74c-1,.89-2,1.83-3.18,2.81a35.68,35.68,0,0,1-3.36,2.56,18.32,18.32,0,0,1-3.3,1.77,6.54,6.54,0,0,1-3.3.48,4.4,4.4,0,0,1-2.1-1.33,3.43,3.43,0,0,1-.56-2.46,12,12,0,0,1,1.79-3.56,17.77,17.77,0,0,1,2.71-2.79,12.48,12.48,0,0,1,3.31-2.05,8.34,8.34,0,0,1,3.51-.72c.24.08.34.28.5.57a1.07,1.07,0,0,1,.24.79,1.1,1.1,0,0,1-.44.66,1.76,1.76,0,0,1-.9.32,6,6,0,0,0-2.49.76,16.4,16.4,0,0,0-2.71,2.1,6.22,6.22,0,0,0-2.94,4.5c-.08.24.28.68.69.92a5.75,5.75,0,0,0,2.57-.57,21.36,21.36,0,0,0,2.87-1.83c1-.73,2-1.51,2.93-2.32s1.84-1.59,2.57-2.32a40.4,40.4,0,0,1,3.36-2.81,3.25,3.25,0,0,1,1.77-.73c.57,0,.89.2,1,.61l-.13-.13a2,2,0,0,1,.25.92,2.77,2.77,0,0,1-.25,1c-.24.81-.47,1.65-.67,2.5a10.54,10.54,0,0,0-.3,2.38,4,4,0,0,0,1.58,3.55,8.25,8.25,0,0,0,2.75.85,24.14,24.14,0,0,0,3.48.25,33,33,0,0,0,6-.62,40.88,40.88,0,0,0,6.41-1.71,44.38,44.38,0,0,0,5.92-2.56A19,19,0,0,0,259.84,179Z"/><path class="cls-2" d="M217.61,176.24c-.48.2-1,.41-1.1,1a.58.58,0,0,0,.54.72,2.14,2.14,0,0,0,1.24-.54.67.67,0,0,0-.68-1.16Z"/><path class="cls-2" d="M219.67,175.71c-.42-1.12-1.76-.53-2.48-.09A.78.78,0,0,0,218,177c.41-.23,2-.44,1.7-1.25Z"/><path class="cls-2" d="M219.29,174.84a6.06,6.06,0,0,0-2.57,1c-.84.62,0,2,.83,1.42a12.87,12.87,0,0,1,2.12-1c.65-.32.37-1.51-.38-1.41Z"/><path class="cls-2" d="M215,178.64a5.14,5.14,0,0,1,3-2c.93-.15,1.91,0,2.66-.61a.59.59,0,0,0,0-.83c-1-.82-2.64-.27-3.74.12a6.28,6.28,0,0,0-3.06,2.38c-.42.7.62,1.56,1.16.9Z"/><path class="cls-2" d="M221.92,176.9a1.31,1.31,0,0,0-.5-2.25,5.18,5.18,0,0,0-3.7.59c-.5.24-1,.57-1,1.19a.81.81,0,0,0,.75.79c.58.08,1.21-.4,1.76-.56a6.4,6.4,0,0,1,1-.19,5.14,5.14,0,0,1,.55-.06c.34.07.34-.07,0-.41-.49.75.56,1.41,1.17.9Z"/><path class="cls-2" d="M214.72,180.44h0c-.06,0-.12,0-.09.08l0,0c.05.1.18,0,.09-.09Z"/><path class="cls-2" d="M214.14,179.22v-.07a.2.2,0,0,0-.09-.17l-.12-.09c-.2-.15-.4.19-.2.33l.13.09a.18.18,0,0,0,.23,0s0,0,0-.06Z"/><path class="cls-2" d="M213.77,179.33a9.25,9.25,0,0,0,2.37-1.48.82.82,0,0,0-.78-1.36,4,4,0,0,0-2.41,2,.67.67,0,0,0,.82.82Z"/><path class="cls-2" d="M215,178.69a13.08,13.08,0,0,0,1.19-1.06c.64-.52-.21-1.63-.89-1.15s-1.2,1-1.14,1.74a.56.56,0,0,0,.84.47Z"/><path class="cls-2" d="M214.72,178.47a2.43,2.43,0,0,0,.82-.52c.72-.6-.3-1.6-1-1a1.43,1.43,0,0,0-.26.23l1.13.87,0-.06-1-1-.13.16c-.54.69.36,1.68,1,1l.27-.29c.64-.68-.31-1.58-1-1l-.25.2.86,1.12a3,3,0,0,1,.66-.56l-.73-1.25a6.31,6.31,0,0,0-1.93,1.78.79.79,0,0,0,0,.8l.05.09a.59.59,0,0,0,.53.3c.52,0,.68-.27,1-.66a5.31,5.31,0,0,1,1.11-1.06c.75-.52.06-1.75-.73-1.25a4.8,4.8,0,0,0-.94.8c-.49.57.18,1.65.87,1.13l.54-.43-1-1-.27.3,1,1,.12-.16c.55-.7-.35-1.68-1-1a2.3,2.3,0,0,0-.28.34c-.47.67.56,1.42,1.12.86l.12-.11-1-1a1.54,1.54,0,0,0-.33.91.51.51,0,0,0,.64.49Z"/><path class="cls-2" d="M216.68,178.1c1.23-.91,1.86-2.24,3.6-2.14a.73.73,0,0,0,.36-1.35c-1.17-.59-2.64,0-3.76.51a8.06,8.06,0,0,0-3.37,2.83c-.5.76.64,1.63,1.26,1a10.54,10.54,0,0,1,2.32-2c.74-.44,2.09-1.29,3-1l.2-1.42a4.44,4.44,0,0,0-4.23,2.73.59.59,0,0,0,.09.68l.14.13a.33.33,0,0,0,.4,0Z"/><path class="cls-2" d="M219.92,175.83l.13,0a.66.66,0,0,0,.63-1.1l-.09-.09-.14,1.12.07,0-.56.07.08,0,.2-1.45h-.37l.2,1.51a.66.66,0,0,1,.43.12c.73.41,1.6-.6.92-1.19l-.12-.11-.16,1.23-.29.08c.85.08.93-1,.39-1.45a2.23,2.23,0,0,0-2.45.06.82.82,0,0,0,.63,1.49,2,2,0,0,1,1.22-.12l.6-1.43-.05,0a.83.83,0,0,0-.95.12l-.05,0a.79.79,0,0,0,.16,1.23l.15.07.58-1.39a6,6,0,0,0-1.21-.24c-1-.07-1,1.66,0,1.54l.57-.08c.81-.13.63-1.56-.2-1.45a.87.87,0,0,0-.65.28.72.72,0,0,0,.5,1.21h.13l-.57-1-.06.12a.56.56,0,0,0,.33.81Z"/><path class="cls-2" d="M221.36,175.6a.08.08,0,0,0,0-.16.08.08,0,1,0,0,.16Z"/><path class="cls-2" d="M221.64,174.86c-1-1-2.79-.71-3.88,0-.86.57-.06,2,.82,1.4s1.62-.25,2.55-.18a.73.73,0,0,0,.51-1.23Z"/><path class="cls-2" d="M221.44,175.23v0l-.4.7c.2-.08.39-.2.42-.43l-.57.44H221c.6.05.77-.82.3-1.1l-.07,0-.3,1.1H221a.6.6,0,0,0,.55-.41l0-.05-.95.39,0,0,.33-1.21h0l.64.65v0l-1.26.17a.74.74,0,0,0,.52.52.68.68,0,0,0,.83-.84l0-.1-1.06.82a2,2,0,0,0,.41.15.67.67,0,0,0,.83-.63v-.11a.7.7,0,0,0-.36-.62l-.11-.06c-.95-.48-1.58,1-.57,1.34h.05l.79-1a1.06,1.06,0,0,0-.17-.2c-.71-.76-1.8.62-.87,1.14l.09.05.68-1.17,0,0a.66.66,0,0,0-.68,0,.76.76,0,0,0-.33.42.67.67,0,0,0,.45.8h0c.68.22,1.18-.88.5-1.18l-.06,0c-1.1-.49-1.32,1.39-.15,1.18h0l.14-1-.08,0a.59.59,0,1,0-.46,1.08l.08,0,.31-1.13-.07,0c-.93-.29-1,1.42,0,1.15h0l.24-.9,0,0a.57.57,0,0,0-1,.32.57.57,0,0,0,.85.57l0,0a.52.52,0,0,0,.24-.58Z"/><path class="cls-2" d="M220.46,175.59l0,0c.56.43,1.09-.45.71-.92l-.05-.06-.59,1,.07,0,.33-1.21h0a.63.63,0,1,0,.38.93h0a.63.63,0,0,0-.54-.94h-.07a.61.61,0,0,0-.16,1.19l.07,0-.26-1,0,0c-.31.25-.13.68.11.87Z"/><path class="cls-2" d="M212.18,181.23c1.14-.83,1.9-2.15,2.94-3.12a8,8,0,0,1,4.54-2.31.68.68,0,0,0,0-1.3c-1.82-.25-3.27.67-4.65,1.78s-3.09,2.63-3.67,4.31a.57.57,0,0,0,.84.64Z"/><path class="cls-2" d="M217.69,176.33a4,4,0,0,0,1.48-.56.75.75,0,0,0-.57-1.36l-.51.17.58,1.36c.75-.35,1.38.07,2.12.08a.79.79,0,0,0,.75-1c-.45-1.32-2.68-.84-3.62-.39-.77.36-.23,1.64.57,1.37l.5-.17-.57-1.36a3.64,3.64,0,0,0-1.15.83c-.28.34-.14,1.08.42,1Z"/><path class="cls-2" d="M217.71,175.4a.12.12,0,0,0,0-.23.12.12,0,0,0,0,.23Z"/><path class="cls-2" d="M215.93,180.43c1.36-.77,2.83-1.1,4.25-1.74.95-.43,2.4-1,2.5-2.21.32-3.61-4.24-2.43-6-1.2-1.05.74-.07,2.47,1,1.74.6-.4,1.78-1.11,2.57-.91s-.61.88-1,1.06c-1.42.68-3.07,1-4.23,2.14a.72.72,0,0,0,.87,1.12Z"/><path class="cls-2" d="M210.1,185.86c-1.12,1.2-.08,2.68,1.3,2.95a4.57,4.57,0,0,0,4.15-1.31,1,1,0,0,0-.58-1.42c-.95-.21-1.68.32-2.58.51a1.54,1.54,0,0,1-1-.05c.14.07.17.22.08-.09a1.48,1.48,0,0,0-.4-.59.72.72,0,0,0-1,0Z"/><path class="cls-2" d="M212.67,180.53h0a.63.63,0,1,0-.17-1.25c-1.11.2-1.92,1.45-2.46,2.36s-.94,2.63,0,3.39a.78.78,0,0,0,1,0,1.29,1.29,0,0,0,.51-1,3.37,3.37,0,0,1,.31-1.6,9.83,9.83,0,0,0,1.37-2.33l-.79.44a.4.4,0,0,0,.15,0Z"/><path class="cls-2" d="M210.6,185.37a.85.85,0,0,0,0-1.69.85.85,0,0,0,0,1.69Z"/><path class="cls-2" d="M210.6,185a.58.58,0,0,0,0-1.16.58.58,0,0,0,0,1.16Z"/><path class="cls-2" d="M216.85,175.28c-3.64.89-7.08,5.36-7.25,9,0,1.1,1.65,1.09,1.7,0,.13-2.9,3.13-6.69,6-7.39,1.06-.26.61-1.9-.46-1.64Z"/><path class="cls-2" d="M219.07,174.28c-3.28.53-6.82,3.44-8.56,6.23-1.36,2.17-2.29,5.9.37,7.46a1,1,0,0,0,1.16-1.5c-2.18-2.21.5-5.65,2.16-7.22a27.81,27.81,0,0,1,5.47-3.57.77.77,0,0,0-.6-1.4Z"/><path class="cls-2" d="M211.1,181.52c-1.74.49-2.13,3.58-1.62,5a1,1,0,0,0,.93.7c1.17,0,.85-1.21.85-2,0-1.1,1-2.27.58-3.34a.6.6,0,0,0-.74-.42Z"/><path class="cls-2" d="M210.2,182.9c-1.74.42-1.22,4.8.63,4.19,1-.35.36-1.5.33-2.23s.16-2.23-1-2Z"/><path class="cls-2" d="M209.78,183.05c-1.67,1.54-.53,5.53,1.75,5.85,1,.14,1.89-1.29.77-1.81a1.87,1.87,0,0,1-1.27-1.5c-.15-.75-.05-1.53-.24-2.27a.61.61,0,0,0-1-.27Z"/><path class="cls-2" d="M211.17,181.4a3.44,3.44,0,0,0-1,.81,2.61,2.61,0,0,0-.4,1.52.79.79,0,0,0,1.57,0,4.86,4.86,0,0,1,.2-1,4.79,4.79,0,0,1,.17-.75c.13-.31-.18-.79-.53-.53Z"/><path class="cls-2" d="M210.92,181.48c-1.83,0-2.56,3.74-1.29,4.74a.83.83,0,0,0,1.37-.36,15.49,15.49,0,0,0,0-2.16,5.69,5.69,0,0,0,.32-1.89.44.44,0,0,0-.43-.33Z"/><path class="cls-2" d="M211.54,180a4.44,4.44,0,0,0-2.25,3.94,1,1,0,0,0,1.9,0c.05-1.23,1.06-2.06,1.25-3.25a.62.62,0,0,0-.9-.69Z"/><path class="cls-2" d="M216.36,178.72l0,.07c0,.31.41.45.48.14l0-.07a.25.25,0,0,0-.42-.24l-.11.08s0,0,0,0Z"/><path class="cls-2" d="M216.79,179.39a.18.18,0,0,0,0-.35.18.18,0,0,0,0,.35Z"/><path class="cls-2" d="M218,178c-2.79-.2-8.74,5.05-5.77,7.84,1.47,1.38,3.88-.06,5.34-.78,2.48-1.23,5.34-2.55,7.34-4.48a1,1,0,0,0-1.23-1.6c-2.76,1.5-5.35,3.36-8.24,4.61-.81.35-1.72,1-1.44-.35.16-.81,1.48-1.83,2-2.25,1-.71,1.87-1.09,2.45-2.13A.58.58,0,0,0,218,178Z"/><path class="cls-2" d="M220.51,182.84c1.54-.33,3.08-1.48,4.46-2.21,1.19-.62.15-2.28-1-1.76-1.5.67-3.32,1.5-4.29,2.87-.4.58.26,1.23.85,1.1Z"/><path class="cls-2" d="M221.79,181.83a12.32,12.32,0,0,0,4.13-2.46c.86-.72-.24-2-1.16-1.51a12.92,12.92,0,0,0-3.69,2.73.75.75,0,0,0,.72,1.24Z"/><path class="cls-2" d="M223.22,180.38a5.73,5.73,0,0,0,2.87-1.32.93.93,0,0,0-.94-1.61,5,5,0,0,0-2.47,2,.64.64,0,0,0,.54.94Z"/><path class="cls-2" d="M210.36,186.81c-1.05,1.64,1.34,2.56,2.62,2.38a9.79,9.79,0,0,0,5.35-2.93c.76-.84-.25-2.39-1.28-1.66-1.22.87-4.21,3.56-5.69,2.08a.63.63,0,0,0-1,.13Z"/><path class="cls-2" d="M214.12,188a3.06,3.06,0,0,0,2.78-.31,4.92,4.92,0,0,0,2.5-2.23c.22-.53-.41-1-.9-.89-.87.24-1.47,1-2.2,1.54s-1.48.66-2.18,1.09a.47.47,0,0,0,0,.8Z"/><path class="cls-2" d="M218.06,178.14l-.06.12s0,0,0,0l.06-.11s0,0,0,0Z"/><path class="cls-2" d="M217.51,178a1.34,1.34,0,0,0-.4.23.66.66,0,0,0,.67,1.13h.11l-.68-1.16a2.25,2.25,0,0,0-.41.46c-.49.62.42,1.36,1,1l.61-.34a.76.76,0,0,0-.77-1.31l-.86.43c-.9.45-.1,1.83.8,1.36a6.92,6.92,0,0,1,.88-.39L217.9,178a8.13,8.13,0,0,1-1,.38l.62,1.46a5,5,0,0,0,1.9-1,.75.75,0,0,0-.72-1.24c-.65.17-1.15.65-1.8.83-1,.29-.54,1.89.43,1.54a8.57,8.57,0,0,0,1.3-.61c.74-.4.23-1.71-.58-1.39-.36.14-.73.27-1.09.42l.61,1.44c.27-.17.55-.33.83-.48l-.77-1.31-.6.36,1,1a1.72,1.72,0,0,0,.22-.37c.28-.57-.34-1.38-1-.95l-.24.15.8,1a1.48,1.48,0,0,0,.32-.34.59.59,0,0,0-.72-.92Z"/><path class="cls-2" d="M217,179.59l.1.08v-1.21l-.16.1a.72.72,0,0,0,.73,1.24l.07,0-.71-1.21-.11.06a.72.72,0,0,0,.72,1.24l.11-.07-.86-1.1-.08.06,1,1,.06-.05c.61-.51-.19-1.54-.85-1.11l-.15.1.71,1.21.08,0-.85-1.1,0,0c-.45.57.11,1.53.84,1.08l.18-.11-.82-1-.11.11c-.52.52.17,1.47.8,1a1.13,1.13,0,0,1,.21-.12l-.67-1.15-.16.11a.67.67,0,0,0,.68,1.15l.23-.12-.67-1.15-.14.1a.65.65,0,0,0,.66,1.13l.2-.11c.73-.41.05-1.59-.67-1.13l-.14.09.65,1.11a6.51,6.51,0,0,1,1.52-.69c.88-.38,0-1.87-.76-1.3a12.79,12.79,0,0,1-1.41.88c-.63.33-.19,1.46.49,1.17l.16-.06-.51-1.2-.19.11.66,1.13.15-.08c.76-.42.09-1.51-.67-1.15l-.24.12.68,1.15.15-.11a.67.67,0,0,0-.67-1.15,1.56,1.56,0,0,0-.34.23l.8,1,.13-.1c.54-.41.27-1.51-.52-1.22l-.2.07.54,1.26.05,0c.72-.53,0-1.74-.71-1.21l-.08.05c-.72.51-.05,1.71.71,1.21l.15-.09-.85-1.11-.06.05c-.61.51.21,1.58.85,1.11l.09-.07c.57-.43.26-1.61-.55-1.29l-.11,0,.69,1.2.1-.09c.62-.5-.08-1.25-.68-1.17h-.08l.69,1.19.14-.12c.83-.72-.81-1.87-1.17-.68l0,.1a.55.55,0,0,0,.25.61Z"/><path class="cls-1" d="M424.13,181.17a1,1,0,0,1,.86-.31,1.3,1.3,0,0,1,.73.31,1.34,1.34,0,0,1,0,1.71,24.11,24.11,0,0,1-4.82,3.42,44.49,44.49,0,0,1-6.23,2.81,45.65,45.65,0,0,1-6.84,1.89,35,35,0,0,1-6.66.67,15.12,15.12,0,0,1-7.2-1.46,5.12,5.12,0,0,1-2.33-2.45,7.94,7.94,0,0,1-.61-3,9.77,9.77,0,0,1,.19-1.89q.18-.91.3-1.65l-.85.73-.74.73c-1,.9-2,1.84-3.17,2.81A34.22,34.22,0,0,1,383.4,188a19,19,0,0,1-3.3,1.77,6.66,6.66,0,0,1-3.3.48,4.4,4.4,0,0,1-2.1-1.33,3.39,3.39,0,0,1-.56-2.46,11.56,11.56,0,0,1,1.79-3.56,17.81,17.81,0,0,1,2.71-2.8,12.85,12.85,0,0,1,3.31-2.05,8.48,8.48,0,0,1,3.51-.71c.24.08.33.28.5.56a1.11,1.11,0,0,1,.24.8,1.08,1.08,0,0,1-.44.65,1.69,1.69,0,0,1-.9.33,6,6,0,0,0-2.49.76,16.34,16.34,0,0,0-2.71,2.09,6.22,6.22,0,0,0-2.94,4.5c-.08.25.28.69.68.93a5.76,5.76,0,0,0,2.58-.57,21.36,21.36,0,0,0,2.87-1.83c1-.74,2-1.51,2.93-2.32s1.83-1.59,2.57-2.33a39.71,39.71,0,0,1,3.36-2.8,3.28,3.28,0,0,1,1.77-.74c.57,0,.89.21,1,.61l-.12-.12a2.12,2.12,0,0,1,.25.92,3,3,0,0,1-.25,1c-.24.81-.47,1.64-.67,2.5a10.52,10.52,0,0,0-.31,2.38,4,4,0,0,0,1.59,3.54,8,8,0,0,0,2.75.86,24.18,24.18,0,0,0,3.48.24,33,33,0,0,0,6-.61,43.53,43.53,0,0,0,6.41-1.71,46.32,46.32,0,0,0,5.92-2.56A18.94,18.94,0,0,0,424.13,181.17Z"/><path class="cls-2" d="M381.91,178.42c-.48.21-1,.41-1.11,1a.58.58,0,0,0,.55.72,2.12,2.12,0,0,0,1.24-.53.68.68,0,0,0-.68-1.17Z"/><path class="cls-2" d="M384,177.9c-.41-1.13-1.75-.53-2.47-.09a.77.77,0,0,0,.78,1.33c.41-.22,2-.43,1.69-1.24Z"/><path class="cls-2" d="M383.59,177a5.91,5.91,0,0,0-2.57,1c-.85.62,0,2.05.83,1.41a12.87,12.87,0,0,1,2.12-1c.65-.31.37-1.5-.38-1.41Z"/><path class="cls-2" d="M379.25,180.82a5.19,5.19,0,0,1,3-1.95c.93-.15,1.91,0,2.66-.61a.59.59,0,0,0,0-.83c-1-.82-2.64-.27-3.74.11a6.29,6.29,0,0,0-3.06,2.39c-.42.7.62,1.56,1.15.89Z"/><path class="cls-2" d="M386.22,179.09a1.32,1.32,0,0,0-.5-2.26,5.23,5.23,0,0,0-3.7.6c-.5.23-1,.57-1,1.19a.82.82,0,0,0,.75.79c.58.07,1.21-.41,1.76-.56a7.94,7.94,0,0,1,1-.2l.55-.05c.34.07.34-.07,0-.41-.49.75.56,1.41,1.17.9Z"/><path class="cls-2" d="M379,182.63h0c-.05,0-.11,0-.08.08l0,0c.05.09.18,0,.09-.09Z"/><path class="cls-2" d="M378.43,181.41v-.08a.17.17,0,0,0-.09-.16l-.13-.1c-.19-.14-.39.19-.19.34l.12.09a.21.21,0,0,0,.24,0s0,0,0-.06Z"/><path class="cls-2" d="M378.07,181.52a9,9,0,0,0,2.37-1.49.81.81,0,0,0-.78-1.35,4,4,0,0,0-2.41,2,.67.67,0,0,0,.82.83Z"/><path class="cls-2" d="M379.34,180.88a14.79,14.79,0,0,0,1.19-1.06c.63-.52-.21-1.63-.89-1.15s-1.2,1-1.14,1.73a.57.57,0,0,0,.84.48Z"/><path class="cls-2" d="M379,180.65a2.29,2.29,0,0,0,.82-.52c.72-.59-.3-1.59-1-1a1.34,1.34,0,0,0-.25.23l1.12.87.05-.06-1-1-.13.16c-.55.7.36,1.69,1,1l.28-.3c.64-.68-.31-1.57-1-1l-.25.2.86,1.12a3,3,0,0,1,.66-.56l-.73-1.25a6.28,6.28,0,0,0-1.93,1.77.79.79,0,0,0,0,.8l0,.1a.62.62,0,0,0,.54.3c.52,0,.68-.27,1-.66a5.07,5.07,0,0,1,1.11-1.06c.75-.53.06-1.75-.73-1.25a4.48,4.48,0,0,0-.94.8c-.49.57.18,1.65.87,1.12l.54-.43-1-1-.27.29,1,1,.13-.16c.55-.7-.35-1.68-1-1a2.39,2.39,0,0,0-.28.35c-.47.67.56,1.42,1.12.86l.12-.11-1-1a1.53,1.53,0,0,0-.33.9.51.51,0,0,0,.64.49Z"/><path class="cls-2" d="M381,180.29c1.22-.91,1.86-2.24,3.59-2.15a.72.72,0,0,0,.37-1.34c-1.17-.59-2.64,0-3.76.5a8.14,8.14,0,0,0-3.37,2.83c-.51.76.64,1.64,1.26,1a10.77,10.77,0,0,1,2.32-2c.74-.45,2.08-1.29,3-1l.19-1.42a4.41,4.41,0,0,0-4.22,2.73.59.59,0,0,0,.09.68l.14.13a.33.33,0,0,0,.4,0Z"/><path class="cls-2" d="M384.22,178l.12,0A.66.66,0,0,0,385,177l-.09-.09-.14,1.11.07,0-.56.08h.08l.2-1.45h-.37l.2,1.51a.61.61,0,0,1,.42.12c.74.4,1.6-.61.93-1.2l-.12-.1-.16,1.23-.3.08c.86.08.94-1.05.4-1.45a2.21,2.21,0,0,0-2.45.06.82.82,0,0,0,.63,1.48,2.21,2.21,0,0,1,1.22-.12l.6-1.42-.05,0a.83.83,0,0,0-1,.12l0,0a.79.79,0,0,0,.16,1.23l.14.07.59-1.39a5.52,5.52,0,0,0-1.21-.24c-1-.07-1,1.66,0,1.53l.57-.08c.81-.13.63-1.55-.2-1.45a.92.92,0,0,0-.65.29.72.72,0,0,0,.5,1.21h.13l-.57-1-.06.13a.56.56,0,0,0,.33.81Z"/><path class="cls-2" d="M385.65,177.78a.08.08,0,1,0,0-.16.08.08,0,0,0,0,.16Z"/><path class="cls-2" d="M385.94,177.05c-1-1-2.79-.71-3.88,0-.86.57-.06,2,.82,1.4s1.62-.25,2.55-.18a.73.73,0,0,0,.51-1.23Z"/><path class="cls-2" d="M385.74,177.41v0l-.4.69c.19-.08.39-.19.42-.42l-.57.44h.07c.6,0,.77-.81.3-1.09l-.07,0-.3,1.11h.09a.61.61,0,0,0,.55-.42v0l-.94.38.05,0,.33-1.2h0l.65.64v0l-1.26.17a.71.71,0,0,0,.52.52.68.68,0,0,0,.83-.83l0-.1-1.06.81a1.27,1.27,0,0,0,.41.15.65.65,0,0,0,.82-.63v-.1a.71.71,0,0,0-.36-.63l-.11,0a.73.73,0,1,0-.57,1.34h.05l.79-1a1.54,1.54,0,0,0-.17-.19c-.71-.76-1.8.61-.87,1.13l.09.05.68-1.16,0,0a.68.68,0,0,0-.69,0,.75.75,0,0,0-.32.42.67.67,0,0,0,.45.8h0c.68.22,1.17-.88.5-1.19l-.06,0c-1.1-.49-1.32,1.39-.16,1.18h0l.14-1-.08,0a.59.59,0,1,0-.46,1.09l.07,0,.32-1.13-.07,0c-.93-.29-1,1.42,0,1.15h0l.24-.9,0,0a.57.57,0,0,0-1,.33.58.58,0,0,0,.85.57l0,0a.53.53,0,0,0,.24-.59Z"/><path class="cls-2" d="M384.76,177.78l0,0c.56.44,1.09-.44.7-.91l0-.06-.59,1,.07,0,.33-1.2h0a.63.63,0,0,0-.75.85.64.64,0,0,0,1.13.08h0a.63.63,0,0,0-.54-.94H385a.61.61,0,0,0-.16,1.19l.07,0-.26-1,0,0a.56.56,0,0,0,.11.87Z"/><path class="cls-2" d="M376.48,183.42c1.14-.83,1.9-2.15,2.94-3.12A8,8,0,0,1,384,178a.68.68,0,0,0,0-1.3c-1.82-.25-3.27.66-4.65,1.77s-3.1,2.64-3.67,4.31a.58.58,0,0,0,.84.65Z"/><path class="cls-2" d="M382,178.52a4,4,0,0,0,1.48-.56.75.75,0,0,0-.58-1.36l-.5.16.58,1.37c.75-.35,1.38.07,2.12.07a.78.78,0,0,0,.75-1c-.45-1.32-2.68-.83-3.63-.38-.76.36-.22,1.64.58,1.37l.5-.17-.57-1.37a3.71,3.71,0,0,0-1.15.84c-.28.34-.14,1.08.42,1Z"/><path class="cls-2" d="M382,177.59a.12.12,0,0,0,0-.23.12.12,0,0,0,0,.23Z"/><path class="cls-2" d="M380.23,182.62a43.55,43.55,0,0,1,4.25-1.74c.95-.43,2.4-1,2.5-2.22.32-3.6-4.24-2.43-6-1.19-1.05.73-.07,2.47,1,1.74.61-.41,1.79-1.12,2.58-.91s-.61.88-1,1.06c-1.42.68-3.07,1-4.23,2.14a.72.72,0,0,0,.87,1.12Z"/><path class="cls-2" d="M374.4,188.05c-1.12,1.19-.09,2.68,1.3,2.95a4.58,4.58,0,0,0,4.15-1.32,1,1,0,0,0-.58-1.41c-.95-.21-1.68.32-2.58.5a1.47,1.47,0,0,1-1-.05c.14.07.17.22.08-.09a1.55,1.55,0,0,0-.4-.58.71.71,0,0,0-1,0Z"/><path class="cls-2" d="M377,182.71h0a.63.63,0,1,0-.17-1.25c-1.11.21-1.92,1.46-2.46,2.37s-.94,2.63,0,3.38a.76.76,0,0,0,1,0,1.31,1.31,0,0,0,.51-1,3.37,3.37,0,0,1,.31-1.6,10,10,0,0,0,1.36-2.33l-.78.44a.26.26,0,0,0,.15,0Z"/><path class="cls-2" d="M374.9,187.56a.85.85,0,0,0,0-1.7.85.85,0,0,0,0,1.7Z"/><path class="cls-2" d="M374.9,187.22a.59.59,0,0,0,0-1.17.59.59,0,0,0,0,1.17Z"/><path class="cls-2" d="M381.15,177.47c-3.64.89-7.08,5.35-7.25,9,0,1.09,1.65,1.09,1.7,0,.13-2.9,3.12-6.69,6-7.39a.85.85,0,0,0-.45-1.64Z"/><path class="cls-2" d="M383.37,176.46c-3.28.54-6.82,3.45-8.56,6.23-1.36,2.18-2.29,5.9.37,7.46a1,1,0,0,0,1.16-1.5c-2.19-2.21.5-5.64,2.16-7.21a28,28,0,0,1,5.46-3.57.77.77,0,0,0-.59-1.41Z"/><path class="cls-2" d="M375.39,183.71c-1.73.48-2.12,3.58-1.61,5a1,1,0,0,0,.93.71c1.17,0,.85-1.21.85-2,0-1.11,1-2.27.58-3.34a.61.61,0,0,0-.75-.42Z"/><path class="cls-2" d="M374.5,185.08c-1.74.42-1.22,4.81.63,4.2,1.05-.35.35-1.5.33-2.23s.16-2.23-1-2Z"/><path class="cls-2" d="M374.08,185.24c-1.67,1.54-.53,5.52,1.75,5.85,1,.14,1.88-1.29.76-1.82a1.87,1.87,0,0,1-1.27-1.49c-.14-.75-.05-1.53-.23-2.28a.61.61,0,0,0-1-.26Z"/><path class="cls-2" d="M375.46,183.58a3.46,3.46,0,0,0-1,.82,2.7,2.7,0,0,0-.41,1.52.79.79,0,0,0,1.58,0,4.15,4.15,0,0,1,.2-1,4.54,4.54,0,0,1,.16-.75c.14-.32-.17-.79-.53-.54Z"/><path class="cls-2" d="M375.22,183.67c-1.83,0-2.57,3.73-1.29,4.74a.82.82,0,0,0,1.36-.36,14.17,14.17,0,0,0,0-2.17,5.63,5.63,0,0,0,.32-1.88.46.46,0,0,0-.43-.33Z"/><path class="cls-2" d="M375.84,182.18a4.43,4.43,0,0,0-2.26,3.94,1,1,0,0,0,1.9,0c0-1.24,1.07-2.07,1.26-3.25a.62.62,0,0,0-.9-.69Z"/><path class="cls-2" d="M380.65,180.91l0,.07c0,.31.41.45.48.13l0-.06a.26.26,0,0,0-.42-.25l-.11.09s0,0,0,0Z"/><path class="cls-2" d="M381.09,181.58a.18.18,0,0,0,0-.35.18.18,0,0,0,0,.35Z"/><path class="cls-2" d="M382.27,180.22c-2.79-.2-8.75,5.05-5.77,7.84,1.47,1.38,3.88-.06,5.34-.78,2.48-1.23,5.34-2.55,7.34-4.49A1,1,0,0,0,388,181.2c-2.76,1.49-5.35,3.35-8.25,4.61-.8.34-1.71,1-1.43-.35.16-.81,1.48-1.83,2-2.26.94-.7,1.87-1.09,2.45-2.13a.57.57,0,0,0-.49-.85Z"/><path class="cls-2" d="M384.81,185c1.54-.34,3.08-1.49,4.46-2.21,1.18-.62.15-2.29-1-1.76-1.49.66-3.32,1.5-4.28,2.87-.4.57.26,1.23.85,1.1Z"/><path class="cls-2" d="M386.09,184a12.32,12.32,0,0,0,4.13-2.46c.86-.71-.24-2-1.16-1.5a13.08,13.08,0,0,0-3.69,2.72.75.75,0,0,0,.72,1.24Z"/><path class="cls-2" d="M387.52,182.56a5.67,5.67,0,0,0,2.87-1.31.94.94,0,0,0-.94-1.62,5.07,5.07,0,0,0-2.47,2,.63.63,0,0,0,.54.94Z"/><path class="cls-2" d="M374.66,189c-1.06,1.64,1.33,2.57,2.62,2.38a9.67,9.67,0,0,0,5.35-2.93c.76-.84-.25-2.39-1.28-1.65-1.22.86-4.21,3.56-5.69,2.07a.65.65,0,0,0-1,.13Z"/><path class="cls-2" d="M378.42,190.21a3.09,3.09,0,0,0,2.78-.3,5,5,0,0,0,2.5-2.23c.21-.53-.41-1-.9-.9-.88.25-1.47,1-2.2,1.54s-1.48.67-2.18,1.1a.46.46,0,0,0,0,.79Z"/><path class="cls-2" d="M382.35,180.33l-.05.11s0,0,0,0l.06-.12a0,0,0,0,0,0,0Z"/><path class="cls-2" d="M381.81,180.19a1.47,1.47,0,0,0-.4.24.65.65,0,0,0,.66,1.13h.12l-.68-1.17a3.13,3.13,0,0,0-.42.47c-.48.62.43,1.36,1,1l.61-.35c.85-.48.09-1.76-.77-1.31-.28.15-.57.29-.86.43-.9.46-.1,1.83.8,1.36a8.7,8.7,0,0,1,.88-.39l-.59-1.39a6.66,6.66,0,0,1-1,.39l.62,1.46a5.21,5.21,0,0,0,1.9-1.06.74.74,0,0,0-.72-1.23c-.65.17-1.15.64-1.8.83-1,.28-.54,1.88.43,1.54a8.57,8.57,0,0,0,1.3-.61c.74-.41.23-1.71-.58-1.39-.37.14-.73.27-1.09.42l.61,1.43.83-.48-.77-1.31-.6.37,1,1a1.36,1.36,0,0,0,.21-.37c.29-.58-.33-1.38-1-1l-.24.16.8,1a1.72,1.72,0,0,0,.32-.34.6.6,0,0,0-.72-.93Z"/><path class="cls-2" d="M381.34,181.78l.1.08v-1.22l-.16.11A.71.71,0,0,0,382,182l.08,0-.71-1.21-.12.06A.71.71,0,0,0,382,182l.11-.06-.85-1.11-.08.07,1,1,.06,0c.61-.5-.19-1.53-.85-1.1l-.15.1.71,1.21L382,182l-.84-1.1,0,.05c-.45.58.11,1.53.84,1.09l.18-.11-.82-1-.11.11c-.52.51.17,1.47.8,1a.88.88,0,0,1,.21-.12l-.67-1.16-.16.11a.67.67,0,0,0,.68,1.16l.23-.12-.67-1.15-.14.09a.66.66,0,0,0,.66,1.14l.2-.11c.73-.42.05-1.59-.67-1.13l-.14.09.65,1.11a6.51,6.51,0,0,1,1.52-.69c.88-.38,0-1.87-.76-1.3a12.79,12.79,0,0,1-1.41.88c-.63.33-.19,1.45.49,1.17l.16-.06-.51-1.2-.19.1.66,1.14.15-.08c.76-.42.09-1.52-.67-1.15l-.24.11.68,1.16.15-.11a.67.67,0,0,0-.67-1.16,2.08,2.08,0,0,0-.34.24l.8,1,.13-.1c.54-.42.26-1.52-.52-1.23l-.2.07.54,1.27,0,0c.72-.52,0-1.73-.7-1.21l-.08.06c-.72.51-.05,1.71.71,1.21l.15-.1-.85-1.1-.06.05c-.61.5.2,1.58.85,1.1l.08-.06c.58-.43.27-1.62-.54-1.29l-.12,0,.7,1.19.1-.08c.61-.51-.08-1.26-.68-1.17h-.09l.7,1.19.14-.12c.83-.72-.81-1.87-1.17-.69l0,.1a.56.56,0,0,0,.25.62Z"/><path class="cls-1" d="M543.37,178.76a1,1,0,0,1,.85-.31,1.33,1.33,0,0,1,.74.31,1.37,1.37,0,0,1,0,1.71,24.49,24.49,0,0,1-4.83,3.42,44,44,0,0,1-6.23,2.81,45.65,45.65,0,0,1-6.84,1.89,35,35,0,0,1-6.65.67,15.17,15.17,0,0,1-7.21-1.46,5.14,5.14,0,0,1-2.32-2.45,7.76,7.76,0,0,1-.61-3,9.77,9.77,0,0,1,.18-1.89c.12-.61.23-1.16.31-1.65l-.86.73-.73.73c-1,.9-2,1.84-3.18,2.81a35.38,35.38,0,0,1-3.35,2.57,19,19,0,0,1-3.3,1.77,6.68,6.68,0,0,1-3.31.48,4.37,4.37,0,0,1-2.09-1.33,3.35,3.35,0,0,1-.56-2.46,11.34,11.34,0,0,1,1.79-3.56,17.81,17.81,0,0,1,2.71-2.8,13,13,0,0,1,3.3-2,8.48,8.48,0,0,1,3.51-.71c.25.08.34.28.5.57a1.08,1.08,0,0,1,.25.79,1.12,1.12,0,0,1-.44.65,1.72,1.72,0,0,1-.91.33,6,6,0,0,0-2.48.76,16,16,0,0,0-2.72,2.09,9.44,9.44,0,0,0-1.83,1.71,9,9,0,0,0-1.11,2.79c-.08.25.28.69.69.93a5.81,5.81,0,0,0,2.58-.57,22,22,0,0,0,2.87-1.83c1-.74,2-1.51,2.93-2.32s1.83-1.59,2.56-2.33a43.27,43.27,0,0,1,3.36-2.8,3.28,3.28,0,0,1,1.77-.74c.57,0,.9.21,1,.61l-.12-.12a2.1,2.1,0,0,1,.24.92,3,3,0,0,1-.24,1c-.25.81-.47,1.64-.67,2.5a10,10,0,0,0-.31,2.38,4,4,0,0,0,1.59,3.54,8,8,0,0,0,2.75.86,24.18,24.18,0,0,0,3.48.24,32.85,32.85,0,0,0,6-.61,41.7,41.7,0,0,0,6.41-1.71,46.46,46.46,0,0,0,5.93-2.56A18.94,18.94,0,0,0,543.37,178.76Z"/><path class="cls-2" d="M501.14,176c-.47.21-1,.41-1.1,1a.58.58,0,0,0,.55.72,2.1,2.1,0,0,0,1.23-.53.68.68,0,0,0-.68-1.17Z"/><path class="cls-2" d="M503.2,175.49c-.41-1.13-1.76-.53-2.48-.09a.77.77,0,0,0,.78,1.33c.42-.22,2-.43,1.7-1.24Z"/><path class="cls-2" d="M502.83,174.61a5.86,5.86,0,0,0-2.57,1c-.85.62,0,2,.83,1.41a12.14,12.14,0,0,1,2.12-1c.64-.31.36-1.5-.38-1.41Z"/><path class="cls-2" d="M498.49,178.41a5.17,5.17,0,0,1,3-1.95c.94-.15,1.91,0,2.67-.61a.59.59,0,0,0,0-.83c-1-.82-2.65-.27-3.74.11a6.32,6.32,0,0,0-3.07,2.39c-.42.7.62,1.56,1.16.89Z"/><path class="cls-2" d="M505.45,176.68a1.32,1.32,0,0,0-.49-2.26,5.26,5.26,0,0,0-3.71.6c-.5.23-1,.57-1,1.19a.83.83,0,0,0,.75.79c.58.07,1.22-.4,1.76-.56a7.94,7.94,0,0,1,1-.2l.56-.05c.33.07.34-.07,0-.41-.5.75.55,1.41,1.16.9Z"/><path class="cls-2" d="M498.25,180.22h0a.06.06,0,0,0-.08.08v0c.06.1.19,0,.09-.09Z"/><path class="cls-2" d="M497.67,179v-.08a.18.18,0,0,0-.1-.16l-.12-.1c-.2-.14-.4.19-.2.34l.13.09a.2.2,0,0,0,.23,0s.05,0,.05-.06Z"/><path class="cls-2" d="M497.31,179.11a9.18,9.18,0,0,0,2.37-1.49.81.81,0,0,0-.79-1.35,4,4,0,0,0-2.4,2,.67.67,0,0,0,.82.83Z"/><path class="cls-2" d="M498.57,178.47a13.25,13.25,0,0,0,1.19-1.06c.64-.52-.21-1.63-.88-1.15s-1.21,1-1.14,1.73a.56.56,0,0,0,.83.48Z"/><path class="cls-2" d="M498.26,178.24a2.51,2.51,0,0,0,.82-.51c.72-.6-.31-1.6-1-1a.92.92,0,0,0-.25.23l1.12.87,0-.06-1-1-.12.16c-.55.7.36,1.69,1,1l.27-.3a.71.71,0,0,0-1-1l-.26.2.87,1.12a3.16,3.16,0,0,1,.65-.56l-.73-1.25a6.28,6.28,0,0,0-1.93,1.77.79.79,0,0,0,0,.8l0,.1a.6.6,0,0,0,.53.3c.52,0,.68-.27,1-.66a4.81,4.81,0,0,1,1.1-1.06c.75-.53.06-1.75-.73-1.25a4.19,4.19,0,0,0-.93.8c-.5.57.18,1.65.86,1.12.19-.14.37-.28.54-.43l-1-1-.27.29,1,1,.12-.16c.55-.7-.35-1.68-1-1a2.33,2.33,0,0,0-.27.35c-.48.67.56,1.42,1.12.86l.11-.11-1-1a1.62,1.62,0,0,0-.34.9.52.52,0,0,0,.65.49Z"/><path class="cls-2" d="M500.22,177.88c1.22-.91,1.85-2.24,3.59-2.15a.72.72,0,0,0,.36-1.34c-1.16-.59-2.64,0-3.75.5a8.14,8.14,0,0,0-3.37,2.83c-.51.76.63,1.64,1.25,1a10.77,10.77,0,0,1,2.32-2c.74-.45,2.09-1.29,3-1l.19-1.42a4.39,4.39,0,0,0-4.22,2.73.57.57,0,0,0,.08.68l.14.13a.35.35,0,0,0,.41,0Z"/><path class="cls-2" d="M503.45,175.61l.13,0a.66.66,0,0,0,.64-1.09l-.09-.09-.15,1.11.08,0-.56.07h.08l.19-1.45h-.37l.21,1.51a.63.63,0,0,1,.42.12c.73.4,1.6-.61.92-1.2l-.12-.1-.16,1.23-.29.08c.86.08.94-1,.39-1.45a2.19,2.19,0,0,0-2.44.06.81.81,0,0,0,.62,1.48,2.22,2.22,0,0,1,1.22-.12l.6-1.42,0,0a.82.82,0,0,0-1,.12l0,0a.79.79,0,0,0,.16,1.23l.14.07.59-1.39a5.61,5.61,0,0,0-1.22-.24c-1-.07-1,1.66,0,1.53l.57-.08c.81-.13.63-1.55-.2-1.45a.89.89,0,0,0-.64.29.72.72,0,0,0,.5,1.21h.12l-.56-1-.07.13a.56.56,0,0,0,.33.81Z"/><path class="cls-2" d="M504.89,175.37a.08.08,0,0,0,0-.16.08.08,0,0,0,0,.16Z"/><path class="cls-2" d="M505.17,174.64c-1-1-2.78-.71-3.87,0-.86.57-.07,2,.81,1.4s1.62-.25,2.56-.18a.73.73,0,0,0,.5-1.23Z"/><path class="cls-2" d="M505,175v0l-.39.69a.56.56,0,0,0,.42-.42l-.58.44h.08c.59,0,.77-.81.29-1.09l-.06,0-.3,1.11h.08a.58.58,0,0,0,.55-.42l0,0-.95.38.06,0,.32-1.2h0l.65.64v0l-1.26.17a.72.72,0,0,0,.53.52.68.68,0,0,0,.83-.83l0-.1-1.06.81a1.59,1.59,0,0,0,.41.16.67.67,0,0,0,.83-.63V175a.73.73,0,0,0-.35-.63l-.11,0a.73.73,0,1,0-.57,1.34h0l.79-1-.17-.19c-.72-.76-1.8.61-.88,1.13l.1.06.68-1.17,0,0a.68.68,0,0,0-.69,0,.71.71,0,0,0-.32.42.65.65,0,0,0,.45.8h0c.69.22,1.18-.88.5-1.19l-.06,0c-1.1-.49-1.31,1.39-.15,1.18h0l.13-1-.07,0a.59.59,0,1,0-.46,1.09l.07,0,.31-1.13-.07,0c-.93-.29-1,1.42,0,1.15h0l.24-.9,0,0a.57.57,0,1,0-.12.9l0,0A.51.51,0,0,0,505,175Z"/><path class="cls-2" d="M504,175.37l0,0c.57.43,1.1-.45.71-.92l-.05-.06-.59,1,.07,0,.33-1.2h0a.63.63,0,1,0,.38.93h0a.63.63,0,0,0-.54-.94h-.08a.61.61,0,0,0-.16,1.19l.07,0-.26-1,0,0a.56.56,0,0,0,.11.87Z"/><path class="cls-2" d="M495.72,181c1.14-.83,1.9-2.15,2.94-3.12a8,8,0,0,1,4.53-2.31.68.68,0,0,0,0-1.3c-1.82-.25-3.27.66-4.65,1.77s-3.09,2.64-3.67,4.31c-.15.45.44.95.85.65Z"/><path class="cls-2" d="M501.23,176.11a4,4,0,0,0,1.47-.56.75.75,0,0,0-.57-1.36l-.5.16.58,1.37c.74-.35,1.38.07,2.12.07a.77.77,0,0,0,.74-1c-.44-1.32-2.67-.83-3.62-.38-.76.36-.23,1.64.58,1.37l.5-.17-.58-1.37a3.79,3.79,0,0,0-1.14.84c-.28.34-.15,1.08.42,1Z"/><path class="cls-2" d="M501.25,175.18a.12.12,0,0,0,0-.23.12.12,0,0,0,0,.23Z"/><path class="cls-2" d="M499.46,180.21a44.77,44.77,0,0,1,4.26-1.74c.95-.43,2.39-1,2.5-2.22.31-3.6-4.24-2.43-6-1.19-1.05.73-.07,2.47,1,1.74.6-.41,1.78-1.12,2.57-.91s-.6.88-1,1.06c-1.43.68-3.08,1-4.23,2.14a.71.71,0,0,0,.86,1.12Z"/><path class="cls-2" d="M493.64,185.64c-1.12,1.19-.09,2.68,1.3,3a4.57,4.57,0,0,0,4.14-1.32,1,1,0,0,0-.57-1.41c-.95-.21-1.68.32-2.59.5a1.44,1.44,0,0,1-1-.05c.13.07.16.22.07-.09a1.53,1.53,0,0,0-.39-.58.72.72,0,0,0-1,0Z"/><path class="cls-2" d="M496.21,180.3h0a.63.63,0,1,0-.17-1.25c-1.12.21-1.92,1.46-2.47,2.37s-.93,2.63,0,3.38a.76.76,0,0,0,1,0,1.31,1.31,0,0,0,.51-1,3.25,3.25,0,0,1,.31-1.6,10,10,0,0,0,1.36-2.33l-.78.44a.24.24,0,0,0,.15,0Z"/><path class="cls-2" d="M494.14,185.15a.85.85,0,0,0,0-1.7.85.85,0,0,0,0,1.7Z"/><path class="cls-2" d="M494.14,184.81a.59.59,0,0,0,0-1.17.59.59,0,0,0,0,1.17Z"/><path class="cls-2" d="M500.39,175.06c-3.65.89-7.09,5.35-7.25,9-.05,1.09,1.64,1.09,1.69,0,.14-2.9,3.13-6.69,6-7.39,1.06-.26.61-1.9-.45-1.64Z"/><path class="cls-2" d="M502.61,174.05c-3.28.54-6.83,3.45-8.56,6.23-1.36,2.18-2.3,5.9.36,7.46a1,1,0,0,0,1.16-1.5c-2.18-2.21.5-5.64,2.17-7.21a28,28,0,0,1,5.46-3.57.77.77,0,0,0-.59-1.41Z"/><path class="cls-2" d="M494.63,181.3c-1.74.48-2.12,3.58-1.62,5a1,1,0,0,0,.93.71c1.17,0,.86-1.21.86-2,0-1.11.95-2.27.58-3.34a.62.62,0,0,0-.75-.42Z"/><path class="cls-2" d="M493.74,182.68c-1.74.41-1.22,4.8.62,4.19,1.05-.35.36-1.5.33-2.23s.16-2.23-.95-2Z"/><path class="cls-2" d="M493.31,182.83c-1.67,1.54-.53,5.52,1.76,5.85,1,.14,1.88-1.29.76-1.82a1.84,1.84,0,0,1-1.27-1.49c-.14-.75-.05-1.53-.24-2.27a.61.61,0,0,0-1-.27Z"/><path class="cls-2" d="M494.7,181.18a3.44,3.44,0,0,0-1,.81,2.61,2.61,0,0,0-.4,1.52.79.79,0,0,0,1.58,0,4.73,4.73,0,0,1,.19-1,5.86,5.86,0,0,1,.17-.75c.13-.31-.18-.79-.53-.53Z"/><path class="cls-2" d="M494.45,181.26c-1.82,0-2.56,3.74-1.28,4.74a.83.83,0,0,0,1.36-.36,15.58,15.58,0,0,0,0-2.17,6.18,6.18,0,0,0,.32-1.88.46.46,0,0,0-.44-.33Z"/><path class="cls-2" d="M495.08,179.77a4.42,4.42,0,0,0-2.26,3.94,1,1,0,0,0,1.9,0c0-1.24,1.07-2.07,1.25-3.25a.62.62,0,0,0-.89-.69Z"/><path class="cls-2" d="M499.89,178.5l0,.07c-.05.31.4.45.48.13v-.06a.26.26,0,0,0-.42-.25l-.11.09v0Z"/><path class="cls-2" d="M500.33,179.17a.18.18,0,0,0,0-.35.18.18,0,0,0,0,.35Z"/><path class="cls-2" d="M501.5,177.81c-2.78-.2-8.74,5.05-5.77,7.84,1.47,1.38,3.89-.06,5.35-.78,2.47-1.23,5.34-2.55,7.34-4.49a1,1,0,0,0-1.23-1.59c-2.77,1.49-5.35,3.35-8.25,4.61-.8.34-1.71,1-1.44-.35.17-.81,1.48-1.83,2.05-2.26.94-.7,1.86-1.09,2.44-2.13a.57.57,0,0,0-.49-.85Z"/><path class="cls-2" d="M504,182.62c1.54-.34,3.08-1.49,4.47-2.21,1.18-.62.14-2.29-1-1.76-1.49.66-3.32,1.5-4.28,2.87-.4.57.26,1.23.84,1.1Z"/><path class="cls-2" d="M505.33,181.6a12.38,12.38,0,0,0,4.12-2.46c.87-.71-.24-2-1.16-1.5a13.17,13.17,0,0,0-3.68,2.72.75.75,0,0,0,.72,1.24Z"/><path class="cls-2" d="M506.76,180.15a5.6,5.6,0,0,0,2.86-1.31.94.94,0,0,0-.94-1.62,5,5,0,0,0-2.46,2,.63.63,0,0,0,.54.94Z"/><path class="cls-2" d="M493.89,186.58c-1.05,1.65,1.34,2.57,2.63,2.38a9.7,9.7,0,0,0,5.35-2.93c.75-.84-.25-2.39-1.28-1.65-1.23.86-4.22,3.56-5.69,2.07a.66.66,0,0,0-1,.13Z"/><path class="cls-2" d="M497.66,187.8a3.1,3.1,0,0,0,2.78-.3,4.9,4.9,0,0,0,2.49-2.23c.22-.53-.41-1-.89-.9-.88.25-1.47,1-2.21,1.54s-1.48.67-2.17,1.1a.46.46,0,0,0,0,.79Z"/><path class="cls-2" d="M501.59,177.92l-.06.11s0,0,0,0l.06-.12Z"/><path class="cls-2" d="M501.05,177.78a1.47,1.47,0,0,0-.4.24.65.65,0,0,0,.66,1.13h.11l-.67-1.17a2.67,2.67,0,0,0-.42.47c-.48.62.43,1.36,1,1l.61-.35c.85-.48.1-1.76-.76-1.31l-.86.44c-.9.45-.11,1.82.79,1.35a8.87,8.87,0,0,1,.89-.39l-.59-1.39a6.66,6.66,0,0,1-1,.39l.62,1.46a5.34,5.34,0,0,0,1.9-1,.75.75,0,0,0-.73-1.24c-.64.17-1.15.64-1.79.83-1,.28-.54,1.88.42,1.54a9.16,9.16,0,0,0,1.31-.61c.73-.4.23-1.71-.59-1.39-.36.14-.73.27-1.08.42l.6,1.43.83-.48-.76-1.31-.6.37,1,1a1.72,1.72,0,0,0,.22-.37c.28-.58-.33-1.38-.95-1l-.24.16.79,1a1.47,1.47,0,0,0,.32-.34.59.59,0,0,0-.71-.93Z"/><path class="cls-2" d="M500.57,179.37l.11.08v-1.21l-.16.1a.71.71,0,0,0,.72,1.23l.07,0-.7-1.21-.12.06a.71.71,0,0,0,.72,1.23l.11-.06-.85-1.11-.09.07,1,1,.06,0c.62-.5-.18-1.53-.85-1.1l-.14.1.71,1.21.07-.06-.85-1.1,0,.05c-.44.58.11,1.53.84,1.09l.18-.11-.81-1-.11.11c-.52.51.16,1.47.8,1a.72.72,0,0,1,.21-.12l-.68-1.16-.15.11a.67.67,0,0,0,.67,1.16l.23-.12-.67-1.15-.14.09a.66.66,0,0,0,.67,1.14l.19-.11c.74-.42.05-1.59-.66-1.13l-.15.09.65,1.11a6.51,6.51,0,0,1,1.52-.69c.88-.38.05-1.87-.76-1.3a12.79,12.79,0,0,1-1.41.88c-.63.33-.18,1.45.5,1.17l.15-.06-.5-1.2-.2.1.67,1.14.14-.08c.76-.42.09-1.52-.67-1.15l-.23.11.67,1.16.16-.11a.67.67,0,0,0-.68-1.16,2.52,2.52,0,0,0-.33.24l.8,1,.12-.1c.54-.42.27-1.52-.52-1.23l-.19.08.53,1.26.05,0c.72-.52,0-1.73-.71-1.21l-.07.06c-.73.51-.06,1.71.71,1.21l.14-.1-.85-1.1-.06.05c-.6.5.21,1.58.85,1.1l.09-.06c.58-.43.26-1.61-.54-1.29l-.12,0,.69,1.19.11-.08c.61-.51-.09-1.25-.69-1.17h-.08l.69,1.19.15-.12c.83-.72-.81-1.87-1.18-.69l0,.1a.57.57,0,0,0,.25.62Z"/></g></svg>
