<svg xmlns="http://www.w3.org/2000/svg" width="227.5mm" height="89.47mm" viewBox="0 0 644.9 253.63"><defs><style>.cls-1{fill:#fff;}</style></defs><title>Tegnebræt 5</title><g id="Lag_4" data-name="Lag 4"><path class="cls-1" d="M147.75,84.47c16.63-2.39,32.28-11.25,48.6-15.32,18.63-4.64,35.89-4.7,54.8-2.55,2.19.24,2.52-3.19.51-3.76-17.43-4.94-36.55-2.48-53.84,1.86A329.07,329.07,0,0,0,146.9,82.45c-1.25.55-.27,2.18.85,2Z"/><path class="cls-1" d="M103.17,132.63c-3.34-9.12,2.32-20.64,2.68-30.17.28-7.21-.61-15.85-5.75-21.31-1.2-1.27-3.62,0-3,1.76,1.76,5,3.85,9.44,4.22,14.88.37,5.26-.36,10.59-1.12,15.79-.93,6.3-3.87,14.57.38,20.15.88,1.16,3.22.57,2.61-1.1Z"/><path class="cls-1" d="M90.57,196.26c-5-3.37-4.57-10.47-4.83-15.77-.29-5.91-.57-11.82-.91-17.73-.61-10.58-1.54-21.2-1.53-31.8,0-9.69.88-19.59,4.56-28.64,3.76-9.24,11.93-14.76,16.31-23.41,2.29-4.51,3.57-9.24,6.79-13.26a41.17,41.17,0,0,1,12.19-9.79c9.67-5.42,20.72-8.79,31.51-11.11,21.93-4.71,46-4.53,67.54,2.24,11.32,3.56,19.08,10.14,26.59,19,5.86,6.93,12,13.84,21.1,16.18,3.76,1,5.2-4.52,1.59-5.77C261,72.79,255.24,63.52,248,55.81s-16.28-12.41-26.35-15.3c-22.85-6.54-47.92-6.41-71-1-11.11,2.59-22.6,6.27-32.45,12.18C108.84,57.26,103.9,64.3,99.5,74S85.93,90,81.8,100.21c-3.8,9.38-4.93,19.62-5,29.67-.12,13.7,1.49,27.44,2.78,41.07.83,8.72-.54,24,9.18,28.43a1.81,1.81,0,0,0,1.83-3.12Z"/><path class="cls-1" d="M270.68,78.87c-17.87,1-33.7,11.07-43.68,25.89-6.07,9-9.42,19.54-14.89,28.89a99.73,99.73,0,0,1-17.79,22.19c-14.53,13.69-32.69,23.25-51.79,28.8-19.89,5.79-42,3.85-60.95,12.74-17.07,8-31,25.09-32.6,44.17-.25,3,4.17,3.31,5,.68,5.8-17.78,16.73-33.42,35-39.95,10.67-3.83,22.24-4.2,33.37-5.72a150.15,150.15,0,0,0,25.15-5.63c33.41-10.64,61.52-32.66,76.37-64.74,4.77-10.3,9.44-20.46,17.84-28.37,8.09-7.61,18.78-12.86,29.39-15.93,1.62-.47,1.37-3.12-.41-3Z"/><path class="cls-1" d="M90.28,196.57c-7.17-3.67-1.53-19.41,0-25.2a152.49,152.49,0,0,1,8.84-25.43A154.74,154.74,0,0,1,128.42,103c12-12.59,25.56-23.71,39.23-34.44A153.92,153.92,0,0,1,190,53.43c8.19-4.37,16.31-5.56,25-8.18,2.82-.85,2-4.58-.65-4.87-9.19-1-19.4,3.68-27.35,7.88-8.44,4.46-16.15,10.18-23.65,16.05-17.17,13.43-34.31,27.45-48.24,44.33A148.31,148.31,0,0,0,87.24,161c-2.28,7.75-12.14,36.69,2.25,38.52,1.56.2,2.11-2.24.79-2.91Z"/><path class="cls-1" d="M92.25,160.21c8.92,5.22,20.15,8,30.08,10.65a118.33,118.33,0,0,0,29.37,4.47c17.71.17,35.34-5.68,47.75-18.62,2.06-2.14-1-5.21-3.24-3.24-13.54,12.21-30.12,17.76-48.29,16.92a126,126,0,0,1-26.82-4.69c-9.22-2.5-18.21-6.65-27.5-8.69a1.76,1.76,0,0,0-1.35,3.2Z"/><path class="cls-1" d="M103.08,134.94c6.55,7.22,16.09,8.36,25.42,7.92,12.26-.59,24.82-2.47,36.34-6.81,10.53-4,19.85-10.15,29.45-15.9,10.63-6.38,20.76-10.72,33.14-12.13a2.78,2.78,0,0,0,0-5.55c-19.88-2.08-37.55,13.81-53.87,22.63-11.13,6-23.25,9.25-35.75,10.82-10.85,1.37-23.13,2.74-32.74-3.57-1.62-1.06-3.2,1.25-2,2.59Z"/><path class="cls-1" d="M133.49,93.76c.64,6.5,13.24,7.79,18.29,8.22,11.64,1,23.06-2.43,34-5.92,12.16-3.88,24.33-7.3,37-9.22a189.64,189.64,0,0,1,21-2c6.13-.23,12.54.59,18.54-.68,2-.43,1.74-3.23,0-3.8-10.14-3.29-23.51-1.17-33.94,0a190.84,190.84,0,0,0-33.47,6.8c-11.36,3.41-22.57,8.11-34.48,9.25A51.2,51.2,0,0,1,144,95.63c-3.41-.79-7-3.39-10.37-2a.15.15,0,0,0-.11.15Z"/><path class="cls-1" d="M126.18,97c2.37-7.16,1.95-16,1.58-23.48-.35-7.18-2.58-14.9-7-20.64-1.09-1.42-3.67-.71-3.1,1.3,2.26,8,5.63,14.16,5.9,22.77.2,6.65-.47,13.66,1.64,20a.52.52,0,0,0,1,0Z"/><path class="cls-1" d="M150.83,76.42c2.21-5.54,2.45-12.4,3.28-18.31.74-5.34,1.61-10.75.52-16.07-.47-2.28-3.53-1.47-3.76.51-.65,5.79-.41,11.68-1,17.51-.53,5.25-1.85,10.84-1.21,16.07a1.11,1.11,0,0,0,2.17.29Z"/><path class="cls-1" d="M100.68,210.87c-6.19-3.23-6.27-10.48-6.74-16.59l-1.53-19.75c-.78-10-1.82-20.09-1.64-30.16.19-10.73,1.84-21.73,7.39-31.09,2.69-4.55,6.32-8.07,10-11.8,3.49-3.56,5.46-7.21,7.56-11.73,9.47-20.29,37.42-26.58,57.54-29.75,22.2-3.48,48.79-4.07,70.28,3.37,10.67,3.7,18.67,10.87,26.53,18.7,6.4,6.38,12.95,12.4,21.88,14.78a.3.3,0,0,0,.16-.57c-11.46-3.17-18.78-12.23-27.1-20.07-6.43-6-13.76-11-22.22-13.73-22.43-7.16-49.17-6.6-72.11-2.66-19,3.28-45.6,9.56-55,28.59-2.86,5.79-5.54,10.23-10.18,14.81a47.6,47.6,0,0,0-9.3,12.39c-4.32,8.54-5.75,18.25-6,27.72-.36,13.47,1.32,27,2.41,40.42.68,8.27-1.06,22.92,8,27.43.21.1.39-.21.18-.31Z"/><path class="cls-1" d="M292,96.28c-17.88,2.63-34.53,12.08-44.58,27.35-5.84,8.88-9.51,19-15.38,27.85a103,103,0,0,1-19.35,21.59c-15.94,13.55-35.36,22.75-55.5,28.13S114.47,204.75,95,212.72c-17.28,7.06-31,22.17-34.76,40.59-.07.32.42.46.49.13,4.6-19.95,20.05-35.8,39.53-41.8,19.15-5.9,39.82-4.83,59.21-10.29,33.42-9.41,63.64-29.39,79.66-60.84,5.49-10.76,10.7-21.18,20.1-29.14a68.27,68.27,0,0,1,32.87-14.79c.2,0,.11-.32-.08-.3Z"/><path class="cls-1" d="M92.27,189.05c-7.06-3.29-7.34-10.83-7.91-17.59q-.89-10.56-1.78-21.11c-1-11.34-2.26-22.75-1.94-34.16C81,105,83,93.43,89.21,83.84c3.46-5.37,8.07-9.23,12.61-13.61,3.85-3.71,5.88-7.68,8.29-12.4,6-11.66,17.9-17.87,29.71-22.26a189,189,0,0,1,36.27-9.28c26.18-4.17,54-3.79,79.75,2.68,14,3.53,24.92,10,35.15,20.11,7.49,7.4,14.84,14.38,25.35,17a.3.3,0,0,0,.16-.57c-13.17-3.32-21-13.52-30.66-22.16-8.56-7.67-18.76-12.14-29.84-14.91-26.32-6.57-54.61-6.91-81.29-2.49a179.25,179.25,0,0,0-39.22,10.71c-9.38,3.88-19,9.29-24.47,18.2-4,6.45-6.5,12.06-12.24,17.35-4.32,4-8.21,8-11.18,13.09-5.1,8.74-7.06,18.9-7.54,28.91-.73,15.12,1.41,30.4,2.73,45.42.81,9.19-1,25.15,9.3,29.78.21.1.39-.21.18-.31Z"/><path class="cls-1" d="M316.42,65.45C297,68,278,77.1,265.76,92.85c-7.56,9.74-12,21.45-19.11,31.49a114.91,114.91,0,0,1-23.25,24c-18.37,14.34-40.23,23.91-62.7,29.71a245.76,245.76,0,0,1-38,6.25c-12.29,1.17-24.82,2.23-36.5,6.52-19.64,7.21-36.61,23.14-41.27,44-.07.33.41.46.49.14,5.38-22,23.74-38.28,45-44.73,12.93-3.93,26.56-4.44,39.91-5.9a218.17,218.17,0,0,0,30.64-5.53c38.89-10.05,74.65-31.33,94.32-67.23C262,99.12,269.07,87.8,280.89,79.51a83.83,83.83,0,0,1,35.57-13.76c.17,0,.13-.32,0-.3Z"/><path class="cls-1" d="M255.88,206.62a5.9,5.9,0,0,1-3.26.1,3.47,3.47,0,0,1-1.88-1.42,8,8,0,0,1-1-2.35c-.23-.88-.45-1.76-.66-2.65a15.19,15.19,0,0,1-5.65,5,12.28,12.28,0,0,1-7.19,1.42,9.71,9.71,0,0,1-7-3.26,17.48,17.48,0,0,1-4-7.39,26,26,0,0,1-.76-9.12,20.64,20.64,0,0,1,2.59-8.62,14.73,14.73,0,0,1,6.22-5.86q4-2,10-.71a6.57,6.57,0,0,1,3.78,2.24,14.17,14.17,0,0,1,2.34,4.38c.14.69-.17,1.09-.92,1.23s-1.19-.14-1.32-.82c-1-2.71-2.31-4.35-4.08-4.89a4.88,4.88,0,0,0-4.43.46,9.25,9.25,0,0,0-3.11,3.87,22.83,22.83,0,0,0-1.79,6.07,37.19,37.19,0,0,0-.46,6.88,29.61,29.61,0,0,0,.87,6.42,10.51,10.51,0,0,0,2.29,4.64,4.73,4.73,0,0,0,4.29,1.32,8.93,8.93,0,0,0,4-2.19,18.13,18.13,0,0,0,3.21-3.92,19.31,19.31,0,0,0,1.89-3.77c.13-.82.54-1.23,1.22-1.23a1,1,0,0,1,1.12,1.12c0,.82,0,1.91-.05,3.27a28.49,28.49,0,0,0,.16,3.87,7.83,7.83,0,0,0,.86,3,1.54,1.54,0,0,0,2.09.66,10.47,10.47,0,0,0,4.59-2.6,27.88,27.88,0,0,0,3.87-4.43,54.3,54.3,0,0,0,3.16-5q1.42-2.55,2.55-4.48l1.94.61c-.62,1.43-1.43,3.07-2.45,4.94a44.75,44.75,0,0,1-3.52,5.46,32.79,32.79,0,0,1-4.38,4.79A13.45,13.45,0,0,1,255.88,206.62Z"/><path class="cls-1" d="M293.7,207a25.4,25.4,0,0,1,4.94,6.22,52.39,52.39,0,0,1,4,8.36,58,58,0,0,1,2.6,9.12,39,39,0,0,1,.82,8.41,14.3,14.3,0,0,1-1.38,6.22,4.38,4.38,0,0,1-3.93,2.55,15.07,15.07,0,0,1-10-2.14,23.41,23.41,0,0,1-7.34-7.9,46.41,46.41,0,0,1-4.84-12.13,90.49,90.49,0,0,1-2.44-14.84,114.17,114.17,0,0,1-.21-16.05,120.61,120.61,0,0,1,1.89-15.7,84.35,84.35,0,0,1,3.77-13.76A37.32,37.32,0,0,1,287.18,155a15.59,15.59,0,0,1,6.88-5.25,12,12,0,0,1,7-.56,8.33,8.33,0,0,1,5.1,3.82q1.88,3,1.07,8a54.13,54.13,0,0,1-2.7,10.14q-2,5.46-4.34,10.6a99.58,99.58,0,0,1-4.74,9.23,56.17,56.17,0,0,1-3.92,6,1.14,1.14,0,0,1-.82.31,1.1,1.1,0,0,1-.81-.31.7.7,0,0,1-.41-.66,1,1,0,0,1,.31-.77,30.44,30.44,0,0,0,2.24-3.31q1.32-2.19,2.9-5.1c1.06-1.93,2.11-4,3.17-6.27s2.05-4.51,3-6.83,1.79-4.58,2.5-6.82,1.27-4.32,1.68-6.22c.41-3.54.15-6.07-.76-7.6a3.73,3.73,0,0,0-3.67-2.09,8.78,8.78,0,0,0-4.85,2.45,15.8,15.8,0,0,0-4.07,5.91,60.29,60.29,0,0,0-3.37,10.4A113.77,113.77,0,0,0,286.36,183q-.81,6.89-1.07,14.17t.15,14.27A111.7,111.7,0,0,0,287,224.72a58.65,58.65,0,0,0,3,10.95,21.72,21.72,0,0,0,4.48,7.39,8.32,8.32,0,0,0,6.12,2.71c1.36,0,2.26-1,2.7-2.86a22.45,22.45,0,0,0,.26-7.08,55.43,55.43,0,0,0-1.79-9.23,51.7,51.7,0,0,0-3.56-9.38,32,32,0,0,0-5.1-7.49,10.87,10.87,0,0,0-6.27-3.62,1.27,1.27,0,0,1-1-.66,1.4,1.4,0,0,1-.15-1.12,1.37,1.37,0,0,1,.76-.87,2.82,2.82,0,0,1,1.84,0,46.5,46.5,0,0,0,5,1.23,41.58,41.58,0,0,0,5.45.66,25,25,0,0,0,5.36-.26,13.67,13.67,0,0,0,4.74-1.63,14.3,14.3,0,0,0,3.77-3.06,36.38,36.38,0,0,0,3.21-4.18c1-1.49,1.89-3,2.7-4.43s1.53-2.77,2.14-3.92l1.94.61c-.55,1.29-1.22,2.73-2,4.33a46.37,46.37,0,0,1-2.85,4.79,33.54,33.54,0,0,1-3.68,4.49,20.35,20.35,0,0,1-4.28,3.41,12.36,12.36,0,0,1-3.72,1.63,19.71,19.71,0,0,1-4.07.61,28.53,28.53,0,0,1-4.23-.1A31.75,31.75,0,0,1,293.7,207Z"/><path class="cls-1" d="M344.67,207a25.63,25.63,0,0,1,4.94,6.22,52.39,52.39,0,0,1,4,8.36,58,58,0,0,1,2.6,9.12,38.29,38.29,0,0,1,.81,8.41,14.16,14.16,0,0,1-1.37,6.22,4.38,4.38,0,0,1-3.93,2.55,15.07,15.07,0,0,1-10-2.14,23.41,23.41,0,0,1-7.34-7.9,46.06,46.06,0,0,1-4.84-12.13,90.49,90.49,0,0,1-2.44-14.84,114.17,114.17,0,0,1-.21-16.05,118.91,118.91,0,0,1,1.89-15.7,84.35,84.35,0,0,1,3.77-13.76,37.57,37.57,0,0,1,5.6-10.35,15.62,15.62,0,0,1,6.89-5.25,12,12,0,0,1,7-.56,8.33,8.33,0,0,1,5.1,3.82q1.88,3,1.07,8a54.13,54.13,0,0,1-2.7,10.14q-2,5.46-4.34,10.6a99.58,99.58,0,0,1-4.74,9.23,56.17,56.17,0,0,1-3.92,6,1.14,1.14,0,0,1-.82.31,1.1,1.1,0,0,1-.81-.31.68.68,0,0,1-.41-.66,1,1,0,0,1,.31-.77A30.44,30.44,0,0,0,343,192.3q1.32-2.19,2.9-5.1t3.16-6.27c1.06-2.24,2.06-4.51,3-6.83s1.78-4.58,2.5-6.82,1.27-4.32,1.68-6.22c.41-3.54.15-6.07-.76-7.6a3.74,3.74,0,0,0-3.68-2.09,8.78,8.78,0,0,0-4.84,2.45,15.8,15.8,0,0,0-4.07,5.91,59.44,59.44,0,0,0-3.37,10.4A113.77,113.77,0,0,0,337.33,183q-.81,6.89-1.07,14.17t.15,14.27a111.7,111.7,0,0,0,1.53,13.26,57.89,57.89,0,0,0,3,10.95,21.57,21.57,0,0,0,4.48,7.39,8.32,8.32,0,0,0,6.12,2.71c1.36,0,2.26-1,2.7-2.86a22.45,22.45,0,0,0,.26-7.08,55.43,55.43,0,0,0-1.79-9.23,51.73,51.73,0,0,0-3.57-9.38,31.67,31.67,0,0,0-5.09-7.49,10.87,10.87,0,0,0-6.27-3.62,1.27,1.27,0,0,1-1-.66,1.45,1.45,0,0,1-.16-1.12,1.42,1.42,0,0,1,.77-.87,2.82,2.82,0,0,1,1.84,0,46.5,46.5,0,0,0,5,1.23,41.58,41.58,0,0,0,5.45.66,25,25,0,0,0,5.36-.26,13.67,13.67,0,0,0,4.74-1.63,14.46,14.46,0,0,0,3.77-3.06,36.38,36.38,0,0,0,3.21-4.18q1.47-2.24,2.7-4.43t2.14-3.92l1.94.61q-.82,1.94-2,4.33a44.78,44.78,0,0,1-2.86,4.79,32.71,32.71,0,0,1-3.67,4.49,20.61,20.61,0,0,1-4.28,3.41,12.36,12.36,0,0,1-3.72,1.63,19.71,19.71,0,0,1-4.07.61,28.69,28.69,0,0,1-4.24-.1A31.86,31.86,0,0,1,344.67,207Z"/><path class="cls-1" d="M408.69,206.62a5.93,5.93,0,0,1-3.27.1,3.47,3.47,0,0,1-1.88-1.42,8.23,8.23,0,0,1-1-2.35c-.24-.88-.46-1.76-.66-2.65a15.3,15.3,0,0,1-5.66,5,12.28,12.28,0,0,1-7.19,1.42,9.73,9.73,0,0,1-7-3.26,17.48,17.48,0,0,1-4-7.39,26.25,26.25,0,0,1-.76-9.12,20.65,20.65,0,0,1,2.6-8.62,14.62,14.62,0,0,1,6.22-5.86q4-2,10-.71a6.55,6.55,0,0,1,3.77,2.24,14.17,14.17,0,0,1,2.34,4.38c.14.69-.17,1.09-.91,1.23s-1.19-.14-1.33-.82c-.95-2.71-2.31-4.35-4.08-4.89a4.89,4.89,0,0,0-4.43.46,9.32,9.32,0,0,0-3.11,3.87,22.83,22.83,0,0,0-1.78,6.07,35.54,35.54,0,0,0-.46,6.88,29,29,0,0,0,.86,6.42,10.42,10.42,0,0,0,2.3,4.64,4.71,4.71,0,0,0,4.28,1.32,8.87,8.87,0,0,0,4-2.19,18.17,18.17,0,0,0,3.22-3.92,19.75,19.75,0,0,0,1.88-3.77c.14-.82.54-1.23,1.23-1.23a1,1,0,0,1,1.12,1.12q0,1.23-.06,3.27a28.49,28.49,0,0,0,.16,3.87,7.83,7.83,0,0,0,.86,3,1.54,1.54,0,0,0,2.09.66,10.42,10.42,0,0,0,4.59-2.6,27.88,27.88,0,0,0,3.87-4.43,54.3,54.3,0,0,0,3.16-5q1.44-2.55,2.55-4.48l1.94.61c-.61,1.43-1.43,3.07-2.45,4.94a44.66,44.66,0,0,1-3.51,5.46,33.42,33.42,0,0,1-4.39,4.79A13.42,13.42,0,0,1,408.69,206.62Z"/><path class="cls-1" d="M433.05,186.13q-.41,2.55-.72,5.51a34.32,34.32,0,0,0-.1,5.91c.14-1.49.32-3.06.56-4.69a40.65,40.65,0,0,1,.92-4.53,16.32,16.32,0,0,1,1.43-3.68,5,5,0,0,1,2.09-2.19,4,4,0,0,1,3.31-.35,6.18,6.18,0,0,1,2.65,2,13.45,13.45,0,0,1,2,3.66,47,47,0,0,1,1.42,4.54,62.26,62.26,0,0,1,1.28-6.68,31.51,31.51,0,0,1,2.34-6.47,17.41,17.41,0,0,1,3.67-5,9.41,9.41,0,0,1,5.36-2.45,14,14,0,0,1,8.56,1.27,14.18,14.18,0,0,1,5.35,5.3,24.74,24.74,0,0,1,2.85,7.9,61.66,61.66,0,0,1,1.07,9.13q.21,4.63.06,8.92c-.11,2.85-.19,5.26-.26,7.23a45.57,45.57,0,0,1-.51,5.15c-.27,1.74-.56,3.48-.87,5.25s-.57,3.54-.81,5.3a30.56,30.56,0,0,0-.26,5.2,2,2,0,0,1-.81.1h-5.51q-.3-5.81-.15-11.77t.36-11.77c0-1.16,0-2.67.1-4.54s.07-3.91,0-6.12-.2-4.48-.41-6.82a42,42,0,0,0-1.12-6.73,23.73,23.73,0,0,0-2.19-5.71,10,10,0,0,0-3.52-3.82q-2.85-1.74-4.94-.87a7.43,7.43,0,0,0-3.52,3.31,22.61,22.61,0,0,0-2.29,6q-.87,3.51-1.38,7t-.71,6.42c-.14,2-.21,3.4-.21,4.28v.1a6.16,6.16,0,0,1,.11,1.23c0,.34-.33.61-1,.81a8.09,8.09,0,0,1-2.19.36,8.58,8.58,0,0,1-2.3-.2c-.71-.17-1.1-.43-1.17-.77-.07-.68-.15-1.78-.25-3.31s-.3-3.16-.57-4.9-.59-3.39-1-5a11.59,11.59,0,0,0-1.38-3.62c-.61-.88-1.12-1.14-1.53-.76a5,5,0,0,0-1.07,2.34,32.89,32.89,0,0,0-.76,4.33c-.21,1.7-.36,3.4-.46,5.1s-.19,3.3-.26,4.79-.1,2.58-.1,3.26v.11c.14.13.14.3,0,.5v.11a1.11,1.11,0,0,1-.81,1,1.19,1.19,0,0,1-1.23-.31,17.63,17.63,0,0,1-3,.36c-1,0-1.67-.12-1.94-.46a16.21,16.21,0,0,1-1.89-4.84,31,31,0,0,1-.66-5.25,34.76,34.76,0,0,1,.2-5.3c.21-1.77.41-3.47.62-5.1.06-.34.51-.59,1.32-.76a11.5,11.5,0,0,1,5.1.15Q433.16,185.62,433.05,186.13Z"/><path class="cls-1" d="M522.45,206.62a5.93,5.93,0,0,1-3.27.1,3.47,3.47,0,0,1-1.88-1.42,8.23,8.23,0,0,1-1-2.35c-.24-.88-.46-1.76-.66-2.65a15.3,15.3,0,0,1-5.66,5,12.28,12.28,0,0,1-7.19,1.42,9.73,9.73,0,0,1-7-3.26,17.48,17.48,0,0,1-4-7.39,26.25,26.25,0,0,1-.76-9.12,20.65,20.65,0,0,1,2.6-8.62,14.62,14.62,0,0,1,6.22-5.86q4-2,10-.71a6.55,6.55,0,0,1,3.77,2.24,14.17,14.17,0,0,1,2.34,4.38c.14.69-.17,1.09-.91,1.23s-1.19-.14-1.33-.82c-.95-2.71-2.31-4.35-4.08-4.89a4.89,4.89,0,0,0-4.43.46,9.32,9.32,0,0,0-3.11,3.87,22.83,22.83,0,0,0-1.78,6.07,35.54,35.54,0,0,0-.46,6.88,29,29,0,0,0,.86,6.42,10.42,10.42,0,0,0,2.3,4.64,4.71,4.71,0,0,0,4.28,1.32,8.87,8.87,0,0,0,4-2.19,18.17,18.17,0,0,0,3.22-3.92,19.75,19.75,0,0,0,1.88-3.77c.14-.82.54-1.23,1.23-1.23a1,1,0,0,1,1.12,1.12c0,.82,0,1.91,0,3.27a27,27,0,0,0,.15,3.87,7.83,7.83,0,0,0,.86,3,1.54,1.54,0,0,0,2.09.66,10.42,10.42,0,0,0,4.59-2.6,27.88,27.88,0,0,0,3.87-4.43,54.3,54.3,0,0,0,3.16-5q1.44-2.55,2.55-4.48l1.94.61c-.61,1.43-1.43,3.07-2.45,4.94a44.66,44.66,0,0,1-3.51,5.46,33.42,33.42,0,0,1-4.39,4.79A13.42,13.42,0,0,1,522.45,206.62Z"/><path class="cls-1" d="M543.55,135.57l10.6,2.14q-.51,2.35-.92,5.41t-.82,6.62a25.72,25.72,0,0,0,4.79.77,20.34,20.34,0,0,0,5.1-.36,23.3,23.3,0,0,0,5.56-1.89,36,36,0,0,0,6.27-3.92,2.6,2.6,0,0,1,.86-.26.9.9,0,0,1,.77.26,1.43,1.43,0,0,1,.3.86.7.7,0,0,1-.4.67,36.7,36.7,0,0,1-6.73,4.38,24.62,24.62,0,0,1-6.07,2.09,22.7,22.7,0,0,1-5.55.41,29.12,29.12,0,0,1-5.2-.77q-.61,6-1.12,12.75t-.77,13.15q-.26,6.42-.05,12a48.25,48.25,0,0,0,1.12,9.37c.68,3,1.72,4.63,3.11,4.9a8.71,8.71,0,0,0,5.25-1.13,20.6,20.6,0,0,0,4.64-3.36,31.25,31.25,0,0,0,3.52-4q1.53-2.08,2.7-4.07c.78-1.33,1.48-2.5,2.09-3.52l1.94.71a38.18,38.18,0,0,1-2.25,4.18,47.84,47.84,0,0,1-3.26,4.69,37.19,37.19,0,0,1-4,4.39,23.89,23.89,0,0,1-4.53,3.36,9.91,9.91,0,0,1-7.8,1.32,10.64,10.64,0,0,1-6.17-4.38,29.43,29.43,0,0,1-3.77-10.3,96.18,96.18,0,0,1-1.58-13.66q-.36-7.33,0-15t1-14.42q-2.45-.62-5-1a27.22,27.22,0,0,0-11.36.61,33.8,33.8,0,0,0-6.58,2.55,1.17,1.17,0,0,1-1.63-.41,1,1,0,0,1-.1-.77,1,1,0,0,1,.51-.66,35,35,0,0,1,7.13-2.8,29.7,29.7,0,0,1,6.38-1,30.19,30.19,0,0,1,5.7.31,38.4,38.4,0,0,1,5.15,1.12q.31-3.27.67-6.12C543.22,138.87,543.41,137.14,543.55,135.57Z"/><path class="cls-1" d="M609.19,195.51a32.64,32.64,0,0,0,2.45-4.08c.68-1.35,1.32-2.55,1.94-3.56l1.93.61c-.54,1.15-1.19,2.48-1.93,4a51.13,51.13,0,0,1-2.55,4.49,7.15,7.15,0,0,1-3.72,2.6,37.5,37.5,0,0,1-4.13.86,9.87,9.87,0,0,1-3.11,4.08,11.84,11.84,0,0,1-4.64,2.24,12.81,12.81,0,0,1-5.2.16,10.71,10.71,0,0,1-4.89-2.25,12.55,12.55,0,0,1-3.62-4.89,19.26,19.26,0,0,1-1.37-7.8,17.61,17.61,0,0,1-3-6.93,12.13,12.13,0,0,1,.46-6.57,10,10,0,0,1,4.07-4.95,14.55,14.55,0,0,1,7.75-2,11,11,0,0,1,7.75,2.7,19.47,19.47,0,0,1,4.94,6.94,28.06,28.06,0,0,1,2.19,8.76A23.54,23.54,0,0,1,604,198a17.94,17.94,0,0,0,3-.61A4.18,4.18,0,0,0,609.19,195.51ZM588.6,181.14c0,.54,0,1.32-.1,2.34s-.14,2.14-.2,3.37-.14,2.41-.21,3.56-.1,2.15-.1,3c1.22,1,2.31,1.87,3.26,2.55a14.58,14.58,0,0,0,2.91,1.63,12,12,0,0,0,3.16.82,26.61,26.61,0,0,0,4.13.1,21.53,21.53,0,0,0,.81-7,25.49,25.49,0,0,0-1.53-8.1,18.54,18.54,0,0,0-4.23-6.78,10,10,0,0,0-7.18-3q-6.95.93-9.08,4.79t.31,9.59L581,181c0-.34.4-.6,1.22-.77a10.77,10.77,0,0,1,2.65-.2,14.4,14.4,0,0,1,2.6.3C588.21,180.54,588.6,180.8,588.6,181.14ZM588,196.53a12.69,12.69,0,0,0,1.53,6,5.27,5.27,0,0,0,3.21,2.6,5.44,5.44,0,0,0,3.93-.61,10.62,10.62,0,0,0,3.77-3.72c-1.43-.13-2.67-.27-3.72-.41a13.81,13.81,0,0,1-2.91-.66,16.75,16.75,0,0,1-2.7-1.22A34.32,34.32,0,0,1,588,196.53Z"/></g></svg>
