<svg xmlns="http://www.w3.org/2000/svg" width="211.56mm" height="93.09mm" viewBox="0 0 599.7 263.87"><defs><style>.cls-1{fill:#1d1d1b;}</style></defs><title>Tegnebræt 4</title><g id="Lag_4" data-name="Lag 4"><path class="cls-1" d="M118.45,76.67c16.63-2.39,32.28-11.25,48.61-15.32,18.62-4.64,35.88-4.7,54.79-2.56,2.19.25,2.53-3.18.51-3.75-17.43-4.94-36.54-2.49-53.83,1.86A328.82,328.82,0,0,0,117.6,74.65c-1.25.55-.26,2.18.85,2Z"/><path class="cls-1" d="M73.87,124.83c-3.34-9.12,2.32-20.64,2.69-30.17.28-7.21-.62-15.85-5.76-21.31-1.2-1.27-3.62,0-3,1.76,1.76,5,3.85,9.44,4.23,14.88a74,74,0,0,1-1.13,15.79c-.93,6.3-3.87,14.57.38,20.15.89,1.16,3.23.57,2.61-1.1Z"/><path class="cls-1" d="M61.27,188.46c-5-3.37-4.57-10.47-4.83-15.77-.28-5.91-.56-11.82-.91-17.73-.61-10.58-1.54-21.2-1.53-31.8,0-9.69.88-19.59,4.57-28.64,3.75-9.24,11.92-14.76,16.31-23.41,2.28-4.51,3.56-9.24,6.79-13.26a40.91,40.91,0,0,1,12.19-9.79c9.67-5.42,20.71-8.79,31.51-11.11,21.93-4.71,46-4.53,67.53,2.24,11.32,3.56,19.08,10.14,26.59,19,5.86,6.92,12,13.84,21.1,16.18,3.77,1,5.2-4.52,1.59-5.77C231.72,65,225.94,55.72,218.68,48S202.4,35.6,192.32,32.71c-22.85-6.54-47.92-6.41-71-1-11.11,2.59-22.6,6.27-32.45,12.18C79.54,49.46,74.61,56.5,70.2,66.22s-13.57,16-17.7,26.19c-3.79,9.38-4.93,19.62-5,29.67-.12,13.7,1.49,27.44,2.79,41.06.83,8.72-.55,24,9.18,28.44a1.81,1.81,0,0,0,1.82-3.12Z"/><path class="cls-1" d="M241.39,71.07c-17.88,1-33.7,11.07-43.68,25.89-6.07,9-9.42,19.54-14.9,28.89A99.73,99.73,0,0,1,165,148c-14.52,13.69-32.69,23.25-51.78,28.8-19.9,5.79-42,3.85-61,12.74-17.07,8-31,25.09-32.6,44.17-.25,3,4.17,3.31,5,.68,5.8-17.78,16.73-33.42,35-40,10.68-3.83,22.24-4.2,33.38-5.72a150.26,150.26,0,0,0,25.14-5.63c33.42-10.64,61.53-32.66,76.37-64.74,4.77-10.3,9.45-20.46,17.85-28.37,8.08-7.61,18.77-12.86,29.38-15.93,1.62-.47,1.38-3.12-.4-3Z"/><path class="cls-1" d="M61,188.77c-7.18-3.67-1.53-19.41-.06-25.2A149.26,149.26,0,0,1,99.12,95.23c12-12.59,25.56-23.71,39.23-34.44a154.47,154.47,0,0,1,22.39-15.16c8.2-4.37,16.32-5.56,25-8.18,2.82-.85,2-4.58-.66-4.87-9.18-1-19.39,3.68-27.35,7.88-8.44,4.46-16.14,10.18-23.65,16C116.91,69.94,99.76,84,85.84,100.84a148.17,148.17,0,0,0-27.9,52.32c-2.28,7.75-12.14,36.69,2.26,38.52,1.55.2,2.1-2.24.79-2.91Z"/><path class="cls-1" d="M63,152.41c8.92,5.22,20.16,8,30.09,10.65a118.25,118.25,0,0,0,29.36,4.47c17.71.16,35.34-5.68,47.76-18.62,2.05-2.14-1.06-5.21-3.24-3.24-13.54,12.21-30.13,17.76-48.3,16.92a125.85,125.85,0,0,1-26.81-4.69c-9.23-2.5-18.22-6.65-27.51-8.69a1.76,1.76,0,0,0-1.35,3.2Z"/><path class="cls-1" d="M73.78,127.13c6.56,7.23,16.09,8.37,25.42,7.93,12.26-.59,24.83-2.47,36.35-6.81,10.52-4,19.84-10.15,29.44-15.9,10.64-6.38,20.76-10.72,33.14-12.13a2.78,2.78,0,0,0,0-5.55c-19.88-2.08-37.55,13.81-53.87,22.63-11.13,6-23.24,9.25-35.75,10.82-10.84,1.37-23.13,2.74-32.73-3.57-1.62-1.06-3.21,1.25-2,2.58Z"/><path class="cls-1" d="M104.19,86c.65,6.5,13.24,7.79,18.29,8.22,11.64,1,23.06-2.43,34-5.92,12.16-3.88,24.33-7.3,37-9.22a187.49,187.49,0,0,1,21-2c6.13-.23,12.55.59,18.55-.68,2-.43,1.73-3.23,0-3.8-10.15-3.29-23.51-1.17-33.95,0a191.77,191.77,0,0,0-33.47,6.81c-11.36,3.41-22.57,8.11-34.47,9.25a51.24,51.24,0,0,1-16.48-.83c-3.41-.79-7-3.39-10.36-2-.06,0-.13.08-.12.15Z"/><path class="cls-1" d="M96.88,89.2c2.37-7.16,2-16,1.58-23.48-.35-7.18-2.58-14.9-7-20.65-1.09-1.41-3.67-.7-3.1,1.31,2.27,8,5.63,14.16,5.9,22.77.21,6.65-.47,13.66,1.64,20a.52.52,0,0,0,1,0Z"/><path class="cls-1" d="M121.53,68.62c2.22-5.54,2.46-12.4,3.28-18.31.74-5.34,1.62-10.75.53-16.07-.47-2.28-3.54-1.47-3.76.51-.65,5.78-.42,11.68-1,17.51-.52,5.25-1.85,10.84-1.21,16.07a1.11,1.11,0,0,0,2.17.29Z"/><path class="cls-1" d="M71.39,203.06c-6.2-3.22-6.28-10.47-6.75-16.58q-.77-9.87-1.53-19.75c-.78-10-1.81-20.09-1.64-30.16.19-10.73,1.85-21.73,7.39-31.09,2.69-4.55,6.33-8.07,10-11.8,3.5-3.56,5.46-7.21,7.57-11.73C95.87,61.66,123.82,55.37,144,52.2c22.19-3.48,48.79-4.07,70.27,3.37,10.68,3.7,18.67,10.87,26.53,18.7,6.41,6.38,12.95,12.4,21.89,14.78a.3.3,0,0,0,.16-.57C251.33,85.31,244,76.25,235.69,68.41c-6.42-6-13.76-11-22.22-13.73C191,47.52,164.3,48.08,141.36,52c-19,3.28-45.6,9.56-55,28.59-2.87,5.78-5.55,10.23-10.18,14.81a47.38,47.38,0,0,0-9.3,12.39c-4.33,8.54-5.76,18.25-6,27.72-.36,13.47,1.32,27,2.42,40.42.67,8.27-1.07,22.92,7.95,27.43.2.1.38-.21.18-.32Z"/><path class="cls-1" d="M262.67,88.48c-17.88,2.63-34.53,12.08-44.58,27.35-5.84,8.88-9.51,19-15.38,27.85a103.48,103.48,0,0,1-19.34,21.59c-16,13.55-35.37,22.75-55.5,28.13-20.29,5.42-42.7,3.55-62.22,11.52-17.28,7.06-31,22.17-34.76,40.59-.07.32.42.46.49.13,4.6-19.95,20.05-35.8,39.53-41.8,19.16-5.9,39.82-4.83,59.22-10.29,33.41-9.41,63.63-29.39,79.66-60.84,5.48-10.76,10.69-21.19,20.09-29.14a68.26,68.26,0,0,1,32.88-14.79c.19,0,.11-.32-.09-.3Z"/><path class="cls-1" d="M63,181.25c-7-3.29-7.34-10.83-7.91-17.59q-.89-10.56-1.78-21.11c-1-11.34-2.26-22.75-1.94-34.16.32-11.23,2.4-22.76,8.58-32.35,3.46-5.37,8.07-9.23,12.61-13.61,3.84-3.71,5.87-7.68,8.28-12.4,6-11.66,17.9-17.87,29.71-22.26a189.14,189.14,0,0,1,36.27-9.28c26.18-4.17,54-3.79,79.75,2.68,14.05,3.53,24.92,10,35.15,20.11,7.49,7.4,14.85,14.38,25.36,16.95a.29.29,0,0,0,.15-.57c-13.16-3.32-21-13.52-30.66-22.16C248,27.82,237.79,23.36,226.7,20.59c-26.32-6.57-54.61-6.91-81.29-2.49a178.84,178.84,0,0,0-39.22,10.71c-9.38,3.88-19,9.29-24.47,18.2-4,6.45-6.5,12.06-12.24,17.35-4.31,4-8.2,8-11.17,13.08-5.1,8.75-7.06,18.91-7.54,28.92-.73,15.12,1.4,30.39,2.73,45.42.81,9.19-1,25.15,9.29,29.78.21.1.4-.21.18-.31Z"/><path class="cls-1" d="M287.12,57.65c-19.46,2.59-38.44,11.65-50.66,27.4-7.55,9.74-12,21.44-19.11,31.49a114.62,114.62,0,0,1-23.25,24c-18.36,14.35-40.22,23.92-62.7,29.72a247,247,0,0,1-38,6.25c-12.29,1.17-24.81,2.23-36.5,6.52-19.63,7.21-36.6,23.14-41.27,44-.07.32.42.46.49.14,5.38-21.95,23.75-38.28,45-44.73C74,178.5,87.62,178,101,176.52A216.32,216.32,0,0,0,131.6,171c38.9-10.05,74.65-31.33,94.32-67.23C232.74,91.32,239.77,80,251.6,71.71A83.78,83.78,0,0,1,287.17,58c.16,0,.13-.32-.05-.3Z"/><path class="cls-1" d="M226.59,198.82a5.93,5.93,0,0,1-3.27.1,3.47,3.47,0,0,1-1.88-1.42,8.23,8.23,0,0,1-1-2.35c-.24-.88-.46-1.76-.66-2.65a15.3,15.3,0,0,1-5.66,5,12.28,12.28,0,0,1-7.19,1.42,9.73,9.73,0,0,1-7-3.26,17.48,17.48,0,0,1-4-7.39,26.25,26.25,0,0,1-.76-9.12,20.6,20.6,0,0,1,2.6-8.62,14.62,14.62,0,0,1,6.22-5.86q4-2,10-.71a6.55,6.55,0,0,1,3.77,2.24,14.17,14.17,0,0,1,2.34,4.38c.14.68-.17,1.09-.91,1.23s-1.19-.14-1.33-.82q-1.42-4.08-4.08-4.89a4.89,4.89,0,0,0-4.43.46,9.32,9.32,0,0,0-3.11,3.87,22.83,22.83,0,0,0-1.78,6.07,35.54,35.54,0,0,0-.46,6.88,29,29,0,0,0,.86,6.42,10.42,10.42,0,0,0,2.3,4.64,4.73,4.73,0,0,0,4.28,1.32,8.87,8.87,0,0,0,4-2.19,18.17,18.17,0,0,0,3.22-3.92,19.51,19.51,0,0,0,1.88-3.78c.14-.81.54-1.22,1.23-1.22a1,1,0,0,1,1.12,1.12q0,1.23-.06,3.27a28.49,28.49,0,0,0,.16,3.87,7.83,7.83,0,0,0,.86,3,1.54,1.54,0,0,0,2.09.66,10.51,10.51,0,0,0,4.59-2.6,27.88,27.88,0,0,0,3.87-4.43,55.68,55.68,0,0,0,3.16-5l2.55-4.49,1.94.62q-.92,2.13-2.45,4.94a44.66,44.66,0,0,1-3.51,5.46,33.42,33.42,0,0,1-4.39,4.79A13.42,13.42,0,0,1,226.59,198.82Z"/><path class="cls-1" d="M264.4,199.23a25.66,25.66,0,0,1,5,6.22,52,52,0,0,1,4,8.36,58,58,0,0,1,2.6,9.12,39,39,0,0,1,.82,8.41,14.3,14.3,0,0,1-1.38,6.22,4.38,4.38,0,0,1-3.92,2.55,15,15,0,0,1-10-2.14,23.31,23.31,0,0,1-7.34-7.9,45.66,45.66,0,0,1-4.84-12.14,90.36,90.36,0,0,1-2.45-14.83,114.19,114.19,0,0,1-.2-16,118.93,118.93,0,0,1,1.88-15.7,84.35,84.35,0,0,1,3.77-13.76,37.58,37.58,0,0,1,5.61-10.35,15.59,15.59,0,0,1,6.88-5.25,11.88,11.88,0,0,1,7-.56,8.33,8.33,0,0,1,5.1,3.82c1.26,2,1.61,4.68,1.07,8a54.13,54.13,0,0,1-2.7,10.14q-2,5.46-4.33,10.6t-4.74,9.23a57.52,57.52,0,0,1-3.93,6,1.1,1.1,0,0,1-.81.31,1.14,1.14,0,0,1-.82-.31.7.7,0,0,1-.41-.66,1.07,1.07,0,0,1,.31-.77,29,29,0,0,0,2.24-3.31q1.32-2.19,2.91-5.1t3.16-6.27c1.05-2.24,2.05-4.51,3-6.83s1.79-4.58,2.5-6.83a62.57,62.57,0,0,0,1.68-6.21q.62-5.31-.76-7.6a3.73,3.73,0,0,0-3.67-2.09,8.75,8.75,0,0,0-4.84,2.45,15.74,15.74,0,0,0-4.08,5.91,60.33,60.33,0,0,0-3.36,10.4,113.71,113.71,0,0,0-2.25,12.89q-.81,6.89-1.07,14.17t.16,14.27a111.7,111.7,0,0,0,1.53,13.26,57.93,57.93,0,0,0,2.95,11,21.73,21.73,0,0,0,4.49,7.39,8.32,8.32,0,0,0,6.11,2.71c1.36,0,2.26-1,2.7-2.86a22.45,22.45,0,0,0,.26-7.08,55.34,55.34,0,0,0-1.78-9.23,51.73,51.73,0,0,0-3.57-9.38,31.4,31.4,0,0,0-5.1-7.49,10.87,10.87,0,0,0-6.27-3.62,1.3,1.3,0,0,1-1-.66,1.49,1.49,0,0,1-.15-1.12,1.4,1.4,0,0,1,.76-.87,2.82,2.82,0,0,1,1.84,0,46.5,46.5,0,0,0,5,1.23,41.53,41.53,0,0,0,5.46.66,25,25,0,0,0,5.35-.26,13.67,13.67,0,0,0,4.74-1.63,14.34,14.34,0,0,0,3.77-3.06,34.26,34.26,0,0,0,3.21-4.18q1.48-2.23,2.7-4.43t2.14-3.93l1.94.62q-.81,1.94-2,4.33a44.66,44.66,0,0,1-2.85,4.79,33.46,33.46,0,0,1-3.67,4.49,20.87,20.87,0,0,1-4.28,3.41,12.59,12.59,0,0,1-3.72,1.63,19.9,19.9,0,0,1-4.08.61,28.59,28.59,0,0,1-4.23-.1A34,34,0,0,1,264.4,199.23Z"/><path class="cls-1" d="M315.37,199.23a25.66,25.66,0,0,1,4.95,6.22,52.81,52.81,0,0,1,4,8.36,58,58,0,0,1,2.6,9.12,39,39,0,0,1,.82,8.41,14.3,14.3,0,0,1-1.38,6.22,4.38,4.38,0,0,1-3.92,2.55,15,15,0,0,1-10-2.14,23.31,23.31,0,0,1-7.34-7.9,46,46,0,0,1-4.85-12.14,90.37,90.37,0,0,1-2.44-14.83,115.7,115.7,0,0,1-.21-16,120.61,120.61,0,0,1,1.89-15.7,84.35,84.35,0,0,1,3.77-13.76,37.32,37.32,0,0,1,5.61-10.35,15.59,15.59,0,0,1,6.88-5.25,11.88,11.88,0,0,1,7-.56,8.33,8.33,0,0,1,5.1,3.82c1.26,2,1.61,4.68,1.07,8a54.13,54.13,0,0,1-2.7,10.14q-2,5.46-4.33,10.6t-4.74,9.23a57.52,57.52,0,0,1-3.93,6,1.23,1.23,0,0,1-1.63,0,.7.7,0,0,1-.41-.66,1,1,0,0,1,.31-.77,29,29,0,0,0,2.24-3.31q1.32-2.19,2.91-5.1t3.16-6.27c1.05-2.24,2.05-4.51,3-6.83s1.79-4.58,2.5-6.83,1.28-4.31,1.68-6.21q.61-5.31-.76-7.6a3.73,3.73,0,0,0-3.67-2.09,8.72,8.72,0,0,0-4.84,2.45,15.74,15.74,0,0,0-4.08,5.91,60.33,60.33,0,0,0-3.36,10.4A113.71,113.71,0,0,0,308,175.22q-.81,6.89-1.07,14.17t.16,14.27a111.75,111.75,0,0,0,1.52,13.26,58.65,58.65,0,0,0,3,11,21.58,21.58,0,0,0,4.49,7.39A8.32,8.32,0,0,0,322.2,238c1.36,0,2.26-1,2.7-2.86a22.45,22.45,0,0,0,.26-7.08,54.43,54.43,0,0,0-1.79-9.23,51,51,0,0,0-3.56-9.38,31.69,31.69,0,0,0-5.1-7.49,10.87,10.87,0,0,0-6.27-3.62,1.27,1.27,0,0,1-1-.66,1.49,1.49,0,0,1-.15-1.12,1.37,1.37,0,0,1,.76-.87,2.82,2.82,0,0,1,1.84,0,46.5,46.5,0,0,0,5,1.23,41.53,41.53,0,0,0,5.46.66,25,25,0,0,0,5.35-.26,13.67,13.67,0,0,0,4.74-1.63,14.5,14.5,0,0,0,3.77-3.06,35.29,35.29,0,0,0,3.21-4.18q1.49-2.23,2.7-4.43t2.14-3.93l1.94.62c-.55,1.29-1.22,2.73-2,4.33a44.66,44.66,0,0,1-2.85,4.79,33.46,33.46,0,0,1-3.67,4.49,20.87,20.87,0,0,1-4.28,3.41,12.53,12.53,0,0,1-3.73,1.63,19.71,19.71,0,0,1-4.07.61,28.59,28.59,0,0,1-4.23-.1A34,34,0,0,1,315.37,199.23Z"/><path class="cls-1" d="M379.39,198.82a5.9,5.9,0,0,1-3.26.1,3.45,3.45,0,0,1-1.89-1.42,8.23,8.23,0,0,1-1-2.35c-.24-.88-.46-1.76-.66-2.65a15.22,15.22,0,0,1-5.66,5,12.27,12.27,0,0,1-7.19,1.42,9.75,9.75,0,0,1-7-3.26,17.47,17.47,0,0,1-4-7.39,26.25,26.25,0,0,1-.77-9.12,20.6,20.6,0,0,1,2.6-8.62,14.62,14.62,0,0,1,6.22-5.86q4-2,10-.71a6.55,6.55,0,0,1,3.77,2.24,14.19,14.19,0,0,1,2.35,4.38c.13.68-.17,1.09-.92,1.23s-1.19-.14-1.33-.82q-1.43-4.08-4.07-4.89a4.91,4.91,0,0,0-4.44.46,9.32,9.32,0,0,0-3.11,3.87,22.83,22.83,0,0,0-1.78,6.07,36.35,36.35,0,0,0-.46,6.88,29.61,29.61,0,0,0,.87,6.42,10.41,10.41,0,0,0,2.29,4.64,4.74,4.74,0,0,0,4.28,1.32,9,9,0,0,0,4-2.19,18.43,18.43,0,0,0,3.21-3.92,18.94,18.94,0,0,0,1.88-3.78c.14-.81.55-1.22,1.23-1.22a1,1,0,0,1,1.12,1.12c0,.82,0,1.91-.05,3.27a27,27,0,0,0,.15,3.87,8,8,0,0,0,.87,3,1.54,1.54,0,0,0,2.09.66,10.48,10.48,0,0,0,4.58-2.6,28.45,28.45,0,0,0,3.88-4.43,58,58,0,0,0,3.16-5c1-1.7,1.8-3.19,2.55-4.49l1.93.62q-.92,2.13-2.44,4.94a44.75,44.75,0,0,1-3.52,5.46,33.36,33.36,0,0,1-4.38,4.79A13.53,13.53,0,0,1,379.39,198.82Z"/><path class="cls-1" d="M403.75,178.33q-.4,2.55-.71,5.51a33.34,33.34,0,0,0-.1,5.91c.13-1.49.32-3.06.56-4.69a39.16,39.16,0,0,1,.91-4.54,16.91,16.91,0,0,1,1.43-3.67,5.05,5.05,0,0,1,2.09-2.19,4,4,0,0,1,3.31-.35,6.12,6.12,0,0,1,2.65,2,13.19,13.19,0,0,1,2,3.66c.54,1.47,1,3,1.43,4.54a59.75,59.75,0,0,1,1.27-6.68,31,31,0,0,1,2.35-6.47,17,17,0,0,1,3.67-5A9.38,9.38,0,0,1,430,164a14,14,0,0,1,8.56,1.27,14.1,14.1,0,0,1,5.35,5.3,25,25,0,0,1,2.86,7.9,64.46,64.46,0,0,1,1.07,9.13q.19,4.63,0,8.92t-.26,7.23a45.57,45.57,0,0,1-.51,5.15c-.27,1.74-.56,3.48-.86,5.25s-.58,3.54-.82,5.3a29.55,29.55,0,0,0-.25,5.2,2.12,2.12,0,0,1-.82.1h-5.5q-.31-5.81-.16-11.77c.11-4,.22-7.9.36-11.77,0-1.16,0-2.67.1-4.54s.07-3.91,0-6.12-.2-4.48-.41-6.83a41,41,0,0,0-1.12-6.72,23.73,23.73,0,0,0-2.19-5.71,10.1,10.1,0,0,0-3.51-3.82q-2.86-1.74-4.95-.87a7.52,7.52,0,0,0-3.52,3.31,22.61,22.61,0,0,0-2.29,6,70.45,70.45,0,0,0-1.37,7c-.35,2.31-.58,4.45-.72,6.42s-.2,3.4-.2,4.28v.1a7.1,7.1,0,0,1,.1,1.23c0,.34-.32.61-1,.81a8.09,8.09,0,0,1-2.19.36,8.47,8.47,0,0,1-2.29-.2c-.72-.17-1.11-.43-1.18-.77-.06-.68-.15-1.78-.25-3.31s-.29-3.16-.56-4.9-.6-3.39-1-5a11.35,11.35,0,0,0-1.38-3.62c-.61-.88-1.12-1.14-1.53-.76a5.08,5.08,0,0,0-1.07,2.34,34.64,34.64,0,0,0-.76,4.33c-.21,1.7-.36,3.4-.46,5.1s-.19,3.3-.25,4.79-.11,2.58-.11,3.26v.11c.14.13.14.3,0,.5V198a1.1,1.1,0,0,1-.81,1,1.16,1.16,0,0,1-1.22-.31,17.88,17.88,0,0,1-3,.36c-1,0-1.67-.12-1.94-.46a16.19,16.19,0,0,1-1.88-4.84,30.17,30.17,0,0,1-.67-5.25,34.76,34.76,0,0,1,.21-5.3c.2-1.77.41-3.47.61-5.1.07-.34.51-.6,1.32-.77a11,11,0,0,1,2.6-.2,10.53,10.53,0,0,1,2.5.36Q403.86,177.82,403.75,178.33Z"/><path class="cls-1" d="M493.15,198.82a5.9,5.9,0,0,1-3.26.1A3.45,3.45,0,0,1,488,197.5a8.23,8.23,0,0,1-1-2.35c-.24-.88-.46-1.76-.66-2.65a15.22,15.22,0,0,1-5.66,5,12.27,12.27,0,0,1-7.19,1.42,9.75,9.75,0,0,1-7-3.26,17.47,17.47,0,0,1-4-7.39,26.25,26.25,0,0,1-.77-9.12,20.6,20.6,0,0,1,2.6-8.62,14.62,14.62,0,0,1,6.22-5.86q4-2,10-.71a6.55,6.55,0,0,1,3.77,2.24,14.19,14.19,0,0,1,2.35,4.38c.13.68-.17,1.09-.92,1.23s-1.19-.14-1.33-.82q-1.43-4.08-4.07-4.89a4.91,4.91,0,0,0-4.44.46,9.32,9.32,0,0,0-3.11,3.87,22.83,22.83,0,0,0-1.78,6.07,36.35,36.35,0,0,0-.46,6.88,29.61,29.61,0,0,0,.87,6.42,10.41,10.41,0,0,0,2.29,4.64,4.75,4.75,0,0,0,4.28,1.32,9,9,0,0,0,4-2.19,18.43,18.43,0,0,0,3.21-3.92,18.94,18.94,0,0,0,1.88-3.78c.14-.81.55-1.22,1.23-1.22a1,1,0,0,1,1.12,1.12c0,.82,0,1.91-.05,3.27a27,27,0,0,0,.15,3.87,8,8,0,0,0,.87,3,1.54,1.54,0,0,0,2.09.66,10.48,10.48,0,0,0,4.58-2.6,28.45,28.45,0,0,0,3.88-4.43,58,58,0,0,0,3.16-5c.95-1.7,1.8-3.19,2.55-4.49l1.93.62q-.92,2.13-2.44,4.94a44.75,44.75,0,0,1-3.52,5.46,33.36,33.36,0,0,1-4.38,4.79A13.53,13.53,0,0,1,493.15,198.82Z"/><path class="cls-1" d="M514.25,127.77l10.6,2.14q-.51,2.35-.92,5.41t-.81,6.62a25.59,25.59,0,0,0,4.79.77,20.27,20.27,0,0,0,5.09-.36,23.3,23.3,0,0,0,5.56-1.89,35.61,35.61,0,0,0,6.27-3.92,2.58,2.58,0,0,1,.87-.26.88.88,0,0,1,.76.26,1.44,1.44,0,0,1,.31.86.7.7,0,0,1-.41.67,36.36,36.36,0,0,1-6.73,4.38,24.7,24.7,0,0,1-6.06,2.09A22.78,22.78,0,0,1,528,145a29.12,29.12,0,0,1-5.2-.77q-.62,6-1.12,12.75t-.76,13.15c-.18,4.28-.19,8.29-.06,12a47.42,47.42,0,0,0,1.13,9.38q1,4.49,3.1,4.89a8.64,8.64,0,0,0,5.26-1.12,20.54,20.54,0,0,0,4.63-3.36,31.25,31.25,0,0,0,3.52-4q1.53-2.09,2.7-4.07c.78-1.33,1.48-2.5,2.09-3.52l1.94.71a37.93,37.93,0,0,1-2.24,4.18,48,48,0,0,1-3.27,4.69,37.1,37.1,0,0,1-4,4.39,24.72,24.72,0,0,1-4.54,3.36,9.91,9.91,0,0,1-7.8,1.32,10.62,10.62,0,0,1-6.16-4.38,29.42,29.42,0,0,1-3.78-10.3,97.66,97.66,0,0,1-1.58-13.66q-.36-7.34,0-15t1-14.42c-1.63-.41-3.3-.75-5-1a27.13,27.13,0,0,0-5.41-.31,27.7,27.7,0,0,0-6,.92,33.72,33.72,0,0,0-6.57,2.55,1.16,1.16,0,0,1-1.63-.41,1,1,0,0,1-.11-.77,1,1,0,0,1,.51-.66,34.88,34.88,0,0,1,7.14-2.8,29.52,29.52,0,0,1,6.37-1,30.3,30.3,0,0,1,5.71.31,38.25,38.25,0,0,1,5.14,1.12q.32-3.27.67-6.12C513.93,131.07,514.11,129.34,514.25,127.77Z"/><path class="cls-1" d="M579.9,187.71a32.54,32.54,0,0,0,2.44-4.08c.68-1.36,1.33-2.55,1.94-3.57l1.94.62c-.55,1.15-1.19,2.48-1.94,4a51.13,51.13,0,0,1-2.55,4.49,7.21,7.21,0,0,1-3.72,2.6,37,37,0,0,1-4.13.86,9.85,9.85,0,0,1-3.11,4.08,11.84,11.84,0,0,1-4.64,2.24,12.76,12.76,0,0,1-5.19.16,10.79,10.79,0,0,1-4.9-2.25,12.65,12.65,0,0,1-3.62-4.89,19.43,19.43,0,0,1-1.37-7.8,17.61,17.61,0,0,1-3-6.93,12.13,12.13,0,0,1,.46-6.57,10,10,0,0,1,4.08-4.95,14.52,14.52,0,0,1,7.74-2,11,11,0,0,1,7.75,2.7,19.37,19.37,0,0,1,4.95,6.94,28.62,28.62,0,0,1,2.19,8.76,23.79,23.79,0,0,1-.51,8.11,18,18,0,0,0,2.95-.61A4.2,4.2,0,0,0,579.9,187.71Zm-20.59-14.37c0,.54,0,1.32-.11,2.34s-.13,2.14-.2,3.37-.14,2.41-.2,3.56-.11,2.14-.11,3c1.23,1,2.31,1.87,3.27,2.55a14.51,14.51,0,0,0,2.9,1.63,11.65,11.65,0,0,0,3.16.81,26.47,26.47,0,0,0,4.13.11,21.53,21.53,0,0,0,.81-7,25.21,25.21,0,0,0-1.52-8.1,18.7,18.7,0,0,0-4.24-6.78,10,10,0,0,0-7.18-3q-6.93.93-9.07,4.79t.3,9.59l.41-6.93c0-.34.41-.6,1.22-.77a10.77,10.77,0,0,1,2.65-.2,14.4,14.4,0,0,1,2.6.3C558.91,172.74,559.31,173,559.31,173.34Zm-.62,15.39a12.81,12.81,0,0,0,1.53,6,5.27,5.27,0,0,0,3.21,2.6,5.44,5.44,0,0,0,3.93-.61,10.54,10.54,0,0,0,3.77-3.72c-1.43-.13-2.67-.27-3.72-.41a14,14,0,0,1-2.91-.66,16.75,16.75,0,0,1-2.7-1.22A35.77,35.77,0,0,1,558.69,188.73Z"/></g></svg>
