<svg xmlns="http://www.w3.org/2000/svg" width="238.83mm" height="90.45mm" viewBox="0 0 676.98 256.4"><defs><style>.cls-1,.cls-2,.cls-3{fill:#1d1d1b;}.cls-1,.cls-3{stroke:#1d1d1b;stroke-miterlimit:10;}.cls-1{stroke-width:0.75px;}</style></defs><title>Tegnebræt 6</title><g id="Lag_4" data-name="Lag 4"><path class="cls-1" d="M647.34,166.43c.71-.44,1.24-.22,1.6.66a.88.88,0,0,1,.06.86,1.37,1.37,0,0,1-.73.73,76.58,76.58,0,0,1-8.95,2.92q-5,1.34-10.29,2.26t-10.28,1.46c-3.32.35-6.31.58-9,.66a22.21,22.21,0,0,1-4.38,4.05,8.48,8.48,0,0,1-4.91,1.66c-2.39,0-4.11-.71-5.18-2.12a7.42,7.42,0,0,1-1.59-4.52,7.19,7.19,0,0,1,.73-3.11,11.76,11.76,0,0,1,1.79-2.72,6.58,6.58,0,0,1,1.13-2.86,17.86,17.86,0,0,1,2.32-2.85,20.85,20.85,0,0,1,4.65-3,12.29,12.29,0,0,1,5.31-1.26,7.43,7.43,0,0,1,1.65.2,9.59,9.59,0,0,1,1.53.47,4.25,4.25,0,0,1,1.79,1.66c.67.92.77,2.41.33,4.44a35.33,35.33,0,0,1-1.12,3.58,16.52,16.52,0,0,1-2.06,3.85q3.72-.12,8.29-.6c3.06-.3,6.15-.77,9.29-1.39s6.26-1.35,9.36-2.19A79.18,79.18,0,0,0,647.34,166.43ZM600.5,179.17q3,0,6-3.32a12.6,12.6,0,0,1-1.52-.07c-.4,0-.82-.11-1.27-.19a20.9,20.9,0,0,1-4.11-1.33,6.39,6.39,0,0,1-2.65-2.13,5.19,5.19,0,0,0-.8,2.92,4.3,4.3,0,0,0,1.06,2.86A4.1,4.1,0,0,0,600.5,179.17Zm3.58-6.1a20.09,20.09,0,0,0,4.52.39,21.09,21.09,0,0,0,4-8,4.19,4.19,0,0,0,.13-1.79,1.77,1.77,0,0,0-.8-1.39,7,7,0,0,0-5.37,0,15.56,15.56,0,0,0-5.11,2.92l-1,1a6.33,6.33,0,0,0-.73.86,10.38,10.38,0,0,1,1.86-.4,20.09,20.09,0,0,1,2.26-.13c.7,0,1.06.4,1.06,1.2s-.36,1.32-1.06,1.32a10.24,10.24,0,0,0-2.72.34,8.48,8.48,0,0,0-2.19.86,5,5,0,0,0,1.86,1.72A8.6,8.6,0,0,0,604.08,173.07Zm4.65.39h-.13v.14Z"/><path class="cls-2" d="M128.63,74.41c16.49-2.38,32-11.16,48.2-15.19,18.46-4.61,35.58-4.67,54.33-2.54,2.17.24,2.5-3.16.5-3.73-17.28-4.89-36.23-2.46-53.38,1.85a326,326,0,0,0-50.49,17.6c-1.24.55-.26,2.17.84,2Z"/><path class="cls-2" d="M84.43,122.16c-3.32-9,2.3-20.47,2.66-29.92.28-7.14-.61-15.71-5.7-21.12-1.19-1.27-3.59,0-3,1.74,1.75,5,3.82,9.36,4.19,14.75a73.48,73.48,0,0,1-1.12,15.66c-.92,6.24-3.83,14.44.38,20,.88,1.15,3.2.56,2.59-1.09Z"/><path class="cls-2" d="M71.93,185.25c-5-3.34-4.53-10.38-4.78-15.64-.29-5.86-.57-11.72-.9-17.58-.61-10.49-1.53-21-1.52-31.53,0-9.61.87-19.42,4.52-28.4C73,82.94,81.08,77.47,85.42,68.89c2.27-4.47,3.54-9.16,6.74-13.15A40.71,40.71,0,0,1,104.24,46c9.59-5.38,20.55-8.72,31.25-11,21.74-4.67,45.64-4.49,67,2.22,11.23,3.53,18.92,10.06,26.37,18.86,5.81,6.87,11.88,13.72,20.92,16,3.73,1,5.16-4.48,1.58-5.72C240.94,62.82,235.21,53.63,228,46s-16.14-12.3-26.13-15.16c-22.66-6.49-47.52-6.36-70.38-1-11,2.56-22.41,6.21-32.17,12.07C90.05,47.42,85.16,54.41,80.79,64S67.34,79.88,63.24,90c-3.76,9.31-4.89,19.46-5,29.42C58.14,133,59.74,146.64,61,160.15c.83,8.64-.54,23.8,9.11,28.19a1.79,1.79,0,0,0,1.8-3.09Z"/><path class="cls-2" d="M250.53,68.85c-17.73,1-33.42,11-43.31,25.67-6,8.94-9.34,19.37-14.77,28.65a99.29,99.29,0,0,1-17.64,22c-14.4,13.57-32.42,23.05-51.35,28.56-19.73,5.74-41.68,3.82-60.44,12.62-16.92,8-30.77,24.89-32.33,43.8-.24,3,4.14,3.28,5,.68,5.75-17.63,16.6-33.14,34.67-39.61,10.58-3.8,22.05-4.16,33.09-5.68A148.85,148.85,0,0,0,128.38,180c33.13-10.54,61-32.38,75.72-64.19,4.73-10.21,9.37-20.29,17.69-28.13,8-7.54,18.62-12.75,29.14-15.79,1.6-.47,1.36-3.1-.4-3Z"/><path class="cls-2" d="M71.65,185.55c-7.11-3.64-1.51-19.24-.05-25a151.76,151.76,0,0,1,8.76-25.22,153.81,153.81,0,0,1,29.1-42.55c11.92-12.48,25.35-23.5,38.91-34.15a152.11,152.11,0,0,1,22.2-15c8.12-4.33,16.17-5.51,24.77-8.11,2.8-.84,2-4.54-.65-4.83-9.11-1-19.23,3.65-27.12,7.82-8.37,4.42-16,10.09-23.45,15.91-17,13.32-34,27.22-47.83,44a147.07,147.07,0,0,0-27.66,51.88c-2.26,7.68-12,36.38,2.24,38.19,1.54.2,2.09-2.22.78-2.89Z"/><path class="cls-2" d="M73.6,149.5c8.84,5.18,20,7.92,29.83,10.56a116.8,116.8,0,0,0,29.12,4.44c17.56.16,35-5.63,47.35-18.47,2-2.12-1.05-5.16-3.21-3.21-13.43,12.1-29.87,17.61-47.89,16.77A124.62,124.62,0,0,1,102.21,155c-9.15-2.48-18.06-6.59-27.27-8.62a1.74,1.74,0,0,0-1.34,3.17Z"/><path class="cls-2" d="M84.34,124.44c6.5,7.17,16,8.3,25.2,7.86,12.16-.59,24.62-2.45,36-6.75,10.44-3.93,19.68-10.07,29.2-15.77,10.55-6.32,20.58-10.63,32.86-12a2.76,2.76,0,0,0,0-5.51c-19.72-2.06-37.24,13.69-53.42,22.44-11,6-23.05,9.17-35.44,10.73-10.76,1.36-22.94,2.71-32.46-3.54-1.61-1-3.18,1.24-2,2.56Z"/><path class="cls-2" d="M114.49,83.62c.64,6.44,13.13,7.72,18.14,8.15,11.54,1,22.87-2.41,33.73-5.88,12-3.85,24.12-7.24,36.66-9.14a189,189,0,0,1,20.84-2c6.08-.23,12.44.59,18.39-.68,2-.42,1.72-3.2,0-3.76-10.06-3.27-23.31-1.16-33.66,0a190.6,190.6,0,0,0-33.19,6.75c-11.26,3.38-22.38,8-34.18,9.17a51,51,0,0,1-16.34-.82c-3.38-.79-6.93-3.36-10.27-2-.06,0-.13.08-.12.16Z"/><path class="cls-2" d="M107.24,86.83c2.35-7.1,1.94-15.89,1.57-23.28-.35-7.12-2.56-14.78-7-20.48-1.08-1.4-3.64-.69-3.07,1.3,2.24,8,5.58,14,5.84,22.57.21,6.6-.46,13.55,1.63,19.89a.51.51,0,0,0,1,0Z"/><path class="cls-2" d="M131.68,66.42c2.2-5.5,2.44-12.3,3.26-18.16.74-5.29,1.6-10.65.52-15.93-.47-2.26-3.51-1.46-3.73.5-.64,5.74-.41,11.59-1,17.37-.53,5.2-1.84,10.74-1.21,15.93a1.1,1.1,0,0,0,2.15.29Z"/><path class="cls-2" d="M82,199.73c-6.15-3.2-6.23-10.39-6.7-16.44q-.75-9.79-1.51-19.59c-.78-9.94-1.8-19.92-1.62-29.9.18-10.64,1.82-21.54,7.32-30.83,2.67-4.51,6.27-8,9.89-11.7,3.47-3.53,5.42-7.15,7.51-11.63,9.38-20.12,37.09-26.36,57.05-29.5,22-3.46,48.38-4,69.68,3.34C234.18,57.15,242.1,64.25,249.9,72c6.35,6.33,12.84,12.29,21.7,14.66a.3.3,0,0,0,.16-.57C260.39,83,253.13,74,244.88,66.21c-6.37-6-13.64-10.94-22-13.61-22.24-7.1-48.76-6.55-71.5-2.64-18.88,3.25-45.22,9.48-54.57,28.35C93.93,84.05,91.28,88.45,86.69,93a47,47,0,0,0-9.23,12.29c-4.29,8.47-5.7,18.09-5.95,27.49-.36,13.35,1.31,26.78,2.39,40.07.67,8.2-1.05,22.73,7.88,27.2.21.1.39-.2.19-.31Z"/><path class="cls-2" d="M271.64,86.12c-17.74,2.6-34.25,12-44.21,27.11-5.79,8.81-9.43,18.82-15.25,27.62A102.55,102.55,0,0,1,193,162.26c-15.81,13.43-35.07,22.55-55,27.88-20.12,5.38-42.33,3.52-61.69,11.43-17.14,7-30.7,22-34.47,40.24-.06.32.42.46.49.14,4.56-19.78,19.88-35.5,39.19-41.45,19-5.86,39.48-4.79,58.72-10.2,33.13-9.34,63.1-29.15,79-60.33,5.44-10.67,10.6-21,19.92-28.89a67.63,67.63,0,0,1,32.6-14.67c.19,0,.11-.32-.08-.29Z"/><path class="cls-2" d="M73.62,178.1c-7-3.27-7.28-10.73-7.84-17.45Q64.9,150.2,64,139.73c-1-11.25-2.24-22.56-1.92-33.87.31-11.14,2.38-22.57,8.5-32.08,3.43-5.33,8-9.15,12.51-13.49,3.81-3.68,5.82-7.62,8.21-12.3,5.9-11.57,17.75-17.72,29.46-22.07a187.51,187.51,0,0,1,36-9.21c25.95-4.13,53.5-3.75,79.07,2.66,13.93,3.5,24.71,9.92,34.85,19.94,7.43,7.34,14.72,14.26,25.14,16.81.37.09.53-.48.16-.57-13.06-3.29-20.83-13.4-30.4-22C257.07,26,247,21.54,236,18.8c-26.1-6.52-54.15-6.86-80.6-2.48A178.17,178.17,0,0,0,116.47,27c-9.3,3.84-18.86,9.21-24.26,18-3.91,6.4-6.44,12-12.14,17.2-4.27,3.94-8.13,7.93-11.07,13-5.06,8.68-7,18.75-7.48,28.68-.72,15,1.39,30.13,2.71,45,.8,9.12-1,24.94,9.21,29.53.21.09.39-.21.18-.31Z"/><path class="cls-2" d="M295.88,55.54c-19.3,2.58-38.12,11.56-50.23,27.17-7.5,9.66-11.9,21.27-19,31.23a114.17,114.17,0,0,1-23,23.82c-18.22,14.22-39.89,23.71-62.18,29.46a243.9,243.9,0,0,1-37.71,6.2c-12.19,1.16-24.61,2.21-36.2,6.47-19.47,7.14-36.29,22.94-40.92,43.6a.25.25,0,0,0,.49.13c5.33-21.76,23.54-38,44.59-44.35,12.82-3.89,26.34-4.4,39.58-5.86a214.35,214.35,0,0,0,30.37-5.48c38.57-10,74-31.05,93.53-66.66C242,88.93,248.93,77.7,260.65,69.48a83.18,83.18,0,0,1,35.27-13.64c.17,0,.13-.32,0-.3Z"/><path class="cls-1" d="M314.79,167a1.08,1.08,0,0,1,.92-.3,1.34,1.34,0,0,1,.79.3,1.17,1.17,0,0,1,0,1.71,25.12,25.12,0,0,1-6.66,4.52,57.19,57.19,0,0,1-8.42,3.18c-3.06.89-6.23,1.64-9.53,2.26s-6.62,1.2-10,1.77q-6.1,1-12,2.13a39.26,39.26,0,0,0-9.83,3.12,128,128,0,0,0-5.49,11.85l.73,3,.24.86c.49,1.62.9,3.19,1.22,4.7a19.21,19.21,0,0,1,.49,4.09,7.07,7.07,0,0,1-.85,3.79,4.32,4.32,0,0,1-3.3,1.83.53.53,0,0,0-.24.06.89.89,0,0,1-.37.06,3.34,3.34,0,0,1-1.89-.61,4.15,4.15,0,0,1-1.41-1.59,4.69,4.69,0,0,1-.37-1.28,11,11,0,0,1-.12-1.65,23.18,23.18,0,0,1,1-6,69,69,0,0,1,2.56-7.46c-.65-2.68-1.61-5.17-1.13-7,.82-2.77,3.82-4.8,7.24-6.59l3.05-5.87c1.88-3.25,4-6.82,6.36-10.68s4.86-7.68,7.51-11.42,5.33-7.29,8.06-10.63a76.67,76.67,0,0,1,7.88-8.43q7-6.22,11.72-6.23a6.22,6.22,0,0,1,3.18.86H306a3,3,0,0,1,1.22,1.1,3.7,3.7,0,0,1,.49,2.44,12.49,12.49,0,0,1-2.08,5,53.6,53.6,0,0,1-4.7,6.17,76,76,0,0,1-6.66,6.65q-3.78,3.36-7.94,6.41a87.3,87.3,0,0,1-8.43,5.5,48.27,48.27,0,0,1-8.18,3.79c-1.46,2.36-2.85,4.68-4.15,7s-2.53,4.6-3.67,7A59.45,59.45,0,0,1,271,180q5.07-1,10.69-2c3.26-.48,6.49-1,9.71-1.58s6.27-1.27,9.16-2.08a48.29,48.29,0,0,0,8-3A22.69,22.69,0,0,0,314.79,167Zm-60.34,45.68c.66-1,.8-2.46.43-4.46s-.83-4-1.4-6.17l-.25-.73v-.12a39.45,39.45,0,0,0-2.07,7.27,8.56,8.56,0,0,0,.12,4.46v-.13a2.32,2.32,0,0,0,.55.61,1.3,1.3,0,0,0,1,.13,2.87,2.87,0,0,0,1.71-.86Zm-.36-18.44v-1.47l-.49,1.35Zm0-1.47,2.07-4.64a8.53,8.53,0,0,0-1.22,1.53,12.86,12.86,0,0,0-.85,1.65Zm38.71-54.23A80.05,80.05,0,0,0,282.36,150q-5.31,7-10.68,15.27a70.81,70.81,0,0,0,11.66-6.72A93,93,0,0,0,294,149.91,78.4,78.4,0,0,0,302,141.3c2.11-2.73,3.25-4.9,3.42-6.53,0-.65-.13-1.06-.37-1.22a6.15,6.15,0,0,0-1.1-.43,3.37,3.37,0,0,0-1-.19,9.4,9.4,0,0,0-5.13,1.78A43.64,43.64,0,0,0,292.8,138.55Z"/><path class="cls-1" d="M370.24,167a1.08,1.08,0,0,1,.92-.3,1.31,1.31,0,0,1,.79.3,1.17,1.17,0,0,1,0,1.71,25.12,25.12,0,0,1-6.66,4.52,57.19,57.19,0,0,1-8.42,3.18c-3.06.89-6.23,1.64-9.53,2.26s-6.62,1.2-10,1.77q-6.11,1-12,2.13a39.4,39.4,0,0,0-9.83,3.12A128,128,0,0,0,310,197.55l.73,3,.24.86c.49,1.62.9,3.19,1.23,4.7a19.81,19.81,0,0,1,.48,4.09,7.07,7.07,0,0,1-.85,3.79,4.32,4.32,0,0,1-3.3,1.83.61.61,0,0,0-.25.06.84.84,0,0,1-.36.06,3.34,3.34,0,0,1-1.89-.61,4.15,4.15,0,0,1-1.41-1.59,4.38,4.38,0,0,1-.36-1.28,11,11,0,0,1-.13-1.65,23.18,23.18,0,0,1,1-6,67,67,0,0,1,2.57-7.46c-.66-2.68-1.49-5.17-1-7,.82-2.77,3.68-4.8,7.1-6.59l3.06-5.87c1.87-3.25,4-6.82,6.35-10.68s4.86-7.68,7.51-11.42,5.33-7.29,8.06-10.63a76.67,76.67,0,0,1,7.88-8.43q7-6.22,11.72-6.23a6.22,6.22,0,0,1,3.18.86h-.12a3,3,0,0,1,1.22,1.1,3.7,3.7,0,0,1,.49,2.44,12.49,12.49,0,0,1-2.08,5,53.6,53.6,0,0,1-4.7,6.17,76,76,0,0,1-6.66,6.65q-3.78,3.36-7.94,6.41a87.3,87.3,0,0,1-8.43,5.5,48.27,48.27,0,0,1-8.18,3.79c-1.46,2.36-2.85,4.68-4.15,7s-2.53,4.6-3.67,7a59.45,59.45,0,0,1,9.1-2.44q5.07-1,10.69-2c3.26-.48,6.49-1,9.71-1.58s6.27-1.27,9.16-2.08a48.29,48.29,0,0,0,8-3A22.69,22.69,0,0,0,370.24,167ZM309.9,212.69c.66-1,.8-2.46.43-4.46s-.83-4-1.4-6.17l-.25-.73v-.12a40.26,40.26,0,0,0-2.07,7.27,8.56,8.56,0,0,0,.12,4.46v-.13a2.32,2.32,0,0,0,.55.61,1.29,1.29,0,0,0,1,.13,2.87,2.87,0,0,0,1.72-.86Zm-.36-18.44v-1.47l-.49,1.35Zm0-1.47,2.07-4.64a9,9,0,0,0-1.22,1.53,12.86,12.86,0,0,0-.85,1.65Zm38.72-54.23A80.07,80.07,0,0,0,337.81,150q-5.31,7-10.68,15.27a70.81,70.81,0,0,0,11.66-6.72,93,93,0,0,0,10.69-8.67,78.4,78.4,0,0,0,7.94-8.61c2.11-2.73,3.25-4.9,3.42-6.53,0-.65-.13-1.06-.37-1.22a6.15,6.15,0,0,0-1.1-.43,3.37,3.37,0,0,0-1-.19,9.4,9.4,0,0,0-5.13,1.78A42.67,42.67,0,0,0,348.26,138.55Z"/><path class="cls-1" d="M491.16,167.13a1.24,1.24,0,0,1-.49,1.59q-1.1.61-4.46,2.44T478.58,175q-4.27,2-8.67,3.48a23.68,23.68,0,0,1-7.58,1.53,5.67,5.67,0,0,1-2.56-.49,2.59,2.59,0,0,1-1.89-2.26c-.13-1.1,1.08-3.41,1.24-4.38a9.49,9.49,0,0,0,.12-1.53,1.57,1.57,0,0,0-.24-1l-.12-.24v.12a8.71,8.71,0,0,0-3.3.85,36.36,36.36,0,0,0-3.91,2c-1.3.77-3.73,2.86-4.91,3.71s-2.1,1.53-2.75,2a1.56,1.56,0,0,1-1.46,0,1.58,1.58,0,0,1-.49-1.35c.49-1,1-2.26,1.46-3.6s.94-2.64,1.35-3.91a23,23,0,0,0,.85-3.48,8.3,8.3,0,0,0,.12-2.32,7.26,7.26,0,0,0-3.54,1.41,35.59,35.59,0,0,0-4.64,3.6c-1.63,1.46-3.23,3-4.82,4.7s-3,3.24-4.22,4.7a1.11,1.11,0,0,1-1.59.12c-.48-.16-.65-.52-.48-1.09a1,1,0,0,1,.12-.37c.08-.16.2-.45.36-.86.41-1.14,1-2.64,1.9-4.52a38.23,38.23,0,0,1,2.62-4.88l-.12.12q.74-1,1.59-.24c.49.41.73.73.73,1a16.25,16.25,0,0,0-1.28,2c-.37.69-.71,1.36-1,2a51.5,51.5,0,0,1,3.6-3.72,38.75,38.75,0,0,1,4.1-3.36,23.61,23.61,0,0,1,4-2.32,5.9,5.9,0,0,1,3.36-.61,2.11,2.11,0,0,1,1.46,1.22,5,5,0,0,1,.31,2.2,22.56,22.56,0,0,1-.37,2.93,26.87,26.87,0,0,1-.86,3.3c-.36,1.14-.71,2.2-1,3.17.81-.56,2.91-2.44,3.93-3.1s2.06-1.24,3.11-1.77a30.08,30.08,0,0,1,3.06-1.34,7.91,7.91,0,0,1,2.81-.55,2.6,2.6,0,0,1,1.83.85,2.51,2.51,0,0,1,.67,1.71,11.79,11.79,0,0,1-.06,2.08v.37c-.17,1.87-1.18,4.24-.7,4.56q2,.62,5.87-.42a64.12,64.12,0,0,0,8.24-2.87q4.33-1.84,8.43-4c2.73-1.43,4.86-2.59,6.41-3.48l-.12.12q.85-.74,1.59.24Z"/><path class="cls-1" d="M590.58,147.71a1.09,1.09,0,0,1,.86,1.47,1.61,1.61,0,0,1-.49.67.89.89,0,0,1-.86.18c-.08,0-.79-.12-2.14-.36s-3.09-.51-5.25-.8-4.62-.55-7.39-.79-5.62-.37-8.55-.37h-1.71a15,15,0,0,0-1.83.12q-2.21,3.67-4.52,7.76a89.51,89.51,0,0,0-4.09,8.12,50.49,50.49,0,0,0-2.69,7.58,13.72,13.72,0,0,0-.43,6,4.41,4.41,0,0,0,2.45,3.67,6.58,6.58,0,0,0,4,1.09,15.69,15.69,0,0,0,5.49-1.09,39.67,39.67,0,0,0,5.8-2.75,53.71,53.71,0,0,0,5.5-3.61q2.63-2,4.64-3.66t3.24-2.81a7,7,0,0,0,1.22-1.22,3.38,3.38,0,0,1,1-.31.77.77,0,0,1,.79.31,1,1,0,0,1,0,1.59c-.24.16-1.28,1.08-3.11,2.75a74.35,74.35,0,0,1-6.84,5.43,64.91,64.91,0,0,1-8.86,5.31,20.23,20.23,0,0,1-9,2.39,9.84,9.84,0,0,1-5.38-1.47,7.11,7.11,0,0,1-3.42-5.25,18,18,0,0,1,.49-6.41,54.22,54.22,0,0,1,2.44-7.58,74.86,74.86,0,0,1,3.79-8q2.21-4,4.52-7.69a44.78,44.78,0,0,0-10.69,2,15.76,15.76,0,0,0-7.75,4.83,1.2,1.2,0,0,1-.86.36,1,1,0,0,1-.61-.12,1.32,1.32,0,0,1-.24-1.83,17.89,17.89,0,0,1,9.1-5.68,50.63,50.63,0,0,1,12.64-2c1.22-1.78,2.42-3.54,3.6-5.25s2.28-3.28,3.3-4.7,1.87-2.6,2.56-3.54,1.12-1.49,1.28-1.65a1.61,1.61,0,0,1,.74-.37,1,1,0,0,1,.85.13c.49.65.57,1.18.25,1.58-.09.09-1.06,1.39-2.94,3.91s-4.15,5.78-6.84,9.77a86.2,86.2,0,0,1,9.29.25c3,.24,5.7.51,8.06.79s4.32.57,5.86.86S590.34,147.71,590.58,147.71Z"/><path class="cls-1" d="M259.58,167a1,1,0,0,1,.86-.3,1.23,1.23,0,0,1,.73.3,1.34,1.34,0,0,1,0,1.71,24.11,24.11,0,0,1-4.82,3.42,45.24,45.24,0,0,1-13.07,4.7,35,35,0,0,1-6.66.68,15.07,15.07,0,0,1-7.21-1.47,5.16,5.16,0,0,1-2.32-2.44,8,8,0,0,1-.61-3.06,9,9,0,0,1,.19-1.89q.18-.91.3-1.65l-.85.73-.74.74c-1,.89-2,1.83-3.17,2.81a35.68,35.68,0,0,1-3.36,2.56,18.32,18.32,0,0,1-3.3,1.77,6.57,6.57,0,0,1-3.31.48,4.42,4.42,0,0,1-2.09-1.33,3.38,3.38,0,0,1-.56-2.46,11.79,11.79,0,0,1,1.79-3.56,17.34,17.34,0,0,1,2.71-2.79,12.73,12.73,0,0,1,3.3-2.06,8.49,8.49,0,0,1,3.52-.71c.24.08.33.28.5.57a1.07,1.07,0,0,1,.24.79,1.14,1.14,0,0,1-.44.66,1.79,1.79,0,0,1-.9.32,6,6,0,0,0-2.49.76,16.9,16.9,0,0,0-2.72,2.1,9.44,9.44,0,0,0-1.83,1.71,9.21,9.21,0,0,0-1.11,2.79c-.08.24.29.68.69.92a5.81,5.81,0,0,0,2.58-.57,22,22,0,0,0,2.87-1.83c1-.73,1.95-1.51,2.93-2.32s1.83-1.59,2.57-2.32a42.53,42.53,0,0,1,3.35-2.81,3.3,3.3,0,0,1,1.78-.73c.56,0,.89.2,1,.61l-.12-.13a2.1,2.1,0,0,1,.24.92,2.94,2.94,0,0,1-.24,1c-.24.81-.47,1.65-.67,2.5a10,10,0,0,0-.31,2.38,4,4,0,0,0,1.59,3.55,8.18,8.18,0,0,0,2.75.85,24.18,24.18,0,0,0,3.48.24,33,33,0,0,0,6-.61,41.18,41.18,0,0,0,6.41-1.71,45,45,0,0,0,5.92-2.56A18.94,18.94,0,0,0,259.58,167Z"/><path class="cls-3" d="M217.35,164.27c-.47.2-1,.41-1.1,1a.59.59,0,0,0,.55.72,2.14,2.14,0,0,0,1.24-.54.68.68,0,0,0-.69-1.16Z"/><path class="cls-3" d="M219.41,163.74c-.41-1.12-1.75-.53-2.47-.09a.78.78,0,0,0,.78,1.34c.41-.23,2-.44,1.69-1.25Z"/><path class="cls-3" d="M219,162.87a6,6,0,0,0-2.57,1c-.85.62,0,2,.83,1.42a12.87,12.87,0,0,1,2.12-1c.65-.32.37-1.51-.38-1.41Z"/><path class="cls-3" d="M214.7,166.67a5.13,5.13,0,0,1,3-2c.93-.15,1.91,0,2.66-.61a.59.59,0,0,0,0-.83c-1-.82-2.64-.27-3.74.12a6.28,6.28,0,0,0-3.06,2.38c-.42.7.62,1.56,1.15.9Z"/><path class="cls-3" d="M221.67,164.93a1.31,1.31,0,0,0-.5-2.25,5.18,5.18,0,0,0-3.7.59c-.5.24-1,.57-1,1.19a.81.81,0,0,0,.75.79c.58.08,1.21-.4,1.76-.56a6.4,6.4,0,0,1,1-.19,4.87,4.87,0,0,1,.55-.06c.34.07.34-.07,0-.41-.49.75.56,1.41,1.17.9Z"/><path class="cls-3" d="M214.47,168.47h0a.06.06,0,0,0-.08.08v0c.06.1.19,0,.1-.09Z"/><path class="cls-3" d="M213.88,167.25v-.07a.2.2,0,0,0-.09-.17l-.13-.09c-.2-.15-.39.19-.19.33l.12.09a.2.2,0,0,0,.24,0s0,0,0-.06Z"/><path class="cls-3" d="M213.52,167.36a9.25,9.25,0,0,0,2.37-1.48.82.82,0,0,0-.79-1.36,4,4,0,0,0-2.4,2,.67.67,0,0,0,.82.82Z"/><path class="cls-3" d="M214.79,166.72a13.08,13.08,0,0,0,1.19-1.06c.63-.52-.21-1.63-.89-1.15s-1.2,1-1.14,1.73a.56.56,0,0,0,.84.48Z"/><path class="cls-3" d="M214.47,166.49a2.26,2.26,0,0,0,.82-.51c.72-.6-.3-1.6-1-1a1.37,1.37,0,0,0-.25.23l1.12.87.05-.06-1-1-.12.16c-.55.69.36,1.68,1,1l.28-.29a.71.71,0,0,0-1-1l-.26.2.87,1.12a3.16,3.16,0,0,1,.65-.56l-.72-1.25a6.41,6.41,0,0,0-1.93,1.77.81.81,0,0,0,0,.81l0,.09a.62.62,0,0,0,.53.3c.52,0,.68-.27,1-.66a5.26,5.26,0,0,1,1.1-1.06c.76-.52.07-1.75-.72-1.25a4.28,4.28,0,0,0-.94.8c-.49.57.18,1.65.87,1.13l.54-.43-1-1-.27.3,1,1,.13-.16c.55-.7-.35-1.68-1-1a2.24,2.24,0,0,0-.27.34c-.48.67.56,1.42,1.12.86l.12-.11-1-1a1.54,1.54,0,0,0-.33.91.5.5,0,0,0,.64.48Z"/><path class="cls-3" d="M216.43,166.13c1.22-.91,1.85-2.24,3.59-2.14a.73.73,0,0,0,.37-1.35c-1.17-.59-2.64,0-3.76.51a8,8,0,0,0-3.37,2.83c-.51.75.64,1.63,1.26,1a10.32,10.32,0,0,1,2.32-2c.73-.44,2.08-1.29,3-1l.19-1.42a4.44,4.44,0,0,0-4.22,2.73.57.57,0,0,0,.09.68l.13.13a.35.35,0,0,0,.41,0Z"/><path class="cls-3" d="M219.67,163.86l.12,0a.67.67,0,0,0,.64-1.1l-.09-.09-.14,1.12.07,0-.56.07.08,0,.2-1.45h-.37l.2,1.51a.61.61,0,0,1,.42.12c.73.41,1.6-.6.93-1.19l-.12-.11-.16,1.23-.3.08c.86.08.94-1,.4-1.45a2.23,2.23,0,0,0-2.45.06.82.82,0,0,0,.62,1.49,2.08,2.08,0,0,1,1.23-.12l.6-1.43-.05,0a.85.85,0,0,0-1,.12l0,0a.79.79,0,0,0,.16,1.23l.14.07.59-1.39a6.17,6.17,0,0,0-1.21-.24c-1-.07-1,1.66,0,1.54l.56-.08c.82-.13.63-1.56-.19-1.45a.87.87,0,0,0-.65.28.72.72,0,0,0,.5,1.21H220l-.57-1-.06.12a.56.56,0,0,0,.33.81Z"/><path class="cls-3" d="M221.1,163.63a.08.08,0,1,0,0-.16.08.08,0,0,0,0,.16Z"/><path class="cls-3" d="M221.39,162.89c-1-1-2.79-.71-3.88,0-.86.57-.07,2,.82,1.4s1.62-.25,2.55-.18a.73.73,0,0,0,.51-1.23Z"/><path class="cls-3" d="M221.19,163.26v0l-.4.7c.19-.08.39-.2.42-.43l-.57.44h.07c.6.05.77-.82.3-1.1l-.07,0-.3,1.1h.09a.6.6,0,0,0,.55-.41v-.05l-.94.38,0,0,.33-1.21h0l.65.65v0l-1.27.17a.75.75,0,0,0,.53.52.69.69,0,0,0,.83-.84l0-.1-1.06.82a1.82,1.82,0,0,0,.41.15.67.67,0,0,0,.82-.63v-.11a.7.7,0,0,0-.36-.62l-.11-.06c-1-.48-1.59,1-.57,1.34h.05l.79-1a1.63,1.63,0,0,0-.17-.2c-.71-.76-1.8.62-.87,1.14l.09.05.68-1.17,0,0a.68.68,0,0,0-.69,0,.78.78,0,0,0-.32.42.67.67,0,0,0,.45.8h0c.69.22,1.18-.88.5-1.18l0,0c-1.1-.49-1.32,1.39-.16,1.18h0l.13-1-.07,0a.59.59,0,1,0-.46,1.08l.07,0,.32-1.13-.07,0c-.93-.29-1,1.42,0,1.15h0l.24-.9,0,0a.57.57,0,0,0-1,.32.57.57,0,0,0,.85.57l0,0a.52.52,0,0,0,.24-.58Z"/><path class="cls-3" d="M220.21,163.62l0,0c.56.43,1.09-.45.7-.92l0-.06-.59,1,.08,0,.33-1.21h0a.63.63,0,1,0,.38.93h0a.63.63,0,0,0-.54-.94h-.07a.61.61,0,0,0-.17,1.19l.08,0-.26-1,0,0a.56.56,0,0,0,.11.87Z"/><path class="cls-3" d="M211.93,169.26c1.14-.83,1.9-2.15,2.94-3.12a8,8,0,0,1,4.53-2.31.68.68,0,0,0,0-1.3c-1.81-.25-3.26.66-4.64,1.78s-3.1,2.63-3.67,4.31a.57.57,0,0,0,.84.64Z"/><path class="cls-3" d="M217.44,164.36a4,4,0,0,0,1.48-.56.75.75,0,0,0-.58-1.36l-.5.17.58,1.36c.75-.35,1.38.07,2.12.08a.79.79,0,0,0,.75-1c-.45-1.33-2.68-.84-3.63-.39-.76.36-.22,1.64.58,1.37l.5-.17-.58-1.36a3.6,3.6,0,0,0-1.14.83c-.28.34-.15,1.08.42,1Z"/><path class="cls-3" d="M217.46,163.43a.12.12,0,0,0,0-.23.12.12,0,0,0,0,.23Z"/><path class="cls-3" d="M215.68,168.46c1.36-.77,2.83-1.1,4.25-1.74.95-.43,2.4-1,2.5-2.22.32-3.6-4.24-2.42-6-1.19-1.05.74-.06,2.47,1,1.74.6-.4,1.78-1.11,2.57-.91s-.6.88-1,1.06c-1.42.68-3.07,1-4.23,2.14a.72.72,0,0,0,.87,1.12Z"/><path class="cls-3" d="M209.85,173.89c-1.12,1.2-.09,2.68,1.3,3a4.56,4.56,0,0,0,4.14-1.31,1,1,0,0,0-.57-1.42c-.95-.21-1.68.32-2.59.51a1.58,1.58,0,0,1-1-.05c.14.07.16.21.08-.1a1.63,1.63,0,0,0-.4-.58.72.72,0,0,0-1,0Z"/><path class="cls-3" d="M212.42,168.56h0a.63.63,0,1,0-.17-1.25c-1.12.2-1.92,1.45-2.46,2.36s-.94,2.63,0,3.39a.78.78,0,0,0,1,0,1.32,1.32,0,0,0,.51-1,3.25,3.25,0,0,1,.31-1.6,9.79,9.79,0,0,0,1.36-2.33l-.78.44a.4.4,0,0,0,.15,0Z"/><path class="cls-3" d="M210.35,173.4a.85.85,0,0,0,0-1.69.85.85,0,0,0,0,1.69Z"/><path class="cls-3" d="M210.35,173.06a.58.58,0,0,0,0-1.16.58.58,0,0,0,0,1.16Z"/><path class="cls-3" d="M216.6,163.31c-3.64.89-7.08,5.35-7.25,9,0,1.1,1.65,1.09,1.7,0,.13-2.9,3.12-6.69,6-7.39,1.06-.26.61-1.9-.45-1.64Z"/><path class="cls-3" d="M218.82,162.31c-3.28.53-6.82,3.44-8.56,6.23-1.36,2.17-2.29,5.9.37,7.46a1,1,0,0,0,1.15-1.5c-2.18-2.21.51-5.65,2.17-7.22a28,28,0,0,1,5.46-3.57.77.77,0,0,0-.59-1.4Z"/><path class="cls-3" d="M210.84,169.55c-1.74.49-2.12,3.58-1.61,5a1,1,0,0,0,.93.7c1.17,0,.85-1.21.85-2,0-1.11,1-2.27.58-3.34a.61.61,0,0,0-.75-.42Z"/><path class="cls-3" d="M210,170.93c-1.74.42-1.22,4.8.62,4.19,1.06-.35.36-1.5.33-2.23s.17-2.23-1-2Z"/><path class="cls-3" d="M209.52,171.08c-1.66,1.54-.53,5.52,1.76,5.85,1,.14,1.88-1.29.76-1.81a1.9,1.9,0,0,1-1.27-1.5c-.14-.75-.05-1.53-.23-2.27a.62.62,0,0,0-1-.27Z"/><path class="cls-3" d="M210.91,169.43a3.27,3.27,0,0,0-1,.81,2.62,2.62,0,0,0-.41,1.52.79.79,0,0,0,1.58,0,4.32,4.32,0,0,1,.2-1,4.54,4.54,0,0,1,.16-.75c.14-.31-.17-.79-.53-.53Z"/><path class="cls-3" d="M210.67,169.51c-1.83,0-2.57,3.74-1.29,4.74a.82.82,0,0,0,1.36-.36,15.46,15.46,0,0,0,0-2.16,6.25,6.25,0,0,0,.32-1.89.46.46,0,0,0-.43-.33Z"/><path class="cls-3" d="M211.29,168A4.43,4.43,0,0,0,209,172a1,1,0,0,0,1.9,0c0-1.23,1.07-2.06,1.25-3.25a.62.62,0,0,0-.89-.69Z"/><path class="cls-3" d="M216.1,166.75l0,.07c0,.31.41.45.48.14v-.07a.25.25,0,0,0-.41-.24l-.11.08s0,0,0,0Z"/><path class="cls-3" d="M216.54,167.42a.18.18,0,0,0,0-.35.18.18,0,0,0,0,.35Z"/><path class="cls-3" d="M217.71,166.06c-2.78-.2-8.74,5.05-5.76,7.84,1.46,1.38,3.88-.06,5.34-.78,2.47-1.23,5.34-2.55,7.34-4.49A1,1,0,0,0,223.4,167c-2.76,1.5-5.35,3.35-8.25,4.61-.8.35-1.71,1-1.43-.35.16-.81,1.47-1.83,2-2.26.94-.7,1.87-1.08,2.45-2.12a.58.58,0,0,0-.5-.86Z"/><path class="cls-3" d="M220.26,170.87c1.53-.33,3.07-1.48,4.46-2.21,1.18-.62.15-2.28-1-1.76-1.49.67-3.32,1.5-4.28,2.87-.4.57.26,1.23.85,1.1Z"/><path class="cls-3" d="M221.54,169.86a12.59,12.59,0,0,0,4.13-2.46c.86-.72-.24-2-1.16-1.51a12.92,12.92,0,0,0-3.69,2.73.75.75,0,0,0,.72,1.24Z"/><path class="cls-3" d="M223,168.41a5.77,5.77,0,0,0,2.87-1.32.94.94,0,0,0-1-1.61,5,5,0,0,0-2.46,2,.64.64,0,0,0,.54.95Z"/><path class="cls-3" d="M210.1,174.83c-1,1.65,1.34,2.57,2.63,2.39a9.79,9.79,0,0,0,5.35-2.93c.75-.84-.25-2.39-1.28-1.66-1.22.87-4.21,3.56-5.69,2.08a.65.65,0,0,0-1,.12Z"/><path class="cls-3" d="M213.87,176.06a3.1,3.1,0,0,0,2.78-.31,4.92,4.92,0,0,0,2.5-2.23c.21-.53-.41-1-.9-.89-.88.24-1.47,1-2.2,1.54s-1.48.66-2.18,1.09a.46.46,0,0,0,0,.8Z"/><path class="cls-3" d="M217.8,166.17l-.05.12s0,0,0,0l.05-.11s0,0,0,0Z"/><path class="cls-3" d="M217.26,166a1.23,1.23,0,0,0-.4.23.65.65,0,0,0,.66,1.13h.12l-.68-1.17a3.13,3.13,0,0,0-.42.47c-.48.62.43,1.36,1,1l.6-.34c.86-.49.1-1.76-.76-1.32l-.86.44c-.9.45-.1,1.82.8,1.36a5.75,5.75,0,0,1,.88-.39l-.59-1.39a8,8,0,0,1-1,.38l.62,1.46a5.19,5.19,0,0,0,1.9-1,.75.75,0,0,0-.72-1.24c-.65.17-1.15.65-1.8.83-1,.29-.54,1.89.43,1.54a9.58,9.58,0,0,0,1.3-.61c.74-.4.23-1.71-.59-1.39-.36.14-.72.27-1.08.42l.61,1.44c.27-.17.55-.33.82-.48l-.76-1.32-.6.37,1,1a1.39,1.39,0,0,0,.22-.37c.28-.57-.33-1.38-1-.95l-.24.15.8,1A1.48,1.48,0,0,0,218,167a.59.59,0,0,0-.72-.92Z"/><path class="cls-3" d="M216.79,167.62l.1.08v-1.21l-.16.1a.71.71,0,0,0,.72,1.23l.08,0-.71-1.21-.12.06a.72.72,0,0,0,.72,1.24l.11-.07-.85-1.1-.08.06,1,1,.06-.05c.61-.51-.19-1.54-.85-1.11l-.15.1.71,1.21.07,0-.85-1.1,0,0c-.45.57.1,1.53.83,1.08l.18-.11-.81-1-.11.11c-.52.52.17,1.47.8,1a.72.72,0,0,1,.21-.12l-.68-1.16-.15.12a.67.67,0,0,0,.67,1.15l.24-.12-.68-1.15-.14.1a.66.66,0,0,0,.67,1.13l.19-.11c.74-.41.06-1.59-.66-1.13l-.14.09.64,1.11a6.59,6.59,0,0,1,1.53-.69c.88-.38,0-1.87-.76-1.3a13.8,13.8,0,0,1-1.41.88c-.63.33-.19,1.46.49,1.17l.16-.06-.51-1.2-.2.11.67,1.13.15-.08c.75-.42.09-1.51-.68-1.15l-.23.12.67,1.15.16-.11a.67.67,0,0,0-.68-1.16,2.52,2.52,0,0,0-.33.24l.8,1,.12-.1c.55-.41.27-1.51-.51-1.22l-.2.07.53,1.26.05,0c.72-.53,0-1.74-.7-1.21l-.08.05c-.73.51-.05,1.71.71,1.21l.15-.1-.85-1.1-.06.05c-.61.51.2,1.58.85,1.11l.08-.07c.58-.43.26-1.61-.54-1.29l-.12,0,.7,1.19.1-.08c.61-.5-.08-1.25-.68-1.17h-.09l.7,1.19.14-.12c.83-.72-.81-1.87-1.17-.68l0,.1a.55.55,0,0,0,.25.61Z"/><path class="cls-1" d="M423.88,169.2a1,1,0,0,1,.86-.31,1.26,1.26,0,0,1,.73.31,1.34,1.34,0,0,1,0,1.71,23.91,23.91,0,0,1-4.83,3.42,44,44,0,0,1-6.23,2.81,45.32,45.32,0,0,1-6.84,1.89,35,35,0,0,1-6.65.67,15.17,15.17,0,0,1-7.21-1.46,5.14,5.14,0,0,1-2.32-2.45,7.76,7.76,0,0,1-.61-3,9.77,9.77,0,0,1,.18-1.89c.13-.61.23-1.16.31-1.65l-.86.73-.73.73c-1,.9-2,1.84-3.17,2.81a35.45,35.45,0,0,1-3.36,2.57,19,19,0,0,1-3.3,1.77,6.68,6.68,0,0,1-3.31.48,4.42,4.42,0,0,1-2.09-1.33,3.39,3.39,0,0,1-.56-2.46,11.56,11.56,0,0,1,1.79-3.56,17.39,17.39,0,0,1,2.71-2.8,13,13,0,0,1,3.3-2,8.48,8.48,0,0,1,3.51-.71c.25.08.34.28.5.56a1.07,1.07,0,0,1,.25.8,1.12,1.12,0,0,1-.44.65,1.72,1.72,0,0,1-.9.33,6,6,0,0,0-2.49.76,16.84,16.84,0,0,0-2.72,2.09,9.44,9.44,0,0,0-1.83,1.71,9.21,9.21,0,0,0-1.11,2.79c-.08.25.29.69.69.93a5.81,5.81,0,0,0,2.58-.57,22,22,0,0,0,2.87-1.83c1-.74,1.95-1.51,2.93-2.33a34.23,34.23,0,0,0,2.56-2.32,43.27,43.27,0,0,1,3.36-2.8,3.28,3.28,0,0,1,1.77-.74c.57,0,.9.21,1,.61l-.12-.12a2.1,2.1,0,0,1,.24.92,2.89,2.89,0,0,1-.24,1c-.25.82-.47,1.65-.67,2.51a10,10,0,0,0-.31,2.38,4,4,0,0,0,1.59,3.54,8,8,0,0,0,2.75.86,24.18,24.18,0,0,0,3.48.24,32.85,32.85,0,0,0,6-.61,43.32,43.32,0,0,0,6.42-1.71,46.32,46.32,0,0,0,5.92-2.56A18.94,18.94,0,0,0,423.88,169.2Z"/><path class="cls-3" d="M381.65,166.45c-.47.21-1,.41-1.1,1a.58.58,0,0,0,.55.72,2.07,2.07,0,0,0,1.23-.53.68.68,0,0,0-.68-1.17Z"/><path class="cls-3" d="M383.71,165.93c-.41-1.13-1.76-.54-2.47-.09a.77.77,0,0,0,.78,1.33c.41-.22,2-.43,1.69-1.24Z"/><path class="cls-3" d="M383.34,165.05a6,6,0,0,0-2.57,1c-.85.63,0,2.06.83,1.42a12.14,12.14,0,0,1,2.12-1c.64-.32.37-1.5-.38-1.41Z"/><path class="cls-3" d="M379,168.85a5.16,5.16,0,0,1,3-1.95c.93-.15,1.91,0,2.66-.61a.59.59,0,0,0,0-.83c-1-.82-2.65-.27-3.74.11a6.25,6.25,0,0,0-3.06,2.39c-.43.7.62,1.56,1.15.89Z"/><path class="cls-3" d="M386,167.12a1.32,1.32,0,0,0-.5-2.26,5.27,5.27,0,0,0-3.7.59c-.5.24-1,.58-1,1.2a.8.8,0,0,0,.74.78c.58.08,1.22-.4,1.77-.55a7.79,7.79,0,0,1,1-.2l.56-.05c.34.07.34-.07,0-.41-.5.75.56,1.41,1.17.9Z"/><path class="cls-3" d="M378.76,170.66h0c-.05,0-.11,0-.08.08v0c.06.09.19,0,.09-.09Z"/><path class="cls-3" d="M378.18,169.43v-.07a.17.17,0,0,0-.09-.16l-.13-.1c-.2-.14-.4.19-.19.34l.12.09a.2.2,0,0,0,.23,0s.05,0,.05-.07Z"/><path class="cls-3" d="M377.82,169.55a9.28,9.28,0,0,0,2.37-1.49.81.81,0,0,0-.79-1.35,4,4,0,0,0-2.4,2,.67.67,0,0,0,.82.83Z"/><path class="cls-3" d="M379.08,168.91a13.42,13.42,0,0,0,1.19-1.06c.64-.52-.21-1.63-.88-1.15a2.08,2.08,0,0,0-1.14,1.73.56.56,0,0,0,.83.48Z"/><path class="cls-3" d="M378.77,168.68a2.38,2.38,0,0,0,.82-.52c.72-.59-.31-1.59-1-1a1.09,1.09,0,0,0-.25.23l1.12.87.05-.06-1-1-.12.16c-.55.7.36,1.69,1,1l.27-.29a.71.71,0,0,0-1-1l-.26.2.87,1.12a3.16,3.16,0,0,1,.65-.56l-.72-1.25a6.43,6.43,0,0,0-1.94,1.77.81.81,0,0,0,0,.8l0,.1a.62.62,0,0,0,.53.3c.52,0,.68-.27,1-.66a5,5,0,0,1,1.1-1.06c.75-.53.07-1.76-.72-1.25a4,4,0,0,0-.94.8c-.5.57.18,1.65.86,1.12.19-.14.37-.28.54-.43l-1-1-.27.29,1,1,.13-.15c.54-.7-.36-1.68-1-1a2.33,2.33,0,0,0-.27.35c-.48.67.56,1.42,1.12.86l.11-.11-1-1a1.53,1.53,0,0,0-.33.9.51.51,0,0,0,.64.49Z"/><path class="cls-3" d="M380.73,168.32c1.22-.91,1.85-2.24,3.59-2.15a.72.72,0,0,0,.37-1.34c-1.17-.59-2.65,0-3.76.5a8.14,8.14,0,0,0-3.37,2.83c-.51.76.64,1.64,1.26,1a10.71,10.71,0,0,1,2.31-2c.74-.45,2.09-1.29,3-1l.19-1.42a4.39,4.39,0,0,0-4.22,2.73.59.59,0,0,0,.08.68l.14.13a.35.35,0,0,0,.41,0Z"/><path class="cls-3" d="M384,166.05l.13,0a.66.66,0,0,0,.64-1.09l-.09-.09L384.5,166l.07,0L384,166h.08l.2-1.45h-.38l.21,1.51a.61.61,0,0,1,.42.12c.73.4,1.6-.61.93-1.2l-.13-.1-.15,1.22-.3.09c.86.08.94-1.05.39-1.45a2.19,2.19,0,0,0-2.44.06.81.81,0,0,0,.62,1.48,2.25,2.25,0,0,1,1.23-.12l.59-1.42,0,0a.83.83,0,0,0-1,.12l0,0a.78.78,0,0,0,.16,1.22l.14.08.59-1.39a5.49,5.49,0,0,0-1.22-.24c-1-.07-1,1.66,0,1.53l.57-.08c.81-.13.63-1.56-.19-1.45a.92.92,0,0,0-.65.29.72.72,0,0,0,.5,1.21h.12l-.56-1-.06.13a.56.56,0,0,0,.32.81Z"/><path class="cls-3" d="M385.4,165.81a.08.08,0,0,0,0-.16.08.08,0,0,0,0,.16Z"/><path class="cls-3" d="M385.68,165.08c-1-1-2.78-.71-3.87,0-.86.57-.07,2,.82,1.4s1.62-.25,2.55-.19a.72.72,0,0,0,.5-1.22Z"/><path class="cls-3" d="M385.49,165.44l0,0-.39.7c.19-.08.39-.19.42-.42l-.57.44H385c.6,0,.77-.81.29-1.09l-.06,0-.3,1.11H385a.59.59,0,0,0,.54-.42l0,0-.95.38.06,0,.33-1.2h0l.65.64v0l-1.26.17a.73.73,0,0,0,.53.52.68.68,0,0,0,.83-.83l0-.1-1.06.81a1.14,1.14,0,0,0,.4.15.66.66,0,0,0,.83-.63v-.1a.73.73,0,0,0-.36-.63l-.11,0a.73.73,0,1,0-.57,1.34h.05l.79-1a1.54,1.54,0,0,0-.17-.19c-.72-.76-1.8.61-.87,1.13l.09.05.68-1.16,0,0a.68.68,0,0,0-.69,0,.75.75,0,0,0-.32.42.64.64,0,0,0,.45.79h0c.69.22,1.18-.88.5-1.19l0,0c-1.1-.5-1.32,1.39-.16,1.18h0l.13-1-.07,0a.59.59,0,1,0-.46,1.09l.07,0,.31-1.13-.07,0c-.93-.29-1,1.42,0,1.15h0l.24-.9,0,0a.57.57,0,1,0-.12.9l0,0a.53.53,0,0,0,.24-.59Z"/><path class="cls-3" d="M384.51,165.81l0,0c.57.44,1.1-.44.71-.91l-.05-.06-.59,1,.07,0,.34-1.2h0a.63.63,0,1,0,.38.93h0a.63.63,0,0,0-.54-.94h-.08a.61.61,0,0,0-.16,1.19l.07,0-.25-1,0,0a.56.56,0,0,0,.11.87Z"/><path class="cls-3" d="M376.23,171.45c1.14-.83,1.9-2.15,2.94-3.13a8,8,0,0,1,4.53-2.3.68.68,0,0,0,0-1.3c-1.81-.25-3.26.66-4.65,1.77s-3.09,2.64-3.67,4.31a.59.59,0,0,0,.85.65Z"/><path class="cls-3" d="M381.74,166.55a4,4,0,0,0,1.48-.56.75.75,0,0,0-.58-1.36l-.5.16.58,1.37c.74-.35,1.38.07,2.12.07a.78.78,0,0,0,.75-1c-.45-1.32-2.68-.83-3.63-.38-.76.36-.22,1.64.58,1.37l.5-.17-.58-1.37a3.63,3.63,0,0,0-1.14.84c-.28.34-.15,1.08.42,1Z"/><path class="cls-3" d="M381.76,165.62a.12.12,0,0,0,0-.23.12.12,0,0,0,0,.23Z"/><path class="cls-3" d="M380,170.65a43.55,43.55,0,0,1,4.25-1.74c.95-.43,2.4-1,2.5-2.22.31-3.6-4.24-2.43-6-1.19-1.05.73-.06,2.47,1,1.74.6-.41,1.78-1.12,2.57-.91s-.6.88-1,1.06c-1.43.68-3.08,1-4.23,2.13a.72.72,0,0,0,.87,1.13Z"/><path class="cls-3" d="M374.15,176.08c-1.12,1.19-.09,2.68,1.3,2.95a4.57,4.57,0,0,0,4.14-1.32,1,1,0,0,0-.57-1.41c-.95-.22-1.68.31-2.59.5a1.44,1.44,0,0,1-1-.05c.13.07.16.22.07-.09a1.42,1.42,0,0,0-.39-.58.71.71,0,0,0-1,0Z"/><path class="cls-3" d="M376.72,170.74h0a.63.63,0,1,0-.17-1.25c-1.12.21-1.92,1.46-2.47,2.37s-.93,2.63,0,3.38a.76.76,0,0,0,1,0,1.32,1.32,0,0,0,.51-1,3.24,3.24,0,0,1,.31-1.59,9.85,9.85,0,0,0,1.36-2.34l-.78.45a.26.26,0,0,0,.15,0Z"/><path class="cls-3" d="M374.65,175.59a.85.85,0,0,0,0-1.7.85.85,0,0,0,0,1.7Z"/><path class="cls-3" d="M374.65,175.25a.59.59,0,0,0,0-1.17.59.59,0,0,0,0,1.17Z"/><path class="cls-3" d="M380.9,165.5c-3.64.89-7.08,5.35-7.25,9,0,1.09,1.64,1.09,1.69,0,.14-2.9,3.13-6.69,6-7.39,1.06-.26.61-1.9-.45-1.64Z"/><path class="cls-3" d="M383.12,164.49c-3.28.54-6.82,3.45-8.56,6.23-1.36,2.18-2.29,5.9.37,7.46a1,1,0,0,0,1.15-1.5c-2.18-2.21.51-5.64,2.17-7.21a28,28,0,0,1,5.46-3.57.77.77,0,0,0-.59-1.41Z"/><path class="cls-3" d="M375.14,171.74c-1.74.48-2.12,3.58-1.62,5a1,1,0,0,0,.93.71c1.17,0,.86-1.21.86-2,0-1.11.95-2.27.58-3.34a.61.61,0,0,0-.75-.42Z"/><path class="cls-3" d="M374.25,173.11c-1.74.42-1.22,4.81.62,4.2,1.05-.35.36-1.5.33-2.23s.17-2.23-.95-2Z"/><path class="cls-3" d="M373.82,173.27c-1.67,1.54-.53,5.52,1.76,5.85,1,.14,1.88-1.29.76-1.82a1.87,1.87,0,0,1-1.27-1.49c-.14-.75-.05-1.53-.24-2.28a.61.61,0,0,0-1-.26Z"/><path class="cls-3" d="M375.21,171.61a3.64,3.64,0,0,0-1,.82,2.61,2.61,0,0,0-.4,1.52.79.79,0,0,0,1.58,0,4.15,4.15,0,0,1,.2-1,4.89,4.89,0,0,1,.16-.76c.14-.31-.18-.78-.53-.53Z"/><path class="cls-3" d="M375,171.7c-1.82,0-2.56,3.73-1.28,4.74a.83.83,0,0,0,1.36-.36,15.61,15.61,0,0,0,0-2.17,6.18,6.18,0,0,0,.32-1.88.46.46,0,0,0-.44-.33Z"/><path class="cls-3" d="M375.59,170.21a4.42,4.42,0,0,0-2.26,3.94,1,1,0,0,0,1.9,0c0-1.24,1.07-2.07,1.25-3.25a.62.62,0,0,0-.89-.69Z"/><path class="cls-3" d="M380.4,168.93l0,.08c-.05.31.41.45.48.13v-.06a.25.25,0,0,0-.41-.25l-.11.09a0,0,0,0,0,0,0Z"/><path class="cls-3" d="M380.84,169.61a.18.18,0,0,0,0-.35.18.18,0,0,0,0,.35Z"/><path class="cls-3" d="M382,168.25c-2.78-.21-8.74,5.05-5.76,7.84,1.46,1.38,3.88-.06,5.34-.78,2.47-1.23,5.34-2.56,7.34-4.49a1,1,0,0,0-1.23-1.59c-2.77,1.49-5.35,3.35-8.25,4.61-.8.34-1.71,1-1.44-.35.17-.81,1.48-1.83,2.05-2.26.94-.7,1.87-1.09,2.44-2.13a.57.57,0,0,0-.49-.85Z"/><path class="cls-3" d="M384.55,173.06c1.54-.34,3.08-1.49,4.47-2.22,1.18-.61.14-2.28-1-1.75-1.49.66-3.32,1.5-4.28,2.87-.4.57.26,1.23.84,1.1Z"/><path class="cls-3" d="M385.84,172a12.52,12.52,0,0,0,4.13-2.46c.86-.71-.24-2-1.17-1.5a13.17,13.17,0,0,0-3.68,2.72.75.75,0,0,0,.72,1.24Z"/><path class="cls-3" d="M387.27,170.59a5.67,5.67,0,0,0,2.87-1.31.94.94,0,0,0-.95-1.62,5,5,0,0,0-2.46,2,.63.63,0,0,0,.54.94Z"/><path class="cls-3" d="M374.4,177c-1,1.64,1.34,2.57,2.63,2.38a9.7,9.7,0,0,0,5.35-2.93c.75-.84-.25-2.39-1.28-1.65-1.22.86-4.21,3.56-5.69,2.07a.66.66,0,0,0-1,.13Z"/><path class="cls-3" d="M378.17,178.24a3.1,3.1,0,0,0,2.78-.3,4.9,4.9,0,0,0,2.49-2.23c.22-.53-.41-1-.89-.9-.88.25-1.47,1-2.21,1.54s-1.48.67-2.17,1.1a.46.46,0,0,0,0,.79Z"/><path class="cls-3" d="M382.1,168.36l-.06.11s0,0,0,0l.05-.12s0,0,0,0Z"/><path class="cls-3" d="M381.56,168.22a1.47,1.47,0,0,0-.4.24.65.65,0,0,0,.66,1.13h.11l-.67-1.17a3,3,0,0,0-.42.46c-.48.63.43,1.37,1,1l.61-.35c.86-.48.1-1.76-.76-1.31l-.86.43c-.9.46-.11,1.83.79,1.36a8.87,8.87,0,0,1,.89-.39l-.59-1.39a6.66,6.66,0,0,1-1,.39l.62,1.46a5.21,5.21,0,0,0,1.9-1.06.74.74,0,0,0-.72-1.23c-.65.16-1.15.64-1.8.83-1,.28-.54,1.88.43,1.54a9.58,9.58,0,0,0,1.3-.61c.74-.41.23-1.71-.59-1.39-.36.14-.72.27-1.08.42l.6,1.43.83-.48-.76-1.31-.6.37,1,1a1.39,1.39,0,0,0,.22-.37c.28-.58-.33-1.38-1-1l-.24.16.79,1a1.29,1.29,0,0,0,.32-.34.59.59,0,0,0-.71-.93Z"/><path class="cls-3" d="M381.09,169.81l.1.08v-1.22l-.16.11a.71.71,0,0,0,.72,1.23l.08,0-.71-1.21-.12.06a.71.71,0,0,0,.72,1.23l.11-.06-.85-1.11-.09.07,1,1,.06,0c.61-.51-.19-1.53-.85-1.1l-.15.1.71,1.21.07-.06-.85-1.1,0,.05c-.44.58.11,1.53.84,1.09l.18-.11-.81-1-.11.11c-.52.51.16,1.47.8,1A.45.45,0,0,1,382,170l-.68-1.16-.15.11a.67.67,0,0,0,.67,1.16L382,170l-.67-1.15-.14.09a.66.66,0,0,0,.67,1.14l.19-.11c.74-.42.05-1.59-.66-1.13l-.15.09.65,1.11a6.71,6.71,0,0,1,1.52-.69c.89-.39.05-1.87-.75-1.3a13.94,13.94,0,0,1-1.42.88c-.62.33-.18,1.45.5,1.17l.16-.07-.51-1.19-.2.1.67,1.14L382,170c.76-.42.1-1.52-.67-1.15l-.23.11.67,1.16L382,170a.67.67,0,0,0-.68-1.16,2.52,2.52,0,0,0-.33.24l.8,1,.12-.1c.54-.42.27-1.52-.52-1.23l-.19.07.53,1.27.05,0c.72-.52,0-1.73-.71-1.21l-.07.06c-.73.51-.06,1.71.71,1.21l.14-.1-.85-1.1-.06.05c-.6.5.21,1.58.85,1.1l.09-.06c.58-.43.26-1.62-.54-1.29l-.12,0,.7,1.19.1-.08c.61-.51-.09-1.26-.68-1.17h-.09l.7,1.19.14-.12c.83-.72-.81-1.87-1.17-.69l0,.1a.55.55,0,0,0,.25.62Z"/><path class="cls-1" d="M543.12,166.79a1,1,0,0,1,.85-.31,1.27,1.27,0,0,1,.73.31,1.34,1.34,0,0,1,0,1.71,24.11,24.11,0,0,1-4.82,3.42,44,44,0,0,1-6.23,2.81,45.65,45.65,0,0,1-6.84,1.89,35,35,0,0,1-6.66.67,15.15,15.15,0,0,1-7.2-1.46,5.09,5.09,0,0,1-2.32-2.45,7.76,7.76,0,0,1-.61-3,9.77,9.77,0,0,1,.18-1.89c.12-.61.22-1.16.31-1.65l-.86.73-.73.73c-1,.9-2,1.84-3.18,2.81a34.22,34.22,0,0,1-3.36,2.57,19.27,19.27,0,0,1-3.29,1.77,6.69,6.69,0,0,1-3.31.48,4.45,4.45,0,0,1-2.1-1.33,3.44,3.44,0,0,1-.56-2.46,11.79,11.79,0,0,1,1.79-3.56,18.35,18.35,0,0,1,2.72-2.8,12.79,12.79,0,0,1,3.3-2,8.48,8.48,0,0,1,3.51-.71c.24.08.34.28.5.57a1.12,1.12,0,0,1,.25.79,1.14,1.14,0,0,1-.45.65,1.66,1.66,0,0,1-.9.33,6,6,0,0,0-2.48.76,16,16,0,0,0-2.72,2.09,9.16,9.16,0,0,0-1.83,1.71,9,9,0,0,0-1.11,2.79c-.08.25.28.69.69.93A5.75,5.75,0,0,0,499,173a20.75,20.75,0,0,0,2.87-1.83c1-.74,2-1.51,2.93-2.32s1.84-1.59,2.57-2.33a43.27,43.27,0,0,1,3.36-2.8,3.28,3.28,0,0,1,1.77-.74c.57,0,.89.21,1,.61l-.13-.12a2,2,0,0,1,.25.92,2.81,2.81,0,0,1-.25,1c-.24.81-.46,1.64-.67,2.5a10.47,10.47,0,0,0-.3,2.38,4,4,0,0,0,1.59,3.54,7.89,7.89,0,0,0,2.74.86,24.18,24.18,0,0,0,3.48.24,33,33,0,0,0,6-.61,43.2,43.2,0,0,0,6.41-1.71,45.72,45.72,0,0,0,5.92-2.56A19,19,0,0,0,543.12,166.79Z"/><path class="cls-3" d="M500.89,164c-.47.21-1,.41-1.1,1a.58.58,0,0,0,.54.72,2.12,2.12,0,0,0,1.24-.53.68.68,0,0,0-.68-1.17Z"/><path class="cls-3" d="M503,163.52c-.41-1.13-1.76-.53-2.48-.09a.77.77,0,0,0,.78,1.33c.41-.22,2-.43,1.7-1.24Z"/><path class="cls-3" d="M502.57,162.64a5.87,5.87,0,0,0-2.56,1c-.85.62,0,2,.83,1.41a12.14,12.14,0,0,1,2.12-1c.64-.31.36-1.5-.39-1.41Z"/><path class="cls-3" d="M498.24,166.44a5.17,5.17,0,0,1,3-1.95c.93-.15,1.91,0,2.66-.61a.58.58,0,0,0,0-.83c-1-.82-2.64-.27-3.73.11a6.32,6.32,0,0,0-3.07,2.39c-.42.7.62,1.56,1.16.89Z"/><path class="cls-3" d="M505.2,164.71a1.32,1.32,0,0,0-.5-2.26,5.24,5.24,0,0,0-3.7.6c-.5.23-1,.57-1,1.19a.82.82,0,0,0,.75.79c.58.07,1.21-.41,1.76-.56a7.94,7.94,0,0,1,1-.2l.55-.05c.34.07.34-.07,0-.41-.49.75.56,1.41,1.17.9Z"/><path class="cls-3" d="M498,168.25h0c-.05,0-.12,0-.09.08l0,0c0,.09.18,0,.09-.09Z"/><path class="cls-3" d="M497.42,167V167a.2.2,0,0,0-.1-.16l-.12-.1c-.2-.14-.4.19-.2.34l.13.09a.2.2,0,0,0,.23,0s0,0,.05-.06Z"/><path class="cls-3" d="M497.05,167.14a9.24,9.24,0,0,0,2.38-1.49.82.82,0,0,0-.79-1.35,4,4,0,0,0-2.41,2,.68.68,0,0,0,.82.83Z"/><path class="cls-3" d="M498.32,166.5a13.25,13.25,0,0,0,1.19-1.06c.64-.52-.21-1.63-.88-1.15s-1.21,1-1.14,1.73a.56.56,0,0,0,.83.48Z"/><path class="cls-3" d="M498,166.27a2.33,2.33,0,0,0,.83-.52c.71-.59-.31-1.59-1-1a1.13,1.13,0,0,0-.26.23l1.13.87,0-.06-1-1-.13.16c-.54.7.37,1.69,1,1l.27-.3c.64-.68-.31-1.57-1-1l-.25.2.87,1.12a2.71,2.71,0,0,1,.65-.56l-.73-1.25a6.28,6.28,0,0,0-1.93,1.77.79.79,0,0,0,0,.8l0,.1a.59.59,0,0,0,.53.3c.52,0,.68-.27,1-.66a5.07,5.07,0,0,1,1.11-1.06c.75-.53.06-1.75-.73-1.25a4.48,4.48,0,0,0-.94.8c-.49.57.19,1.65.87,1.12l.54-.43-1-1-.27.29,1,1,.12-.16c.55-.7-.35-1.68-1-1a2.39,2.39,0,0,0-.28.35c-.47.67.56,1.42,1.12.86l.12-.11-1-1a1.53,1.53,0,0,0-.33.9.51.51,0,0,0,.64.49Z"/><path class="cls-3" d="M500,165.91c1.23-.91,1.86-2.24,3.6-2.15a.72.72,0,0,0,.36-1.34c-1.17-.59-2.64,0-3.76.5a8.2,8.2,0,0,0-3.37,2.83.8.8,0,0,0,1.26,1,10.77,10.77,0,0,1,2.32-2c.74-.45,2.09-1.29,3-1l.19-1.42a4.41,4.41,0,0,0-4.23,2.73.59.59,0,0,0,.09.68l.14.13a.33.33,0,0,0,.4,0Z"/><path class="cls-3" d="M503.2,163.64l.13,0a.66.66,0,0,0,.63-1.09l-.09-.09-.14,1.11.07,0-.55.08h.07l.2-1.45h-.37l.2,1.51a.66.66,0,0,1,.43.12c.73.4,1.6-.61.92-1.2l-.12-.1-.16,1.23-.29.08c.85.08.93-1.05.39-1.45a2.21,2.21,0,0,0-2.45.06.81.81,0,0,0,.63,1.48,2.21,2.21,0,0,1,1.22-.12l.6-1.42,0,0a.82.82,0,0,0-1,.12l0,0a.79.79,0,0,0,.16,1.23l.15.07.59-1.39a5.61,5.61,0,0,0-1.22-.24c-1-.07-1,1.66,0,1.53l.57-.08c.81-.13.63-1.55-.2-1.45a.92.92,0,0,0-.65.29.72.72,0,0,0,.5,1.21h.13l-.56-1-.07.13a.56.56,0,0,0,.33.81Z"/><path class="cls-3" d="M504.64,163.4a.08.08,0,0,0,0-.16.08.08,0,1,0,0,.16Z"/><path class="cls-3" d="M504.92,162.67c-1-1-2.78-.71-3.87,0-.87.57-.07,2,.81,1.4s1.62-.25,2.55-.18a.73.73,0,0,0,.51-1.23Z"/><path class="cls-3" d="M504.72,163v0l-.4.69c.2-.08.39-.19.42-.42l-.57.44h.07a.59.59,0,0,0,.3-1.09l-.07,0-.3,1.11h.09a.6.6,0,0,0,.55-.42l0,0-.95.38.05,0,.33-1.2h0l.64.64v0l-1.26.17a.72.72,0,0,0,.52.52.69.69,0,0,0,.84-.83l0-.1-1.06.81a1.27,1.27,0,0,0,.41.15.66.66,0,0,0,.83-.63V163a.71.71,0,0,0-.36-.63l-.11,0a.73.73,0,1,0-.56,1.34h0l.8-1-.17-.19c-.72-.76-1.81.61-.88,1.13l.09,0,.69-1.16,0,0a.68.68,0,0,0-.69,0,.73.73,0,0,0-.33.42.67.67,0,0,0,.45.8h0c.69.22,1.18-.88.5-1.19l-.06,0c-1.1-.49-1.31,1.39-.15,1.18h0l.14-1-.08,0a.59.59,0,1,0-.46,1.09l.08,0,.31-1.13-.07,0c-.93-.29-1,1.42,0,1.15h0l.24-.9,0,0a.57.57,0,0,0-.95.33.57.57,0,0,0,.84.57l0,0a.53.53,0,0,0,.24-.59Z"/><path class="cls-3" d="M503.75,163.4l0,0c.56.44,1.09-.44.71-.91l-.05-.06-.59,1,.07,0,.33-1.2h0a.63.63,0,1,0,.38.93h0a.63.63,0,0,0-.53-.94H504a.61.61,0,0,0-.16,1.19l.07,0-.26-1,0,0c-.31.25-.13.68.12.87Z"/><path class="cls-3" d="M495.46,169c1.15-.83,1.9-2.15,2.94-3.12a8,8,0,0,1,4.54-2.31.68.68,0,0,0,0-1.3c-1.82-.25-3.27.66-4.65,1.77s-3.09,2.64-3.67,4.31a.58.58,0,0,0,.84.65Z"/><path class="cls-3" d="M501,164.14a4,4,0,0,0,1.48-.56.75.75,0,0,0-.57-1.36l-.5.16.57,1.37c.75-.35,1.38.07,2.12.07a.78.78,0,0,0,.75-1c-.45-1.32-2.68-.83-3.62-.38-.77.36-.23,1.64.57,1.37l.5-.17-.57-1.37a3.83,3.83,0,0,0-1.15.84c-.28.34-.14,1.08.42,1Z"/><path class="cls-3" d="M501,163.21a.12.12,0,0,0,0-.23.12.12,0,0,0,0,.23Z"/><path class="cls-3" d="M499.21,168.24a44.59,44.59,0,0,1,4.25-1.74c1-.43,2.4-1,2.5-2.22.32-3.6-4.24-2.43-6-1.19-1.05.73-.07,2.47,1,1.74.6-.41,1.78-1.12,2.57-.91s-.61.88-1,1.06c-1.43.68-3.08,1-4.24,2.14a.72.72,0,0,0,.87,1.12Z"/><path class="cls-3" d="M493.38,173.67c-1.11,1.19-.08,2.68,1.3,3a4.58,4.58,0,0,0,4.15-1.32,1,1,0,0,0-.58-1.41c-.95-.21-1.67.32-2.58.5a1.47,1.47,0,0,1-1,0c.14.07.17.22.08-.09a1.44,1.44,0,0,0-.4-.58.71.71,0,0,0-1,0Z"/><path class="cls-3" d="M496,168.33h0a.63.63,0,1,0-.17-1.25c-1.11.21-1.92,1.46-2.46,2.37s-.94,2.63,0,3.38a.76.76,0,0,0,1,0,1.26,1.26,0,0,0,.51-1,3.5,3.5,0,0,1,.31-1.6,10,10,0,0,0,1.37-2.33l-.79.44a.26.26,0,0,0,.15,0Z"/><path class="cls-3" d="M493.88,173.18a.85.85,0,0,0,0-1.7.85.85,0,0,0,0,1.7Z"/><path class="cls-3" d="M493.88,172.84a.59.59,0,0,0,0-1.17.59.59,0,0,0,0,1.17Z"/><path class="cls-3" d="M500.14,163.09c-3.65.89-7.09,5.35-7.26,9-.05,1.09,1.65,1.09,1.7,0,.13-2.9,3.13-6.69,6-7.39,1.06-.26.61-1.9-.45-1.64Z"/><path class="cls-3" d="M502.35,162.08c-3.28.54-6.82,3.45-8.56,6.23-1.36,2.18-2.29,5.9.37,7.46a1,1,0,0,0,1.16-1.5c-2.18-2.21.5-5.64,2.17-7.21a27.45,27.45,0,0,1,5.46-3.57.78.78,0,0,0-.6-1.41Z"/><path class="cls-3" d="M494.38,169.33c-1.74.48-2.12,3.58-1.62,5a1,1,0,0,0,.93.71c1.17,0,.86-1.21.85-2,0-1.11,1-2.27.58-3.34a.6.6,0,0,0-.74-.42Z"/><path class="cls-3" d="M493.48,170.7c-1.73.42-1.22,4.81.63,4.2,1.05-.35.36-1.5.33-2.23s.16-2.23-1-2Z"/><path class="cls-3" d="M493.06,170.86c-1.67,1.54-.53,5.52,1.75,5.85,1,.14,1.89-1.29.77-1.82a1.84,1.84,0,0,1-1.27-1.49c-.14-.75-.05-1.53-.24-2.28a.61.61,0,0,0-1-.26Z"/><path class="cls-3" d="M494.45,169.21a3.44,3.44,0,0,0-1,.81,2.61,2.61,0,0,0-.4,1.52.79.79,0,0,0,1.57,0,4.64,4.64,0,0,1,.2-1,4.55,4.55,0,0,1,.17-.75c.13-.31-.18-.79-.53-.53Z"/><path class="cls-3" d="M494.2,169.29c-1.83,0-2.56,3.73-1.29,4.74a.83.83,0,0,0,1.37-.36,15.61,15.61,0,0,0,0-2.17,5.63,5.63,0,0,0,.32-1.88.44.44,0,0,0-.43-.33Z"/><path class="cls-3" d="M494.83,167.8a4.42,4.42,0,0,0-2.26,3.94,1,1,0,0,0,1.9,0c0-1.24,1.07-2.07,1.25-3.25a.62.62,0,0,0-.89-.69Z"/><path class="cls-3" d="M499.64,166.53l0,.07c-.05.31.4.45.47.13l0-.06a.26.26,0,0,0-.42-.25l-.11.09v0Z"/><path class="cls-3" d="M500.07,167.2a.18.18,0,0,0,0-.35.18.18,0,0,0,0,.35Z"/><path class="cls-3" d="M501.25,165.84c-2.79-.2-8.74,5-5.77,7.84,1.47,1.38,3.89-.06,5.34-.78,2.48-1.23,5.34-2.55,7.34-4.49a1,1,0,0,0-1.23-1.59c-2.76,1.49-5.35,3.35-8.24,4.61-.8.34-1.71,1-1.44-.35.16-.81,1.48-1.83,2.05-2.26.94-.7,1.86-1.09,2.44-2.13a.57.57,0,0,0-.49-.85Z"/><path class="cls-3" d="M503.79,170.65c1.54-.34,3.08-1.49,4.47-2.21,1.18-.62.14-2.29-1-1.76-1.5.66-3.32,1.5-4.29,2.87-.4.57.26,1.23.85,1.1Z"/><path class="cls-3" d="M505.08,169.63a12.38,12.38,0,0,0,4.12-2.46c.86-.71-.24-2-1.16-1.5a13.08,13.08,0,0,0-3.69,2.72.75.75,0,0,0,.73,1.24Z"/><path class="cls-3" d="M506.5,168.18a5.63,5.63,0,0,0,2.87-1.31.94.94,0,0,0-.94-1.62,5.12,5.12,0,0,0-2.47,2,.63.63,0,0,0,.54.94Z"/><path class="cls-3" d="M493.64,174.61c-1.05,1.64,1.34,2.57,2.62,2.38a9.67,9.67,0,0,0,5.35-2.93c.76-.84-.25-2.39-1.28-1.65-1.22.86-4.21,3.56-5.68,2.07a.66.66,0,0,0-1,.13Z"/><path class="cls-3" d="M497.4,175.83a3.09,3.09,0,0,0,2.78-.3,4.92,4.92,0,0,0,2.5-2.23c.22-.53-.41-1-.9-.9-.87.25-1.46,1-2.2,1.54s-1.48.67-2.18,1.1a.46.46,0,0,0,0,.79Z"/><path class="cls-3" d="M501.34,166l-.06.11s0,0,0,0l.06-.12Z"/><path class="cls-3" d="M500.79,165.81a1.41,1.41,0,0,0-.39.24.65.65,0,0,0,.66,1.13h.11l-.68-1.17a2.61,2.61,0,0,0-.41.47c-.49.62.42,1.36,1,1l.61-.35c.85-.48.1-1.76-.77-1.31l-.85.43c-.91.46-.11,1.83.79,1.36.29-.15.58-.27.88-.39l-.58-1.39a7.15,7.15,0,0,1-1,.39l.61,1.46a5.05,5.05,0,0,0,1.9-1.06.74.74,0,0,0-.72-1.23c-.65.17-1.15.64-1.79.83-1,.28-.55,1.88.42,1.54a8.57,8.57,0,0,0,1.3-.61c.74-.41.23-1.71-.58-1.39-.36.14-.73.27-1.09.42l.61,1.43.83-.48-.77-1.31-.6.37,1,1a1.72,1.72,0,0,0,.22-.37c.28-.58-.34-1.38-1-1a1.88,1.88,0,0,1-.23.16l.79,1a1.47,1.47,0,0,0,.32-.34.6.6,0,0,0-.72-.93Z"/><path class="cls-3" d="M500.32,167.4l.1.08v-1.22l-.15.11a.71.71,0,0,0,.72,1.23l.07,0-.71-1.21-.11.06c-.81.44-.07,1.71.72,1.23l.11-.06-.86-1.11-.08.07,1,1,.06,0c.61-.5-.19-1.53-.85-1.1l-.14.1.7,1.21.08-.06-.85-1.1,0,.05c-.45.58.11,1.53.84,1.09l.18-.11-.82-1-.11.11c-.51.51.17,1.47.8,1l.21-.12-.67-1.16-.16.11a.67.67,0,0,0,.68,1.16l.23-.12-.67-1.15-.14.09a.66.66,0,0,0,.66,1.14l.2-.11c.73-.42.05-1.59-.66-1.13l-.15.09.65,1.11a6.51,6.51,0,0,1,1.52-.69c.88-.38,0-1.87-.76-1.3a12.79,12.79,0,0,1-1.41.88c-.63.33-.18,1.45.49,1.17l.16-.06-.5-1.2-.2.1.66,1.14.15-.08c.76-.42.09-1.52-.67-1.15l-.24.11.68,1.16.15-.11a.67.67,0,0,0-.67-1.16,2.08,2.08,0,0,0-.34.24l.8,1,.13-.1c.54-.42.27-1.52-.52-1.23l-.19.07.53,1.27.05,0c.72-.52,0-1.73-.71-1.21l-.07.06c-.73.51-.06,1.71.7,1.21l.15-.1-.85-1.1-.06.05c-.61.5.21,1.58.85,1.1l.09-.06c.58-.43.26-1.62-.55-1.29l-.11,0,.69,1.19.1-.08c.62-.51-.08-1.26-.68-1.17h-.08l.69,1.19.14-.12c.84-.72-.81-1.87-1.17-.69l0,.1a.56.56,0,0,0,.25.62Z"/></g></svg>
